<svg width="226" height="103" viewBox="0 0 226 103" fill="none" xmlns="http://www.w3.org/2000/svg">
<g filter="url(#filter0_d_2272_1267)">
<rect y="95.5626" width="95" height="59" rx="12" transform="rotate(-84.5 0 95.5626)" fill="#10AEFF"/>
</g>
<g filter="url(#filter1_d_2272_1267)">
<rect x="53.261" y="10.732" width="95" height="59" rx="12" transform="rotate(3.99 53.261 10.732)" fill="#23F788"/>
</g>
<path d="M67.1333 54.0056C67.0133 53.4056 66.6133 51.9656 66.2933 51.1656C67.5733 51.0056 69.2533 50.5256 71.4933 49.7256C73.9333 48.8856 81.6933 45.6856 87.8933 41.8856L89.9333 44.0456C83.2933 47.8456 76.2133 50.6856 69.3333 52.7656V52.8456C69.3333 52.8456 67.1333 53.4456 67.1333 54.0056ZM67.1333 54.0056L67.0933 51.9656L69.1733 50.9256L95.2133 49.6456C95.2933 50.4056 95.5333 51.4456 95.7333 51.9656C70.8933 53.3656 68.6533 53.5256 67.1333 54.0056ZM70.0533 47.8856C69.9333 47.2856 69.4933 45.9256 69.1733 45.1656C69.8933 45.0856 70.6933 44.7256 71.6133 44.2056C72.6533 43.7256 75.9733 41.7256 78.3333 39.5256L80.7333 41.2456C77.9333 43.3656 74.8933 45.2056 71.8933 46.4456V46.5256C71.8933 46.5256 70.0533 47.2856 70.0533 47.8856ZM70.0533 47.8856V45.8856L71.6533 45.0856L83.4933 44.7656C83.2533 45.4456 82.9733 46.5256 82.8533 47.0856C72.2533 47.4856 70.8933 47.6056 70.0533 47.8856ZM81.1733 51.2056H84.1733V58.9256C84.1733 60.4856 83.8533 61.2056 82.5333 61.6456C81.3333 62.0456 79.3733 62.0856 76.4533 62.0856C76.2933 61.2456 75.8133 60.2056 75.3733 59.4456C77.7333 59.5256 79.7733 59.5256 80.3733 59.5256C81.0133 59.4856 81.1733 59.3656 81.1733 58.8856V51.2056ZM88.8533 47.5656L90.8933 46.1256C93.7733 48.0056 97.2933 50.8056 98.9733 52.8456L96.7733 54.4856C95.2133 52.4456 91.8133 49.5656 88.8533 47.5656ZM87.4133 55.8856L89.5733 54.3256C92.7333 55.8856 96.8533 58.3256 98.9733 60.0456L96.6933 61.7656C94.6933 60.0856 90.6533 57.5256 87.4133 55.8856ZM73.9733 54.2056L76.6933 55.3256C74.0933 57.7656 70.2533 60.2056 67.0533 61.7656C66.5333 61.2456 65.4133 60.2056 64.6933 59.7256C68.0533 58.3656 71.6533 56.2856 73.9733 54.2056ZM79.5733 27.0056H95.5733V29.6456H79.5733V27.0056ZM84.0933 28.6056C86.4533 34.4056 91.9333 38.0856 99.7333 39.3656C99.0533 40.0056 98.2533 41.2056 97.8933 42.0056C89.8533 40.2856 84.3733 36.0456 81.6533 29.2456L84.0933 28.6056ZM94.8533 27.0056H95.4533L95.9733 26.8856L97.7333 27.6456C94.8533 35.5256 87.6533 39.5656 79.6133 41.4056C79.3333 40.6856 78.6933 39.4856 78.1333 38.9256C85.5733 37.5256 92.4533 33.8856 94.8533 27.4456V27.0056ZM66.5733 27.9256H69.2933V39.8056H66.5733V27.9256ZM73.3733 26.1256H76.0933V41.1656H73.3733V26.1256ZM108.693 34.7656H134.813V48.9256H107.853V46.4456H131.853V37.2856H108.693V34.7656ZM113.173 28.4056H126.893V30.8856H113.173V28.4056ZM109.093 40.6456H133.013V43.0056H109.093V40.6456ZM114.213 25.2456L117.453 25.8456C114.973 30.4056 111.173 35.3256 105.573 39.0856C105.093 38.3656 104.133 37.4056 103.413 36.9256C108.693 33.6456 112.333 29.0856 114.213 25.2456ZM113.813 51.9656H116.733V57.8456C116.733 58.8456 117.093 59.0456 119.093 59.0456C119.973 59.0456 124.613 59.0456 125.853 59.0456C127.493 59.0456 127.773 58.4856 127.973 54.5256C128.573 55.0056 129.813 55.4456 130.613 55.6056C130.253 60.4856 129.373 61.6456 126.093 61.6456C125.253 61.6456 119.653 61.6456 118.853 61.6456C114.773 61.6456 113.813 60.8056 113.813 57.8856V51.9656ZM116.533 50.2856L118.413 48.3656C121.053 49.3656 124.173 51.0856 125.733 52.5656L123.773 54.6856C122.293 53.2056 119.173 51.3656 116.533 50.2856ZM130.253 52.4856L132.693 51.0856C135.533 53.4056 138.733 56.7656 140.133 59.1656L137.453 60.7656C136.133 58.3656 133.053 54.9256 130.253 52.4856ZM108.973 51.5256L111.693 52.4856C110.613 55.7256 108.973 58.9256 105.893 60.8456L103.413 59.0456C106.253 57.4056 108.053 54.4856 108.973 51.5256ZM126.213 28.4056H126.853L127.333 28.2456L129.413 29.5656C128.093 32.0456 125.933 35.0056 124.253 36.8456C123.693 36.4056 122.653 35.7656 121.973 35.4456C123.533 33.7256 125.373 30.8856 126.213 28.9656V28.4056Z" fill="#333333"/>
<path d="M64.7033 95.9655V75.6655H76.7383V78.0435H67.4583V84.2495H75.2013V86.5115H67.4583V95.9655H64.7033ZM79.6428 95.9655V80.8855H82.1658V84.1625C82.4171 83.5245 82.7555 82.9348 83.1808 82.3935C83.6061 81.8328 84.1378 81.3881 84.7758 81.0595C85.4138 80.7115 86.1581 80.5375 87.0088 80.5375C87.2988 80.5375 87.5888 80.5568 87.8788 80.5955C88.1688 80.6148 88.4105 80.6535 88.6038 80.7115L87.8208 83.4085C87.4535 83.2538 87.0185 83.1765 86.5158 83.1765C85.8005 83.1765 85.1141 83.3795 84.4568 83.7855C83.8188 84.1915 83.2871 84.8198 82.8618 85.6705C82.4558 86.5211 82.2528 87.6038 82.2528 88.9185V95.9655H79.6428ZM90.9358 95.9655V80.8855H93.5458V95.9655H90.9358ZM92.2408 78.3045C91.7381 78.3045 91.3031 78.1208 90.9358 77.7535C90.5878 77.3861 90.4138 76.9608 90.4138 76.4775C90.4138 75.9168 90.5781 75.4721 90.9068 75.1435C91.2355 74.8148 91.6801 74.6505 92.2408 74.6505C92.7435 74.6505 93.1688 74.8341 93.5168 75.2015C93.8841 75.5495 94.0678 75.9748 94.0678 76.4775C94.0678 77.0188 93.9035 77.4635 93.5748 77.8115C93.2461 78.1401 92.8015 78.3045 92.2408 78.3045ZM103.928 96.3135C101.762 96.3135 100.042 95.6271 98.7658 94.2545C97.5091 92.8625 96.8808 90.9195 96.8808 88.4255C96.8808 86.9175 97.1611 85.5738 97.7218 84.3945C98.3018 83.1958 99.1041 82.2581 100.129 81.5815C101.153 80.8855 102.342 80.5375 103.696 80.5375C105.146 80.5375 106.344 80.8565 107.292 81.4945C108.258 82.1131 108.983 82.9541 109.467 84.0175C109.95 85.0808 110.192 86.2505 110.192 87.5265C110.192 88.2031 110.163 88.8605 110.105 89.4985H99.5488C99.7228 90.9098 100.216 92.0118 101.028 92.8045C101.84 93.5971 102.913 93.9935 104.247 93.9935C105.117 93.9935 105.9 93.9065 106.596 93.7325C107.292 93.5391 107.959 93.2975 108.597 93.0075L109.206 95.2405C108.51 95.5498 107.727 95.8011 106.857 95.9945C105.987 96.2071 105.01 96.3135 103.928 96.3135ZM99.5198 87.3815H107.785C107.785 85.9121 107.417 84.7811 106.683 83.9885C105.948 83.1958 104.933 82.7995 103.638 82.7995C102.516 82.7995 101.588 83.1958 100.854 83.9885C100.119 84.7618 99.6745 85.8928 99.5198 87.3815ZM113.38 95.9655V80.8855H115.903V83.4085C116.445 82.5965 117.131 81.9198 117.962 81.3785C118.813 80.8178 119.818 80.5375 120.978 80.5375C122.68 80.5375 123.946 81.0498 124.777 82.0745C125.628 83.0991 126.053 84.4525 126.053 86.1345V95.9655H123.443V86.4245C123.443 85.3418 123.182 84.4718 122.66 83.8145C122.158 83.1571 121.452 82.8285 120.543 82.8285C119.654 82.8285 118.813 83.1475 118.02 83.7855C117.228 84.4041 116.551 85.1388 115.99 85.9895V95.9655H113.38ZM135.965 96.3135C134.728 96.3135 133.597 95.9945 132.572 95.3565C131.548 94.7185 130.736 93.8195 130.136 92.6595C129.537 91.4801 129.237 90.0978 129.237 88.5125C129.237 86.9851 129.537 85.6221 130.136 84.4235C130.755 83.2248 131.567 82.2775 132.572 81.5815C133.597 80.8855 134.718 80.5375 135.936 80.5375C136.942 80.5375 137.802 80.7405 138.517 81.1465C139.252 81.5525 139.822 81.9681 140.228 82.3935V74.5055H142.838V92.3115C142.838 93.0461 143.012 93.5295 143.36 93.7615C143.728 93.9741 144.124 94.0805 144.549 94.0805L143.998 96.1105C142.162 96.1105 141.04 95.3758 140.634 93.9065C140.209 94.5058 139.61 95.0568 138.836 95.5595C138.082 96.0621 137.125 96.3135 135.965 96.3135ZM136.545 93.9935C137.261 93.9935 137.937 93.8291 138.575 93.5005C139.233 93.1525 139.784 92.7078 140.228 92.1665V84.6845C139.861 84.2205 139.349 83.7951 138.691 83.4085C138.034 83.0025 137.309 82.7995 136.516 82.7995C135.588 82.7995 134.776 83.0508 134.08 83.5535C133.384 84.0561 132.843 84.7328 132.456 85.5835C132.089 86.4148 131.905 87.3621 131.905 88.4255C131.905 89.4888 132.108 90.4458 132.514 91.2965C132.92 92.1278 133.471 92.7851 134.167 93.2685C134.883 93.7518 135.675 93.9935 136.545 93.9935ZM153.895 96.1975C152.716 96.1975 151.595 96.1685 150.531 96.1105C149.487 96.0525 148.656 95.9848 148.037 95.9075V75.7235C148.714 75.6461 149.555 75.5785 150.56 75.5205C151.566 75.4625 152.716 75.4335 154.011 75.4335C156.486 75.4335 158.39 75.9071 159.724 76.8545C161.058 77.7825 161.725 79.0488 161.725 80.6535C161.725 81.7168 161.435 82.6255 160.855 83.3795C160.295 84.1141 159.473 84.7231 158.39 85.2065C159.705 85.6705 160.701 86.3181 161.377 87.1495C162.054 87.9615 162.392 88.9668 162.392 90.1655C162.392 92.0021 161.667 93.4715 160.217 94.5735C158.767 95.6561 156.66 96.1975 153.895 96.1975ZM150.792 84.4235H153.982C155.51 84.4235 156.718 84.1045 157.607 83.4665C158.516 82.8285 158.97 82.0068 158.97 81.0015C158.97 79.9188 158.526 79.0971 157.636 78.5365C156.747 77.9565 155.529 77.6665 153.982 77.6665C153.344 77.6665 152.764 77.6858 152.242 77.7245C151.72 77.7438 151.237 77.7728 150.792 77.8115V84.4235ZM154.098 93.9065C155.819 93.9065 157.163 93.5971 158.129 92.9785C159.096 92.3598 159.579 91.4608 159.579 90.2815C159.579 89.1215 159.106 88.2128 158.158 87.5555C157.211 86.8981 155.858 86.5695 154.098 86.5695H150.792V93.7325C151.817 93.8485 152.919 93.9065 154.098 93.9065ZM170.306 96.3135C169.417 96.3135 168.614 96.1491 167.899 95.8205C167.184 95.4725 166.613 94.9215 166.188 94.1675C165.782 93.4135 165.579 92.4371 165.579 91.2385V74.5055H168.189V90.9775C168.189 92.0215 168.402 92.7948 168.827 93.2975C169.272 93.8001 169.881 94.0515 170.654 94.0515C171.021 94.0515 171.379 94.0128 171.727 93.9355C172.094 93.8388 172.404 93.7325 172.655 93.6165L173.293 95.7335C172.945 95.8881 172.51 96.0235 171.988 96.1395C171.485 96.2555 170.925 96.3135 170.306 96.3135ZM181.067 96.3135C178.901 96.3135 177.181 95.6271 175.905 94.2545C174.648 92.8625 174.02 90.9195 174.02 88.4255C174.02 86.9175 174.3 85.5738 174.861 84.3945C175.441 83.1958 176.243 82.2581 177.268 81.5815C178.292 80.8855 179.481 80.5375 180.835 80.5375C182.285 80.5375 183.483 80.8565 184.431 81.4945C185.397 82.1131 186.122 82.9541 186.606 84.0175C187.089 85.0808 187.331 86.2505 187.331 87.5265C187.331 88.2031 187.302 88.8605 187.244 89.4985H176.688C176.862 90.9098 177.355 92.0118 178.167 92.8045C178.979 93.5971 180.052 93.9935 181.386 93.9935C182.256 93.9935 183.039 93.9065 183.735 93.7325C184.431 93.5391 185.098 93.2975 185.736 93.0075L186.345 95.2405C185.649 95.5498 184.866 95.8011 183.996 95.9945C183.126 96.2071 182.149 96.3135 181.067 96.3135ZM176.659 87.3815H184.924C184.924 85.9121 184.556 84.7811 183.822 83.9885C183.087 83.1958 182.072 82.7995 180.777 82.7995C179.655 82.7995 178.727 83.1958 177.993 83.9885C177.258 84.7618 176.813 85.8928 176.659 87.3815ZM190.519 95.9655V80.8855H193.042V83.4085C193.583 82.5965 194.27 81.9198 195.101 81.3785C195.952 80.8178 196.957 80.5375 198.117 80.5375C199.818 80.5375 201.085 81.0498 201.916 82.0745C202.767 83.0991 203.192 84.4525 203.192 86.1345V95.9655H200.582V86.4245C200.582 85.3418 200.321 84.4718 199.799 83.8145C199.296 83.1571 198.591 82.8285 197.682 82.8285C196.793 82.8285 195.952 83.1475 195.159 83.7855C194.366 84.4041 193.69 85.1388 193.129 85.9895V95.9655H190.519ZM213.104 96.3135C211.867 96.3135 210.736 95.9945 209.711 95.3565C208.687 94.7185 207.875 93.8195 207.275 92.6595C206.676 91.4801 206.376 90.0978 206.376 88.5125C206.376 86.9851 206.676 85.6221 207.275 84.4235C207.894 83.2248 208.706 82.2775 209.711 81.5815C210.736 80.8855 211.857 80.5375 213.075 80.5375C214.081 80.5375 214.941 80.7405 215.656 81.1465C216.391 81.5525 216.961 81.9681 217.367 82.3935V74.5055H219.977V92.3115C219.977 93.0461 220.151 93.5295 220.499 93.7615C220.867 93.9741 221.263 94.0805 221.688 94.0805L221.137 96.1105C219.301 96.1105 218.179 95.3758 217.773 93.9065C217.348 94.5058 216.749 95.0568 215.975 95.5595C215.221 96.0621 214.264 96.3135 213.104 96.3135ZM213.684 93.9935C214.4 93.9935 215.076 93.8291 215.714 93.5005C216.372 93.1525 216.923 92.7078 217.367 92.1665V84.6845C217 84.2205 216.488 83.7951 215.83 83.4085C215.173 83.0025 214.448 82.7995 213.655 82.7995C212.727 82.7995 211.915 83.0508 211.219 83.5535C210.523 84.0561 209.982 84.7328 209.595 85.5835C209.228 86.4148 209.044 87.3621 209.044 88.4255C209.044 89.4888 209.247 90.4458 209.653 91.2965C210.059 92.1278 210.61 92.7851 211.306 93.2685C212.022 93.7518 212.814 93.9935 213.684 93.9935Z" fill="#333333"/>
<path d="M166.453 41.0455H169.333V64.1255H166.453V41.0455ZM159.893 31.4455L163.613 32.5255C163.573 32.8055 163.333 32.9655 162.773 33.0455V42.3255C162.773 48.7255 162.093 57.8855 157.253 64.4455C156.813 63.8055 155.693 62.8855 154.933 62.5655C159.413 56.4855 159.893 48.4055 159.893 42.2855V31.4455ZM180.093 36.3255L182.493 38.6055C177.693 40.6855 170.333 42.3655 163.933 43.4855C163.773 42.8455 163.333 41.7655 162.973 41.1255C169.133 39.9655 176.213 38.1655 180.093 36.3255ZM178.893 27.3255L181.493 29.6455C176.253 31.8455 168.533 33.7255 161.693 35.0055C161.573 34.2855 161.053 33.2055 160.693 32.5655C167.293 31.2855 174.733 29.3255 178.893 27.3255ZM174.533 39.8455C175.693 49.5655 178.173 58.0455 183.773 61.7255C183.093 62.2855 182.093 63.4455 181.653 64.2855C175.773 59.8455 173.293 50.9655 172.053 40.1255L174.533 39.8455ZM181.453 43.1255L183.493 45.2855C181.173 47.2455 178.413 49.4455 176.253 50.8455L174.773 49.1655C176.853 47.6455 179.813 45.0055 181.453 43.1255ZM148.573 29.8855L150.253 27.6855C152.773 28.7655 155.853 30.5255 157.373 31.8855L155.613 34.4055C154.133 32.9255 151.093 31.0455 148.573 29.8855ZM146.573 40.7255L148.253 38.4855C150.733 39.4055 153.853 41.1255 155.413 42.4055L153.693 44.8855C152.173 43.5655 149.133 41.8055 146.573 40.7255ZM147.493 61.8055C149.453 58.6855 152.253 53.4055 154.373 48.8055L156.693 50.5655C154.813 54.8455 152.293 59.9255 150.173 63.6455L147.493 61.8055ZM187.453 32.7255H201.093V35.6055H187.453V32.7255ZM200.093 32.7255H200.613L201.133 32.6055L203.053 33.1655C201.373 48.7255 196.133 58.6855 188.573 64.0855C188.133 63.3655 187.173 62.2455 186.453 61.6855C193.413 57.1255 198.573 47.1655 200.093 33.4455V32.7255ZM188.333 42.8455L190.413 41.0055C195.813 45.6855 201.933 52.2455 204.453 56.8455L202.093 59.0455C199.613 54.4455 193.693 47.6455 188.333 42.8455ZM203.973 37.0055H223.013V39.9255H203.973V37.0055ZM215.253 27.3655H218.253V60.1255C218.253 62.1255 217.733 63.0055 216.533 63.5655C215.333 64.0855 213.293 64.1655 209.853 64.1655C209.733 63.3255 209.293 61.9255 208.853 61.0055C211.373 61.0855 213.613 61.0855 214.293 61.0455C214.973 61.0055 215.253 60.8055 215.253 60.0855V27.3655ZM204.733 45.2455L207.213 44.0855C209.133 46.8455 211.053 50.5255 211.693 52.9655L209.053 54.2455C208.453 51.8455 206.653 48.0455 204.733 45.2455Z" fill="#333333"/>
<circle cx="51.5933" cy="41.4655" r="10.5" fill="#10AEFF"/>
<defs>
<filter id="filter0_d_2272_1267" x="0.0940552" y="0.0940552" width="69.6456" height="102.029" filterUnits="userSpaceOnUse" color-interpolation-filters="sRGB">
<feFlood flood-opacity="0" result="BackgroundImageFix"/>
<feColorMatrix in="SourceAlpha" type="matrix" values="0 0 0 0 0 0 0 0 0 0 0 0 0 0 0 0 0 0 127 0" result="hardAlpha"/>
<feOffset dx="1"/>
<feGaussianBlur stdDeviation="1"/>
<feComposite in2="hardAlpha" operator="out"/>
<feColorMatrix type="matrix" values="0 0 0 0 0 0 0 0 0 0 0 0 0 0 0 0 0 0 0.25 0"/>
<feBlend mode="normal" in2="BackgroundImageFix" result="effect1_dropShadow_2272_1267"/>
<feBlend mode="normal" in="SourceGraphic" in2="effect1_dropShadow_2272_1267" result="shape"/>
</filter>
<filter id="filter1_d_2272_1267" x="48.9611" y="10.5374" width="101.264" height="67.8565" filterUnits="userSpaceOnUse" color-interpolation-filters="sRGB">
<feFlood flood-opacity="0" result="BackgroundImageFix"/>
<feColorMatrix in="SourceAlpha" type="matrix" values="0 0 0 0 0 0 0 0 0 0 0 0 0 0 0 0 0 0 127 0" result="hardAlpha"/>
<feOffset dx="1" dy="1"/>
<feGaussianBlur stdDeviation="1"/>
<feComposite in2="hardAlpha" operator="out"/>
<feColorMatrix type="matrix" values="0 0 0 0 0 0 0 0 0 0 0 0 0 0 0 0 0 0 0.25 0"/>
<feBlend mode="normal" in2="BackgroundImageFix" result="effect1_dropShadow_2272_1267"/>
<feBlend mode="normal" in="SourceGraphic" in2="effect1_dropShadow_2272_1267" result="shape"/>
</filter>
</defs>
</svg>
