<svg xmlns="http://www.w3.org/2000/svg" width="29" height="29" viewBox="0 0 29 29" fill="none">
  <path d="M9.66678 2.89999C9.05391 2.89999 8.50861 3.2839 8.30174 3.861L3.46841 17.3943C3.46772 17.3963 3.4672 17.3981 3.46652 17.4H2.90011C2.77202 17.3982 2.64484 17.4218 2.52597 17.4696C2.4071 17.5174 2.29891 17.5883 2.20769 17.6782C2.11646 17.7682 2.04402 17.8754 1.99458 17.9935C1.94514 18.1117 1.91968 18.2386 1.91968 18.3667C1.91968 18.4948 1.94514 18.6216 1.99458 18.7398C2.04402 18.858 2.11646 18.9651 2.20769 19.0551C2.29891 19.145 2.4071 19.2159 2.52597 19.2637C2.64484 19.3115 2.77202 19.3351 2.90011 19.3333H6.76678C6.89487 19.3351 7.02205 19.3115 7.14092 19.2637C7.25979 19.2159 7.36798 19.145 7.4592 19.0551C7.55043 18.9651 7.62287 18.858 7.67231 18.7398C7.72175 18.6216 7.74721 18.4948 7.74721 18.3667C7.74721 18.2386 7.72175 18.1117 7.67231 17.9935C7.62287 17.8754 7.55043 17.7682 7.4592 17.6782C7.36798 17.5883 7.25979 17.5174 7.14092 17.4696C7.02205 17.4218 6.89487 17.3982 6.76678 17.4H6.54588L7.2369 15.4667H12.0967L12.7877 17.4H12.8047L14.3359 13.1123L11.0318 3.861C10.825 3.2839 10.2796 2.89999 9.66678 2.89999ZM19.3731 7.73333C19.0673 7.72517 18.7668 7.81391 18.5145 7.98685C18.2622 8.15979 18.0711 8.40808 17.9684 8.69622L13.1351 22.2296L13.1332 22.2333H12.5668C12.4387 22.2315 12.3115 22.2552 12.1926 22.3029C12.0738 22.3507 11.9656 22.4216 11.8744 22.5116C11.7831 22.6015 11.7107 22.7087 11.6612 22.8269C11.6118 22.9451 11.5863 23.0719 11.5863 23.2C11.5863 23.3281 11.6118 23.4549 11.6612 23.5731C11.7107 23.6913 11.7831 23.7985 11.8744 23.8884C11.9656 23.9784 12.0738 24.0493 12.1926 24.097C12.3115 24.1448 12.4387 24.1685 12.5668 24.1667H14.1244C14.3616 24.2277 14.6103 24.2277 14.8475 24.1667H16.4334C16.5615 24.1685 16.6887 24.1448 16.8076 24.097C16.9265 24.0493 17.0346 23.9784 17.1259 23.8884C17.2171 23.7985 17.2895 23.6913 17.339 23.5731C17.3884 23.4549 17.4139 23.3281 17.4139 23.2C17.4139 23.0719 17.3884 22.9451 17.339 22.8269C17.2895 22.7087 17.2171 22.6015 17.1259 22.5116C17.0346 22.4216 16.9265 22.3507 16.8076 22.3029C16.6887 22.2552 16.5615 22.2315 16.4334 22.2333H16.2107L16.9017 20.3H21.7652L22.4543 22.2333H22.2334C22.1054 22.2315 21.9782 22.2552 21.8593 22.3029C21.7404 22.3507 21.6322 22.4216 21.541 22.5116C21.4498 22.6015 21.3774 22.7087 21.3279 22.8269C21.2785 22.9451 21.253 23.0719 21.253 23.2C21.253 23.3281 21.2785 23.4549 21.3279 23.5731C21.3774 23.6913 21.4498 23.7985 21.541 23.8884C21.6322 23.9784 21.7404 24.0493 21.8593 24.097C21.9782 24.1448 22.1054 24.1685 22.2334 24.1667H23.825C24.0592 24.2261 24.3045 24.2261 24.5387 24.1667H26.1001C26.2282 24.1685 26.3554 24.1448 26.4743 24.097C26.5931 24.0493 26.7013 23.9784 26.7925 23.8884C26.8838 23.7985 26.9562 23.6913 27.0056 23.5731C27.0551 23.4549 27.0805 23.3281 27.0805 23.2C27.0805 23.0719 27.0551 22.9451 27.0056 22.8269C26.9562 22.7087 26.8838 22.6015 26.7925 22.5116C26.7013 22.4216 26.5931 22.3507 26.4743 22.3029C26.3554 22.2552 26.2282 22.2315 26.1001 22.2333H25.5337L25.5318 22.2296L20.6985 8.69622C20.6004 8.42082 20.4213 8.18152 20.1848 8.00968C19.9483 7.83785 19.6653 7.74152 19.3731 7.73333ZM9.66678 8.66223L11.4075 13.5333H7.92602L9.66678 8.66223ZM19.3334 13.4918L21.0742 18.3667H17.5927L19.3334 13.4918ZM12.5668 26.1C12.4387 26.0982 12.3115 26.1218 12.1926 26.1696C12.0738 26.2174 11.9656 26.2883 11.8744 26.3782C11.7831 26.4682 11.7107 26.5754 11.6612 26.6935C11.6118 26.8117 11.5863 26.9386 11.5863 27.0667C11.5863 27.1948 11.6118 27.3216 11.6612 27.4398C11.7107 27.558 11.7831 27.6651 11.8744 27.7551C11.9656 27.845 12.0738 27.9159 12.1926 27.9637C12.3115 28.0115 12.4387 28.0351 12.5668 28.0333H26.1001C26.2282 28.0351 26.3554 28.0115 26.4743 27.9637C26.5931 27.9159 26.7013 27.845 26.7925 27.7551C26.8838 27.6651 26.9562 27.558 27.0056 27.4398C27.0551 27.3216 27.0805 27.1948 27.0805 27.0667C27.0805 26.9386 27.0551 26.8117 27.0056 26.6935C26.9562 26.5754 26.8838 26.4682 26.7925 26.3782C26.7013 26.2883 26.5931 26.2174 26.4743 26.1696C26.3554 26.1218 26.2282 26.0982 26.1001 26.1H12.5668Z" fill="#979797"/>
</svg>