<svg width="27" height="27" viewBox="0 0 27 27" fill="none" xmlns="http://www.w3.org/2000/svg">
<g id="Group">
<path id="Vector" opacity="0.35" d="M13.8001 27.0001C21.0903 27.0001 27.0001 21.0903 27.0001 13.8001C27.0001 6.50997 21.0903 0.600128 13.8001 0.600128C6.50994 0.600128 0.600098 6.50997 0.600098 13.8001C0.600098 21.0903 6.50994 27.0001 13.8001 27.0001Z" fill="black"/>
<path id="Vector_2" d="M13.2 26.4C20.4902 26.4 26.4 20.4902 26.4 13.2C26.4 5.90984 20.4902 0 13.2 0C5.90984 0 0 5.90984 0 13.2C0 20.4902 5.90984 26.4 13.2 26.4Z" fill="#F2F2F2"/>
<path id="Vector_3" d="M13.1999 25.5001C6.4178 25.5001 0.899902 19.9822 0.899902 13.2001C0.899902 6.41795 6.4178 0.900055 13.1999 0.900055C19.982 0.900055 25.4999 6.41795 25.4999 13.2001C25.4999 19.9822 19.982 25.5001 13.1999 25.5001Z" fill="#F2F2F2"/>
<path id="Vector_4" d="M13.2081 24.6157C19.5084 24.6157 24.6159 19.5082 24.6159 13.2079C24.6159 6.90752 19.5084 1.80008 13.2081 1.80008C6.90774 1.80008 1.80029 6.90752 1.80029 13.2079C1.80029 19.5082 6.90774 24.6157 13.2081 24.6157Z" fill="#22ED83"/>
<path id="Vector_5" d="M13.1995 24.9C6.74801 24.9 1.49951 19.6515 1.49951 13.2C1.49951 6.74853 6.74801 1.50003 13.1995 1.50003C19.651 1.50003 24.8995 6.74853 24.8995 13.2C24.8995 19.6515 19.651 24.9 13.1995 24.9ZM13.1995 2.40003C7.24421 2.40003 2.39951 7.24473 2.39951 13.2C2.39951 19.1553 7.24421 24 13.1995 24C19.1548 24 23.9995 19.1553 23.9995 13.2C23.9995 7.24473 19.1548 2.40003 13.1995 2.40003Z" fill="#40396E"/>
<g id="Group_2">
<path id="Vector_6" d="M13.1998 19.4999C12.7027 19.4999 12.2998 19.097 12.2998 18.5999V7.79989C12.2998 7.30279 12.7027 6.89989 13.1998 6.89989C13.6969 6.89989 14.0998 7.30279 14.0998 7.79989V18.5999C14.0998 19.097 13.6969 19.4999 13.1998 19.4999Z" fill="white"/>
</g>
<g id="Group_3">
<path id="Vector_7" d="M18.5994 14.0999H7.79941C7.30231 14.0999 6.89941 13.697 6.89941 13.1999C6.89941 12.7028 7.30231 12.2999 7.79941 12.2999H18.5994C19.0965 12.2999 19.4994 12.7028 19.4994 13.1999C19.4994 13.697 19.0965 14.0999 18.5994 14.0999Z" fill="white"/>
</g>
</g>
</svg>
