<svg xmlns="http://www.w3.org/2000/svg" width="27" height="27" viewBox="0 0 27 27" fill="none">
  <path opacity="0.35" d="M14.1129 25.9716C20.6741 25.9716 25.9929 20.6527 25.9929 14.0916C25.9929 7.53044 20.6741 2.21158 14.1129 2.21158C7.55177 2.21158 2.23291 7.53044 2.23291 14.0916C2.23291 20.6527 7.55177 25.9716 14.1129 25.9716Z" fill="black"/>
  <path d="M13.5729 25.4316C20.134 25.4316 25.4529 20.1127 25.4529 13.5516C25.4529 6.99043 20.134 1.67157 13.5729 1.67157C7.01173 1.67157 1.69287 6.99043 1.69287 13.5516C1.69287 20.1127 7.01173 25.4316 13.5729 25.4316Z" fill="#F2F2F2"/>
  <path d="M13.5729 24.6216C7.46904 24.6216 2.50293 19.6555 2.50293 13.5516C2.50293 7.44768 7.46904 2.48157 13.5729 2.48157C19.6768 2.48157 24.6429 7.44768 24.6429 13.5516C24.6429 19.6555 19.6768 24.6216 13.5729 24.6216Z" fill="#F2F2F2"/>
  <path d="M13.58 3.29156C7.90974 3.29156 3.31299 7.88832 3.31299 13.5586C3.31299 19.2289 7.90974 23.8256 13.58 23.8256C19.2503 23.8256 23.847 19.2289 23.847 13.5586C23.847 7.88832 19.2503 3.29156 13.58 3.29156ZM6.21009 13.5C6.21009 9.47375 9.47385 6.21 13.5001 6.21C14.9605 6.21 16.3192 6.64091 17.4596 7.38045L7.38054 17.4595C6.64101 16.3191 6.21009 14.9604 6.21009 13.5ZM13.5001 20.79C11.97 20.79 10.5506 20.3178 9.378 19.5121L19.5122 9.37791C20.3179 10.5505 20.7901 11.9699 20.7901 13.5C20.7901 17.5262 17.5263 20.79 13.5001 20.79Z" fill="#FF7575"/>
  <path d="M13.573 3.42657C7.98103 3.42657 3.448 7.9596 3.448 13.5516C3.448 19.1435 7.98103 23.6766 13.573 23.6766C19.165 23.6766 23.698 19.1435 23.698 13.5516C23.698 7.9596 19.1647 3.42657 13.573 3.42657ZM6.36643 13.5516C6.36643 9.5715 9.59293 6.345 13.573 6.345C15.0429 6.345 16.4093 6.78618 17.5493 7.54164L7.56307 17.5279C6.80734 16.3879 6.36643 15.0215 6.36643 13.5516ZM13.573 20.7581C12.0389 20.7581 10.6178 20.2773 9.44929 19.4603L19.4817 9.42786C20.2987 10.5964 20.7796 12.0174 20.7796 13.5516C20.7796 17.5316 17.5531 20.7581 13.573 20.7581Z" stroke="#40396E" stroke-miterlimit="10" stroke-linecap="round" stroke-linejoin="round"/>
</svg>