<svg xmlns="http://www.w3.org/2000/svg" width="25" height="21" viewBox="0 0 25 21" fill="none">
  <path d="M0 18C0 14.25 5.5656 14.8695 6.4 12.7507V12C3.3776 12 1.6688 10.587 1.6688 10.587C3.248 9.35475 1.0608 0.78225 6.4392 0.78225C6.4392 0.78225 7.1648 0 8.1032 0C14.6776 0 12.5112 9.3075 14.2112 10.6155C14.2112 10.6155 12.6368 12 9.5992 12V12.7507C10.4344 14.8695 16 14.25 16 18H0Z" fill="#979797"/>
  <path d="M16.725 13.9997V14.0646L16.7455 14.1262C17.0248 14.9639 17.7814 15.4043 18.5806 15.7128C18.9879 15.87 19.4374 16.0042 19.8883 16.1369C19.918 16.1457 19.9478 16.1544 19.9776 16.1632C20.4044 16.2887 20.8343 16.4151 21.2575 16.5645C22.1649 16.8848 22.9928 17.2949 23.5963 17.9601C24.133 18.5515 24.5202 19.3759 24.589 20.6H4.41097C4.47985 19.3759 4.86701 18.5515 5.40365 17.9601C6.00721 17.2949 6.83513 16.8848 7.74251 16.5645C8.1657 16.4151 8.59562 16.2887 9.02244 16.1632C9.05222 16.1544 9.08198 16.1457 9.11173 16.1369C9.5626 16.0042 10.0121 15.87 10.4194 15.7128C11.2186 15.4043 11.9752 14.9639 12.2545 14.1262L12.275 14.0646V13.9997V12.2496V12.0014L12.0526 11.8912C12.0206 11.8753 11.9167 11.7991 11.758 11.6339C11.6103 11.4801 11.4417 11.2773 11.2796 11.0473C10.9467 10.5748 10.6822 10.0447 10.6345 9.6217L10.5974 9.29285L10.2674 9.26769C10.2221 9.26423 10.1225 9.24 10.0123 9.10757C9.89759 8.96959 9.75959 8.69808 9.69402 8.18513L9.69402 8.1851C9.63898 7.75479 9.85556 7.56644 9.91152 7.53424L10.2321 7.34975L10.0734 7.01613L10.0734 7.0161L10.0733 7.01596L10.0733 7.01586L10.0732 7.01573L10.0729 7.01514L10.0702 7.00913L10.0577 6.98158C10.0466 6.95654 10.0302 6.91858 10.0102 6.86958C9.97011 6.77138 9.91619 6.62991 9.86223 6.46004C9.75284 6.11571 9.65 5.67547 9.65 5.25022C9.65 3.88232 10.0167 2.67524 10.782 1.815C11.54 0.962857 12.7343 0.4 14.5 0.4C15.4058 0.4 15.9741 0.694109 16.3121 0.96734C16.4838 1.10617 16.6008 1.24356 16.6732 1.34295C16.7093 1.39258 16.7341 1.43238 16.7488 1.45761C16.7561 1.47021 16.7609 1.47911 16.7633 1.4837L16.7649 1.48663L16.8719 1.71255H17.125C17.8582 1.71255 18.3943 2.07213 18.7664 2.69083C19.1488 3.32663 19.35 4.2317 19.35 5.25022C19.35 5.72454 19.2461 6.16516 19.139 6.49151C19.0858 6.65351 19.0328 6.78432 18.9938 6.87331C18.9744 6.91773 18.9585 6.95152 18.9479 6.97333L18.9363 6.99683L18.934 7.00123L18.934 7.00139L18.9339 7.00148L18.9339 7.00153L18.9338 7.00176L18.9337 7.00198L18.7546 7.3421L19.0885 7.53424C19.1446 7.56651 19.361 7.75405 19.306 8.18513C19.2404 8.69808 19.1024 8.96959 18.9877 9.10757C18.8775 9.24 18.7779 9.26423 18.7326 9.26769L18.4026 9.29285L18.3655 9.6217C18.3178 10.0447 18.0533 10.5748 17.7204 11.0473C17.5583 11.2773 17.3897 11.4801 17.242 11.6339C17.0833 11.7991 16.9794 11.8753 16.9474 11.8912L16.725 12.0014V12.2496V13.9997Z" fill="#979797" stroke="#EBEBEB" stroke-width="0.8"/>
</svg>