<svg xmlns="http://www.w3.org/2000/svg" x="0px" y="0px" width="100" height="100" viewBox="0 0 100 100">
<path d="M19.508,95c-5.79,0-10.5-4.71-10.5-10.5v-41c0-5.79,4.71-10.5,10.5-10.5H20.5 c1.172-6.604,4.397-12.85,9.204-17.644C35.754,9.323,43.694,6,52.062,6c11.014,0.031,21.082,5.595,26.971,14.883 c1.61,2.542,2.005,5.636,1.083,8.49c-0.441,1.363-1.158,2.594-2.092,3.627h6.486c5.79,0,10.5,4.71,10.5,10.5v41 c0,5.79-4.71,10.5-10.5,10.5H19.508z" opacity=".35"></path><path fill="#f2f2f2" d="M17.508,93c-5.79,0-10.5-4.71-10.5-10.5v-41c0-5.79,4.71-10.5,10.5-10.5H18.5 c1.172-6.604,4.397-12.85,9.204-17.644C33.754,7.323,41.694,4,50.062,4c11.014,0.031,21.082,5.595,26.971,14.883 c1.61,2.542,2.005,5.636,1.083,8.49c-0.441,1.363-1.158,2.594-2.092,3.627h6.486c5.79,0,10.5,4.71,10.5,10.5v41 c0,5.79-4.71,10.5-10.5,10.5H17.508z"></path><path fill="#9aa2e6" d="M82.508,37.5h-51V36c0-10.201,8.299-18.5,18.5-18.5c7.269,0,13.564,4.218,16.586,10.332 c-0.003,0.004,6.342-3.005,6.327-3.029C68.775,16.334,60.074,10.5,50.008,10.5c-14.083,0-25.5,11.417-25.5,25.5v1.5h-7 c-2.209,0-4,1.791-4,4v41c0,2.209,1.791,4,4,4h65c2.209,0,4-1.791,4-4v-41C86.508,39.291,84.718,37.5,82.508,37.5z"></path><path fill="#ffc571" d="M82.508,87h-65c-2.209,0-4-1.791-4-4V43c0-2.209,1.791-4,4-4h65c2.209,0,4,1.791,4,4v40 C86.508,85.209,84.718,87,82.508,87z"></path><circle cx="50.008" cy="58" r="6" fill="#40396e"></circle><rect width="6" height="11" x="47.008" y="62" fill="#40396e"></rect><path fill="none" stroke="#40396e" stroke-linecap="round" stroke-linejoin="round" stroke-miterlimit="10" stroke-width="3" d="M82.508,37.5H81.5h-5.992h-7H62.5H31.508v-1.034c0-10.077,7.862-18.654,17.934-18.957c6.799-0.204,12.807,3.285,16.183,8.604 c0.914,1.441,2.698,2.058,4.282,1.424l0,0c2.054-0.822,2.819-3.305,1.634-5.173C67.036,15.254,59.116,10.525,50.081,10.5 c-14.067-0.039-25.573,11.985-25.573,26.052V37.5h-7c-2.209,0-4,1.791-4,4v41c0,2.209,1.791,4,4,4h65c2.209,0,4-1.791,4-4v-41 C86.508,39.291,84.718,37.5,82.508,37.5z"></path>
</svg>