<svg xmlns="http://www.w3.org/2000/svg" width="27" height="27" viewBox="0 0 27 27" fill="none">
  <path opacity="0.35" d="M14.04 25.92C20.6011 25.92 25.92 20.6012 25.92 14.04C25.92 7.47889 20.6011 2.16003 14.04 2.16003C7.47883 2.16003 2.15997 7.47889 2.15997 14.04C2.15997 20.6012 7.47883 25.92 14.04 25.92Z" fill="black"/>
  <path d="M13.5 25.38C20.0611 25.38 25.38 20.0611 25.38 13.5C25.38 6.93885 20.0611 1.62 13.5 1.62C6.93885 1.62 1.62 6.93885 1.62 13.5C1.62 20.0611 6.93885 25.38 13.5 25.38Z" fill="#F2F2F2"/>
  <path d="M13.5 24.5701C7.3961 24.5701 2.42999 19.6039 2.42999 13.5001C2.42999 7.39616 7.3961 2.43005 13.5 2.43005C19.6039 2.43005 24.57 7.39616 24.57 13.5001C24.57 19.6039 19.6039 24.5701 13.5 24.5701Z" fill="#F2F2F2"/>
  <path d="M13.507 23.774C19.1773 23.774 23.774 19.1773 23.774 13.507C23.774 7.83669 19.1773 3.23999 13.507 3.23999C7.83669 3.23999 3.23999 7.83669 3.23999 13.507C3.23999 19.1773 7.83669 23.774 13.507 23.774Z" fill="#FF7575"/>
  <path d="M13.5 23.625C19.0919 23.625 23.625 19.0919 23.625 13.5C23.625 7.90812 19.0919 3.375 13.5 3.375C7.90812 3.375 3.375 7.90812 3.375 13.5C3.375 19.0919 7.90812 23.625 13.5 23.625Z" stroke="#40396E" stroke-miterlimit="10"/>
  <path d="M9.68164 9.68164L17.3183 17.3183" stroke="white" stroke-width="2" stroke-miterlimit="10" stroke-linecap="round" stroke-linejoin="round"/>
  <path d="M17.3183 9.68164L9.68164 17.3183" stroke="white" stroke-width="2" stroke-miterlimit="10" stroke-linecap="round" stroke-linejoin="round"/>
</svg>