<svg xmlns="http://www.w3.org/2000/svg" width="27" height="27" viewBox="0 0 27 27" fill="none">
  <path opacity="0.35" d="M7.05698 24.8891C6.39899 24.8891 5.80229 24.5263 5.49908 23.9422C5.19668 23.3596 5.24339 22.6635 5.62031 22.126C6.04232 21.5252 6.28532 20.9844 6.42464 20.5732C4.03487 18.6826 2.68298 16.0315 2.68298 13.1738C2.68298 7.66908 7.77761 3.19086 14.04 3.19086C20.3024 3.19086 25.3967 7.66908 25.3967 13.1738C25.3967 18.6786 20.3021 23.1568 14.04 23.1568C13.3024 23.1568 12.623 23.1071 11.9826 23.0059C11.0476 23.8081 9.36008 24.8891 7.05698 24.8891Z" fill="black"/>
  <path d="M6.51694 24.3491C5.85895 24.3491 5.26225 23.9863 4.95904 23.4023C4.65664 22.8196 4.70335 22.1235 5.08027 21.586C5.50228 20.9852 5.74528 20.4444 5.8846 20.0332C3.49483 18.1427 2.14294 15.4915 2.14294 12.6338C2.14294 7.12908 7.23784 2.65086 13.5 2.65086C19.7621 2.65086 24.8567 7.12908 24.8567 12.6338C24.8567 18.1386 19.7621 22.6168 13.5 22.6168C12.7623 22.6168 12.083 22.5671 11.4426 22.4659C10.5075 23.2681 8.82004 24.3491 6.51694 24.3491Z" fill="#F2F2F2"/>
  <path d="M23.1017 12.6338C23.1017 17.1809 18.8246 20.8618 13.5 20.8618C12.5833 20.8618 11.7104 20.7751 10.8812 20.5586C10.8812 20.5586 9.22262 22.5939 6.51668 22.5939C7.82591 20.7317 7.82591 19.2594 7.82591 19.2594C5.42534 17.7436 3.89795 15.3619 3.89795 12.6338C3.89795 8.08676 8.17529 4.40585 13.5 4.40585C18.8246 4.40585 23.1017 8.08703 23.1017 12.6338Z" fill="#70BFFF"/>
  <path d="M6.51699 22.9991C6.36579 22.9991 6.22728 22.9149 6.15762 22.7807C6.08796 22.6465 6.09876 22.4848 6.1857 22.3611C7.11801 21.0352 7.34724 19.9163 7.40313 19.4678C4.91508 17.8143 3.49353 15.336 3.49353 12.6336C3.49353 7.87347 7.98255 4.0006 13.5005 4.0006C19.0185 4.0006 23.5073 7.87347 23.5073 12.6336C23.5073 17.3937 19.018 21.2668 13.5 21.2668C12.5831 21.2668 11.769 21.1826 11.0198 21.0101C10.5062 21.5487 8.90109 22.9991 6.51699 22.9991ZM13.5 4.81087C8.42886 4.81087 4.30299 8.32005 4.30299 12.6338C4.30299 15.1265 5.66595 17.4166 8.04222 18.917C8.15994 18.9913 8.23095 19.1206 8.23095 19.2596C8.23095 19.3169 8.2188 20.5211 7.29513 22.127C9.31203 21.8025 10.5538 20.3194 10.5675 20.3024C10.6682 20.1806 10.8313 20.1272 10.9833 20.1671C11.7304 20.3621 12.5534 20.4568 13.4997 20.4568C18.5709 20.4568 22.6965 16.9476 22.6965 12.6338C22.6965 8.32005 18.5711 4.81087 13.5 4.81087Z" fill="#40396E"/>
</svg>