<svg xmlns="http://www.w3.org/2000/svg" width="17" height="17" viewBox="0 0 17 17" fill="none">
  <path d="M8.49997 0.566666C7.8738 0.566666 7.36663 1.07383 7.36663 1.7V2.83333C7.36663 2.20717 6.85947 1.7 6.2333 1.7C5.60713 1.7 5.09997 2.20717 5.09997 2.83333V2.99049C4.93277 2.89329 4.74073 2.83333 4.5333 2.83333C3.90713 2.83333 3.39997 3.3405 3.39997 3.96667V4.53333H2.26663C2.19304 4.53358 2.11965 4.54099 2.04749 4.55547C2.04149 4.55667 2.03575 4.55859 2.02979 4.55989C1.77633 4.61406 1.54909 4.75346 1.38596 4.95486C1.22283 5.15626 1.13365 5.40749 1.1333 5.66667V11.9C1.1333 12.5194 1.64723 13.0333 2.26663 13.0333H3.39997C3.39997 14.9113 4.92203 16.4333 6.79997 16.4333H8.88844C10.0909 16.4333 11.2448 15.9552 12.0948 15.1052L13.8833 13.3167L16.4322 12.1756C16.4277 11.0933 15.581 10.7667 14.7333 10.7667C14.0029 10.7667 13.3461 10.8806 11.9 11.6167L11.3333 11.9H4.5333H2.26663V6.8C2.56721 6.8 2.85548 6.68059 3.06802 6.46805C3.28056 6.25551 3.39997 5.96724 3.39997 5.66667H13.6C13.6 5.96724 13.7194 6.25551 13.9319 6.46805C14.1445 6.68059 14.4327 6.8 14.7333 6.8V9.63333H15.8666V5.66667C15.8664 5.59307 15.859 5.51968 15.8445 5.44753C15.8433 5.44152 15.8414 5.43579 15.8401 5.42982C15.7859 5.17636 15.6465 4.94913 15.4451 4.78599C15.2437 4.62286 14.9925 4.53368 14.7333 4.53333H11.9V2.26667C11.9 1.6405 11.3928 1.13333 10.7666 1.13333C10.1405 1.13333 9.6333 1.6405 9.6333 2.26667V1.7C9.6333 1.07383 9.12613 0.566666 8.49997 0.566666ZM16.4322 12.1756C16.4322 12.1784 16.4333 12.1811 16.4333 12.1833V12.1756H16.4322ZM8.49997 6.8C7.2482 6.8 6.2333 7.94183 6.2333 9.35C6.2333 9.8804 6.39072 10.3609 6.63949 10.7667H10.3604C10.6092 10.3609 10.7666 9.8804 10.7666 9.35C10.7666 7.94183 9.75173 6.8 8.49997 6.8ZM3.96663 8.5C3.81634 8.5 3.67221 8.5597 3.56594 8.66597C3.45967 8.77224 3.39997 8.91638 3.39997 9.06667C3.39997 9.21696 3.45967 9.36109 3.56594 9.46736C3.67221 9.57363 3.81634 9.63333 3.96663 9.63333C4.11692 9.63333 4.26106 9.57363 4.36733 9.46736C4.4736 9.36109 4.5333 9.21696 4.5333 9.06667C4.5333 8.91638 4.4736 8.77224 4.36733 8.66597C4.26106 8.5597 4.11692 8.5 3.96663 8.5ZM13.0333 8.5C12.883 8.5 12.7389 8.5597 12.6326 8.66597C12.5263 8.77224 12.4666 8.91638 12.4666 9.06667C12.4666 9.21696 12.5263 9.36109 12.6326 9.46736C12.7389 9.57363 12.883 9.63333 13.0333 9.63333C13.1836 9.63333 13.3277 9.57363 13.434 9.46736C13.5403 9.36109 13.6 9.21696 13.6 9.06667C13.6 8.91638 13.5403 8.77224 13.434 8.66597C13.3277 8.5597 13.1836 8.5 13.0333 8.5Z" fill="#979797"/>
</svg>