<svg xmlns="http://www.w3.org/2000/svg" width="17" height="17" viewBox="0 0 17 17" fill="none">
  <path d="M7.93328 1.7V4.53333C7.93222 4.60842 7.94609 4.68298 7.9741 4.75266C8.0021 4.82234 8.04367 4.88576 8.09639 4.93924C8.14912 4.99271 8.21195 5.03518 8.28123 5.06416C8.3505 5.09314 8.42485 5.10807 8.49995 5.10807C8.57505 5.10807 8.6494 5.09314 8.71868 5.06416C8.78796 5.03518 8.85078 4.99271 8.90351 4.93924C8.95623 4.88576 8.99781 4.82234 9.02581 4.75266C9.05381 4.68298 9.06768 4.60842 9.06662 4.53333V2.94733C11.9215 3.24377 14.1666 5.56497 14.1666 8.5C14.1666 11.6362 11.6362 14.1667 8.49995 14.1667C5.36372 14.1667 2.83328 11.6362 2.83328 8.5C2.83328 7.10956 3.33304 5.84389 4.16252 4.85872C4.21048 4.80175 4.24676 4.73589 4.26927 4.66489C4.29179 4.5939 4.3001 4.51916 4.29373 4.44496C4.28736 4.37075 4.26643 4.29853 4.23215 4.23241C4.19787 4.16629 4.1509 4.10757 4.09392 4.05961C4.03694 4.01164 3.97108 3.97537 3.90008 3.95286C3.82908 3.93035 3.75435 3.92205 3.68015 3.92842C3.60594 3.9348 3.53372 3.95573 3.4676 3.99001C3.40148 4.0243 3.34277 4.07128 3.29481 4.12825C2.30075 5.30889 1.69995 6.83724 1.69995 8.5C1.69995 12.2488 4.75119 15.3 8.49995 15.3C12.2487 15.3 15.3 12.2488 15.3 8.5C15.3 4.75124 12.2487 1.7 8.49995 1.7H7.93328ZM5.32352 5.10443C5.15758 5.12863 5.03372 5.32325 5.14422 5.49622C5.97382 6.79786 7.39038 8.99304 7.69865 9.3013C8.14122 9.74387 8.85869 9.74387 9.30125 9.3013C9.74382 8.85874 9.74382 8.14126 9.30125 7.6987C8.99299 7.38986 6.79781 5.97387 5.49618 5.14427C5.43852 5.10744 5.37883 5.09636 5.32352 5.10443Z" fill="#979797"/>
</svg>