<svg xmlns="http://www.w3.org/2000/svg" width="27" height="27" viewBox="0 0 27 27" fill="none">
  <path opacity="0.35" d="M13.8001 27C13.629 27 13.4586 26.9775 13.2937 26.9331L7.67012 25.4255C7.34126 25.3377 7.03848 25.163 6.79619 24.9209L2.67923 20.8039C2.43709 20.5616 2.26234 20.2589 2.17415 19.9282L0.666529 14.305C0.577905 13.975 0.577905 13.6252 0.666822 13.2944L2.17459 7.67015C2.26234 7.3413 2.43709 7.03837 2.67938 6.79623L6.79619 2.67929C7.03833 2.43715 7.34126 2.2624 7.67188 2.17422L13.2951 0.666601C13.4588 0.622656 13.6291 0.600098 13.8001 0.600098C13.971 0.600098 14.1414 0.622656 14.3065 0.667041L19.93 2.17466C20.2589 2.2624 20.5618 2.43715 20.804 2.67944L24.9209 6.79623C25.1631 7.03837 25.3378 7.3413 25.426 7.67191L26.9336 13.2951C27.0222 13.6252 27.0222 13.975 26.9333 14.3057L25.4256 19.93C25.3378 20.2589 25.1631 20.5616 24.9209 20.8039L20.804 24.9209C20.5617 25.163 20.2589 25.3377 19.9281 25.4259L14.305 26.9335C14.1415 26.9775 13.9712 27 13.8001 27Z" fill="black"/>
  <path d="M13.2 26.4C13.0289 26.4 12.8585 26.3774 12.6936 26.333L7.07002 24.8254C6.74116 24.7376 6.43838 24.5629 6.19609 24.3208L2.07913 20.2038C1.83699 19.9615 1.66224 19.6588 1.57405 19.3281L0.066431 13.7049C-0.0221924 13.3749 -0.0221924 13.0251 0.0667239 12.6943L1.57449 7.07006C1.66224 6.7412 1.83699 6.43827 2.07928 6.19613L6.19609 2.0792C6.43823 1.83706 6.74116 1.6623 7.07178 1.57412L12.695 0.0665038C12.8587 0.0225585 13.029 0 13.2 0C13.3709 0 13.5413 0.0225586 13.7064 0.0669432L19.3299 1.57456C19.6588 1.6623 19.9617 1.83706 20.2039 2.07934L24.3208 6.19613C24.563 6.43827 24.7377 6.7412 24.8259 7.07181L26.3335 12.695C26.4221 13.0251 26.4221 13.3749 26.3332 13.7056L24.8255 19.3299C24.7377 19.6588 24.563 19.9615 24.3208 20.2038L20.2039 24.3208C19.9616 24.5629 19.6588 24.7376 19.328 24.8258L13.7049 26.3334C13.5414 26.3774 13.3711 26.4 13.2 26.4Z" fill="#F2F2F2"/>
  <path d="M13.2 1.94995V13.1999L7.57495 3.45801L13.2 1.94995Z" fill="#D84178"/>
  <path d="M18.8247 3.45825L22.9417 7.57518L13.1997 13.2002L18.8247 3.45825Z" fill="#E66F2E"/>
  <path d="M13.1997 1.94995L18.8247 3.45801L13.1997 13.1999V1.94995Z" fill="#DE5147"/>
  <path d="M13.1997 24.4502V13.2002L18.8247 22.9421L13.1997 24.4502Z" fill="#96C362"/>
  <path d="M7.57472 22.9421L3.45776 18.8252L13.1997 13.2002L7.57472 22.9421Z" fill="#70BFFF"/>
  <path d="M13.2 24.4502L7.57495 22.9421L13.2 13.2002V24.4502Z" fill="#739F4D"/>
  <path d="M24.4497 13.2002H13.1997L22.9417 7.5752L24.4497 13.2002Z" fill="#EF8630"/>
  <path d="M22.9417 18.8252L18.8247 22.9421L13.1997 13.2002L22.9417 18.8252Z" fill="#FFE385"/>
  <path d="M24.4497 13.2002L22.9417 18.8252L13.1997 13.2002H24.4497Z" fill="#F9B84F"/>
  <path d="M1.94995 13.2002H13.2L3.45802 18.8252L1.94995 13.2002Z" fill="#2785BD"/>
  <path d="M3.45776 7.57518L7.57472 3.45825L13.1997 13.2002L3.45776 7.57518Z" fill="#BD7BC8"/>
  <path d="M1.94995 13.2002L3.45802 7.5752L13.2 13.2002H1.94995Z" fill="#707CC0"/>
  <path opacity="0.65" d="M22.942 7.57494L18.825 3.45801L13.2 1.94995L7.57497 3.45801L3.45801 7.57494L1.94995 13.1999L3.45801 18.8249L7.57497 22.9418L13.2 24.4499L18.825 22.9418L22.942 18.8249L24.45 13.1999L22.942 7.57494Z" fill="#F2F2F2"/>
  <path d="M13.2002 24.9002C13.161 24.9002 13.122 24.8951 13.0836 24.8848L7.45859 23.3768C7.38242 23.3564 7.31269 23.3161 7.25703 23.2603L3.14022 19.1434C3.08426 19.0876 3.04412 19.018 3.02361 18.9418L1.51541 13.3168C1.49519 13.2404 1.49519 13.1601 1.51541 13.0836L3.02361 7.45863C3.04412 7.38246 3.08426 7.31288 3.14022 7.25707L7.25703 3.14013C7.31269 3.08432 7.38242 3.04404 7.45859 3.02368L13.0836 1.51562C13.1604 1.49512 13.2401 1.49512 13.3168 1.51562L18.9418 3.02368C19.018 3.04404 19.0877 3.08432 19.1434 3.14013L23.2602 7.25707C23.3162 7.31288 23.3563 7.38246 23.3768 7.45863L24.885 13.0836C24.9052 13.1601 24.9052 13.2404 24.885 13.3168L23.3768 18.9418C23.3563 19.018 23.3162 19.0876 23.2602 19.1434L19.1434 23.2603C19.0877 23.3161 19.018 23.3564 18.9418 23.3768L13.3168 24.8848C13.2784 24.8951 13.2395 24.9002 13.2002 24.9002ZM7.8081 22.5387L13.2002 23.9844L18.5923 22.5387L22.5386 18.5923L23.9844 13.2002L22.5386 7.80814L18.5923 3.86171L13.2002 2.41606L7.8081 3.86171L3.8618 7.80814L2.41599 13.2002L3.8618 18.5923L7.8081 22.5387Z" fill="#40396E"/>
</svg>