<svg xmlns="http://www.w3.org/2000/svg" width="14" height="14" viewBox="0 0 14 14" fill="none">
  <path d="M6.99415 1.75005C6.89492 1.7516 6.80036 1.79245 6.73122 1.86365C6.66209 1.93484 6.62402 2.03056 6.62538 2.12979V3.25367C6.62468 3.30331 6.63385 3.3526 6.65236 3.39866C6.67087 3.44473 6.69836 3.48666 6.73321 3.52201C6.76807 3.55736 6.8096 3.58544 6.8554 3.6046C6.9012 3.62376 6.95035 3.63363 7 3.63363C7.04965 3.63363 7.0988 3.62376 7.1446 3.6046C7.1904 3.58544 7.23193 3.55736 7.26679 3.52201C7.30164 3.48666 7.32913 3.44473 7.34764 3.39866C7.36615 3.3526 7.37532 3.30331 7.37462 3.25367V2.12979C7.37531 2.07967 7.36593 2.02992 7.34704 1.98349C7.32815 1.93706 7.30014 1.89489 7.26466 1.85948C7.22919 1.82407 7.18696 1.79614 7.1405 1.77734C7.09403 1.75855 7.04426 1.74926 6.99415 1.75005ZM3.55234 3.1783C3.47787 3.17847 3.40515 3.20082 3.34345 3.2425C3.28174 3.28418 3.23386 3.3433 3.20591 3.41232C3.17796 3.48134 3.1712 3.55712 3.18651 3.62999C3.20182 3.70287 3.2385 3.76952 3.29186 3.82146L4.08646 4.61607C4.12098 4.65203 4.16233 4.68073 4.20808 4.7005C4.25383 4.72028 4.30307 4.73072 4.3529 4.73123C4.40274 4.73174 4.45218 4.72229 4.49833 4.70345C4.54447 4.68462 4.58639 4.65676 4.62164 4.62151C4.65688 4.58627 4.68474 4.54435 4.70358 4.4982C4.72241 4.45206 4.73186 4.40262 4.73135 4.35278C4.73084 4.30294 4.7204 4.2537 4.70062 4.20795C4.68085 4.1622 4.65215 4.12085 4.61619 4.08633L3.82159 3.29171C3.7866 3.25574 3.74473 3.22716 3.69847 3.20768C3.65222 3.1882 3.60252 3.17821 3.55234 3.1783ZM10.436 3.1783C10.3386 3.1812 10.2463 3.22188 10.1784 3.29171L9.38381 4.08633C9.34785 4.12085 9.31915 4.1622 9.29938 4.20795C9.2796 4.2537 9.26916 4.30294 9.26865 4.35278C9.26814 4.40262 9.27759 4.45206 9.29643 4.4982C9.31527 4.54435 9.34312 4.58627 9.37837 4.62151C9.41361 4.65676 9.45553 4.68461 9.50167 4.70345C9.54782 4.72229 9.59726 4.73174 9.6471 4.73123C9.69693 4.73072 9.74617 4.72028 9.79192 4.7005C9.83767 4.68073 9.87902 4.65203 9.91354 4.61607L10.7081 3.82146C10.7623 3.76884 10.7992 3.70109 10.8142 3.62709C10.8292 3.5531 10.8215 3.47631 10.792 3.40678C10.7626 3.33726 10.7129 3.27824 10.6493 3.23747C10.5858 3.1967 10.5114 3.17608 10.436 3.1783ZM7 4.37754C6.30451 4.37754 5.63751 4.65383 5.14573 5.14562C4.65395 5.63741 4.37767 6.30442 4.37767 6.99992C4.37767 7.69541 4.65395 8.36242 5.14573 8.85421C5.63751 9.346 6.30451 9.62229 7 9.62229C7.69549 9.62229 8.36249 9.346 8.85427 8.85421C9.34605 8.36242 9.62233 7.69541 9.62233 6.99992C9.62233 6.30442 9.34605 5.63741 8.85427 5.14562C8.36249 4.65383 7.69549 4.37754 7 4.37754ZM2.12995 6.62529C2.08031 6.62459 2.03103 6.63376 1.98496 6.65227C1.93889 6.67078 1.89697 6.69827 1.86161 6.73312C1.82626 6.76798 1.79819 6.80951 1.77903 6.85532C1.75987 6.90112 1.75 6.95027 1.75 6.99992C1.75 7.04956 1.75987 7.09872 1.77903 7.14452C1.79819 7.19032 1.82626 7.23185 1.86161 7.26671C1.89697 7.30157 1.93889 7.32905 1.98496 7.34756C2.03103 7.36607 2.08031 7.37524 2.12995 7.37454H3.25381C3.30345 7.37524 3.35274 7.36607 3.3988 7.34756C3.44487 7.32905 3.4868 7.30157 3.52215 7.26671C3.5575 7.23185 3.58558 7.19032 3.60474 7.14452C3.6239 7.09872 3.63377 7.04956 3.63377 6.99992C3.63377 6.95027 3.6239 6.90112 3.60474 6.85532C3.58558 6.80951 3.5575 6.76798 3.52215 6.73312C3.4868 6.69827 3.44487 6.67078 3.3988 6.65227C3.35274 6.63376 3.30345 6.62459 3.25381 6.62529H2.12995ZM10.7462 6.62529C10.6965 6.62459 10.6473 6.63376 10.6012 6.65227C10.5551 6.67078 10.5132 6.69827 10.4778 6.73312C10.4425 6.76798 10.4144 6.80951 10.3953 6.85532C10.3761 6.90112 10.3662 6.95027 10.3662 6.99992C10.3662 7.04956 10.3761 7.09872 10.3953 7.14452C10.4144 7.19032 10.4425 7.23185 10.4778 7.26671C10.5132 7.30157 10.5551 7.32905 10.6012 7.34756C10.6473 7.36607 10.6965 7.37524 10.7462 7.37454H11.87C11.9197 7.37524 11.969 7.36607 12.015 7.34756C12.0611 7.32905 12.103 7.30157 12.1384 7.26671C12.1737 7.23185 12.2018 7.19032 12.221 7.14452C12.2401 7.09872 12.25 7.04956 12.25 6.99992C12.25 6.95027 12.2401 6.90112 12.221 6.85532C12.2018 6.80951 12.1737 6.76798 12.1384 6.73312C12.103 6.69827 12.0611 6.67078 12.015 6.65227C11.969 6.63376 11.9197 6.62459 11.87 6.62529H10.7462ZM4.34401 9.27035C4.24669 9.27325 4.15431 9.31392 4.08646 9.38376L3.29186 10.1784C3.25591 10.2129 3.2272 10.2542 3.20743 10.3C3.18766 10.3457 3.17721 10.395 3.1767 10.4448C3.1762 10.4947 3.18564 10.5441 3.20448 10.5902C3.22332 10.6364 3.25118 10.6783 3.28642 10.7136C3.32166 10.7488 3.36358 10.7767 3.40973 10.7955C3.45587 10.8143 3.50531 10.8238 3.55515 10.8233C3.60499 10.8228 3.65422 10.8123 3.69998 10.7925C3.74573 10.7728 3.78707 10.7441 3.82159 10.7081L4.61619 9.9135C4.67033 9.86088 4.7073 9.79313 4.72227 9.71914C4.73724 9.64514 4.72951 9.56835 4.70008 9.49883C4.67066 9.4293 4.62092 9.37029 4.55738 9.32952C4.49384 9.28875 4.41947 9.26812 4.34401 9.27035ZM9.64501 9.27035C9.57049 9.27037 9.49766 9.29261 9.43585 9.33424C9.37403 9.37586 9.32604 9.43498 9.29799 9.50403C9.26995 9.57307 9.26314 9.64892 9.27842 9.72186C9.29371 9.7948 9.3304 9.86152 9.38381 9.9135L10.1784 10.7081C10.2129 10.7441 10.2543 10.7728 10.3 10.7925C10.3458 10.8123 10.395 10.8228 10.4449 10.8233C10.4947 10.8238 10.5441 10.8143 10.5903 10.7955C10.6364 10.7767 10.6783 10.7488 10.7136 10.7136C10.7488 10.6783 10.7767 10.6364 10.7955 10.5902C10.8144 10.5441 10.8238 10.4947 10.8233 10.4448C10.8228 10.395 10.8123 10.3457 10.7926 10.3C10.7728 10.2542 10.7441 10.2129 10.7081 10.1784L9.91354 9.38376C9.87863 9.34787 9.83688 9.31935 9.79076 9.29987C9.74464 9.28039 9.69508 9.27035 9.64501 9.27035ZM6.99415 10.3664C6.89492 10.368 6.80036 10.4088 6.73122 10.48C6.66209 10.5512 6.62402 10.6469 6.62538 10.7462V11.87C6.62468 11.9197 6.63385 11.969 6.65236 12.015C6.67087 12.0611 6.69836 12.103 6.73321 12.1384C6.76807 12.1737 6.8096 12.2018 6.8554 12.221C6.9012 12.2401 6.95035 12.25 7 12.25C7.04965 12.25 7.0988 12.2401 7.1446 12.221C7.1904 12.2018 7.23193 12.1737 7.26679 12.1384C7.30164 12.103 7.32913 12.0611 7.34764 12.015C7.36615 11.969 7.37532 11.9197 7.37462 11.87V10.7462C7.37531 10.696 7.36593 10.6463 7.34704 10.5999C7.32815 10.5534 7.30014 10.5113 7.26466 10.4759C7.22919 10.4404 7.18696 10.4125 7.1405 10.3937C7.09403 10.3749 7.04426 10.3656 6.99415 10.3664Z" fill="#979797"/>
</svg>