<svg width="27" height="27" viewBox="0 0 27 27" fill="none" xmlns="http://www.w3.org/2000/svg">
<g id="Group">
<path id="Vector" opacity="0.35" d="M13.8001 27C21.0903 27 27.0001 21.0901 27.0001 13.8C27.0001 6.50982 21.0903 0.599976 13.8001 0.599976C6.50994 0.599976 0.600098 6.50982 0.600098 13.8C0.600098 21.0901 6.50994 27 13.8001 27Z" fill="black"/>
<path id="Vector_2" d="M13.2 26.4C20.4902 26.4 26.4 20.4902 26.4 13.2C26.4 5.90984 20.4902 0 13.2 0C5.90984 0 0 5.90984 0 13.2C0 20.4902 5.90984 26.4 13.2 26.4Z" fill="#F2F2F2"/>
<path id="Vector_3" d="M13.208 24.4578C19.4212 24.4578 24.458 19.421 24.458 13.2078C24.458 6.99456 19.4212 1.95776 13.208 1.95776C6.9948 1.95776 1.95801 6.99456 1.95801 13.2078C1.95801 19.421 6.9948 24.4578 13.208 24.4578Z" fill="#F4665C"/>
<path id="Vector_4" d="M18.5994 14.0999H7.79941C7.30231 14.0999 6.89941 13.697 6.89941 13.1999C6.89941 12.7028 7.30231 12.2999 7.79941 12.2999H18.5994C19.0965 12.2999 19.4994 12.7028 19.4994 13.1999C19.4994 13.697 19.0965 14.0999 18.5994 14.0999Z" fill="white"/>
<path id="Vector_5" d="M13.2 24.9C6.7485 24.9 1.5 19.6515 1.5 13.2C1.5 6.74853 6.7485 1.50003 13.2 1.50003C19.6515 1.50003 24.9 6.74853 24.9 13.2C24.9 19.6515 19.6515 24.9 13.2 24.9ZM13.2 2.40003C7.2447 2.40003 2.4 7.24473 2.4 13.2C2.4 19.1553 7.2447 24 13.2 24C19.1553 24 24 19.1553 24 13.2C24 7.24473 19.1553 2.40003 13.2 2.40003Z" fill="#40396E"/>
</g>
</svg>
