<svg xmlns="http://www.w3.org/2000/svg" width="14" height="15" viewBox="0 0 14 15" fill="none">
<path d="M1.90909 0.860466C0.862292 0.860466 0 1.71273 0 2.74736V12.8108C0 13.8454 0.862292 14.6977 1.90909 14.6977H9.86364C10.0324 14.6976 10.1942 14.6314 10.3136 14.5134L13.8136 11.0541C13.9329 10.9362 14 10.7762 14 10.6094V2.74736C14 1.71273 13.1377 0.860466 12.0909 0.860466H1.90909ZM1.90909 2.11839H12.0909C12.4505 2.11839 12.7273 2.39197 12.7273 2.74736V10.2949H10.8182C10.115 10.2949 9.54545 10.8579 9.54545 11.5529V13.4397H1.90909C1.54953 13.4397 1.27273 13.1662 1.27273 12.8108V2.74736C1.27273 2.39197 1.54953 2.11839 1.90909 2.11839ZM3.81818 5.26321C3.73386 5.26204 3.65013 5.27743 3.57188 5.30851C3.49363 5.33959 3.42241 5.38573 3.36235 5.44426C3.3023 5.50278 3.25461 5.57251 3.22206 5.64941C3.18952 5.7263 3.17276 5.80883 3.17276 5.89218C3.17276 5.97553 3.18952 6.05805 3.22206 6.13495C3.25461 6.21185 3.3023 6.28158 3.36235 6.3401C3.42241 6.39862 3.49363 6.44476 3.57188 6.47584C3.65013 6.50692 3.73386 6.52232 3.81818 6.52114H6.36364C6.44796 6.52232 6.53168 6.50692 6.60994 6.47584C6.68819 6.44476 6.75941 6.39862 6.81946 6.3401C6.87952 6.28158 6.9272 6.21185 6.95975 6.13495C6.9923 6.05805 7.00906 5.97553 7.00906 5.89218C7.00906 5.80883 6.9923 5.7263 6.95975 5.64941C6.9272 5.57251 6.87952 5.50278 6.81946 5.44426C6.75941 5.38573 6.68819 5.33959 6.60994 5.30851C6.53168 5.27743 6.44796 5.26204 6.36364 5.26321H3.81818ZM8.90909 5.26321C8.82477 5.26204 8.74104 5.27743 8.66279 5.30851C8.58454 5.33959 8.51332 5.38573 8.45326 5.44426C8.39321 5.50278 8.34552 5.57251 8.31297 5.64941C8.28043 5.7263 8.26366 5.80883 8.26366 5.89218C8.26366 5.97553 8.28043 6.05805 8.31297 6.13495C8.34552 6.21185 8.39321 6.28158 8.45326 6.3401C8.51332 6.39862 8.58454 6.44476 8.66279 6.47584C8.74104 6.50692 8.82477 6.52232 8.90909 6.52114H10.1818C10.2661 6.52232 10.3499 6.50692 10.4281 6.47584C10.5064 6.44476 10.5776 6.39862 10.6376 6.3401C10.6977 6.28158 10.7454 6.21185 10.7779 6.13495C10.8105 6.05805 10.8272 5.97553 10.8272 5.89218C10.8272 5.80883 10.8105 5.7263 10.7779 5.64941C10.7454 5.57251 10.6977 5.50278 10.6376 5.44426C10.5776 5.38573 10.5064 5.33959 10.4281 5.30851C10.3499 5.27743 10.2661 5.26204 10.1818 5.26321H8.90909ZM3.81818 7.77907C3.73386 7.77789 3.65013 7.79329 3.57188 7.82437C3.49363 7.85545 3.42241 7.90159 3.36235 7.96011C3.3023 8.01863 3.25461 8.08837 3.22206 8.16526C3.18952 8.24216 3.17276 8.32468 3.17276 8.40803C3.17276 8.49139 3.18952 8.57391 3.22206 8.65081C3.25461 8.7277 3.3023 8.79744 3.36235 8.85596C3.42241 8.91448 3.49363 8.96062 3.57188 8.9917C3.65013 9.02278 3.73386 9.03818 3.81818 9.037H8.90909C8.99342 9.03818 9.07714 9.02278 9.15539 8.9917C9.23364 8.96062 9.30487 8.91448 9.36492 8.85596C9.42497 8.79744 9.47266 8.7277 9.50521 8.65081C9.53776 8.57391 9.55452 8.49139 9.55452 8.40803C9.55452 8.32468 9.53776 8.24216 9.50521 8.16526C9.47266 8.08837 9.42497 8.01863 9.36492 7.96011C9.30487 7.90159 9.23364 7.85545 9.15539 7.82437C9.07714 7.79329 8.99342 7.77789 8.90909 7.77907H3.81818Z" fill="#979797"/>
</svg>