<svg xmlns="http://www.w3.org/2000/svg" width="20" height="20" viewBox="0 0 20 20" fill="none">
  <path d="M14.565 11.7366C14.275 11.2291 13.8233 10.7833 13.2117 10.4008C12.5992 10.0175 11.7467 9.66665 10.655 9.34748C9.56333 9.02915 8.77917 8.67498 8.30333 8.28415C7.82667 7.89498 7.58833 7.37081 7.58833 6.71331C7.58833 6.00498 7.81417 5.45165 8.26583 5.05581C8.71667 4.65915 9.36833 4.46165 10.22 4.46165C11.0358 4.46165 11.685 4.72915 12.1642 5.26498C12.3892 5.51581 12.5608 5.80748 12.6808 6.13998C12.74 6.30581 12.8467 6.68915 12.8525 6.70581C13.02 7.20748 13.3058 7.49998 13.7992 7.49998C14.3442 7.49998 14.7858 7.15498 14.7858 6.51331C14.7858 6.39248 14.76 6.26498 14.7442 6.18998C14.5942 5.44331 14.2983 4.81915 13.855 4.31665C13.185 3.55831 12.2492 3.10415 11.0458 2.95665L11.0417 2.95581V1.66665C11.0417 1.20665 10.6683 0.833313 10.2083 0.833313C9.74833 0.833313 9.375 1.20665 9.375 1.66665V2.95915C8.215 3.09665 7.29667 3.49165 6.6275 4.15248C5.94333 4.82831 5.60083 5.69331 5.60083 6.74831C5.60083 7.78415 5.95 8.63831 6.64833 9.31081C7.34667 9.98248 8.45833 10.5283 9.98333 10.9466C11.0792 11.275 11.8575 11.6416 12.32 12.0466C12.7808 12.4525 13.0125 12.9508 13.0125 13.5425C13.0125 14.2441 12.7433 14.7975 12.2067 15.2025C11.6692 15.6075 10.9317 15.81 9.99333 15.81C9.03417 15.81 8.18917 15.5691 7.66667 15.0866C7.315 14.7625 7.0825 14.345 6.9675 13.8341C6.96333 13.815 6.9025 13.6191 6.85917 13.5383C6.69583 13.23 6.36333 13.0225 5.98917 13.0225C5.44333 13.0208 5 13.4641 5 14.0108C5 14.2508 5.12 14.5908 5.15667 14.6908C5.34417 15.2033 5.64833 15.6691 6.02917 16.045C6.765 16.7691 7.88333 17.1866 9.16667 17.3091V18.3333C9.16667 18.7933 9.53917 19.1666 9.99917 19.1666C10.4592 19.1666 10.8325 18.7933 10.8325 18.3333V17.325L10.8533 17.3241C12.1633 17.2016 13.1825 16.81 13.9092 16.1466C14.6358 15.4841 15 14.6091 15 13.5225C15 12.8408 14.8542 12.245 14.565 11.7366Z" fill="#979797"/>
</svg>