<svg xmlns="http://www.w3.org/2000/svg" width="11" height="11" viewBox="0 0 11 11" fill="none">
  <path d="M8.01075 6.45516C7.85125 6.17604 7.60283 5.93083 7.26642 5.72045C6.92954 5.50962 6.46067 5.31666 5.86025 5.14112C5.25983 4.96604 4.82854 4.77124 4.56683 4.55629C4.30467 4.34224 4.17358 4.05395 4.17358 3.69233C4.17358 3.30274 4.29779 2.99841 4.54621 2.7807C4.79417 2.56254 5.15258 2.45391 5.621 2.45391C6.06971 2.45391 6.42675 2.60104 6.69029 2.89574C6.81404 3.0337 6.90846 3.19412 6.97446 3.37699C7.007 3.4682 7.06567 3.67904 7.06888 3.6882C7.161 3.96412 7.31821 4.12499 7.58954 4.12499C7.88929 4.12499 8.13221 3.93524 8.13221 3.58233C8.13221 3.51587 8.118 3.44574 8.10929 3.40449C8.02679 2.99383 7.86408 2.65054 7.62025 2.37416C7.25175 1.95708 6.73704 1.70729 6.07521 1.62616L6.07292 1.6257V0.916662C6.07292 0.663662 5.86758 0.458328 5.61458 0.458328C5.36158 0.458328 5.15625 0.663662 5.15625 0.916662V1.62754C4.51825 1.70316 4.01317 1.92041 3.64513 2.28387C3.26883 2.65558 3.08046 3.13133 3.08046 3.71158C3.08046 4.28129 3.2725 4.75108 3.65658 5.12095C4.04067 5.49037 4.65208 5.79058 5.49083 6.02066C6.09354 6.20124 6.52163 6.40291 6.776 6.62566C7.02946 6.84887 7.15688 7.12295 7.15688 7.44837C7.15688 7.83429 7.00883 8.13862 6.71367 8.36137C6.41804 8.58412 6.01242 8.69549 5.49633 8.69549C4.96879 8.69549 4.50404 8.56304 4.21667 8.29766C4.02325 8.11937 3.89538 7.88974 3.83213 7.60879C3.82983 7.59824 3.79638 7.49054 3.77254 7.44608C3.68271 7.27649 3.49983 7.16237 3.29404 7.16237C2.99383 7.16145 2.75 7.40529 2.75 7.70595C2.75 7.83795 2.816 8.02495 2.83617 8.07995C2.93929 8.36183 3.10658 8.61804 3.31604 8.82474C3.72075 9.22304 4.33583 9.45266 5.04167 9.52004V10.0833C5.04167 10.3363 5.24654 10.5417 5.49954 10.5417C5.75254 10.5417 5.95787 10.3363 5.95787 10.0833V9.52874L5.96933 9.52829C6.68983 9.46091 7.25038 9.24549 7.65004 8.88066C8.04971 8.51629 8.25 8.03504 8.25 7.43737C8.25 7.06245 8.16979 6.73474 8.01075 6.45516Z" fill="white"/>
</svg>