<svg xmlns="http://www.w3.org/2000/svg" width="27" height="27" viewBox="0 0 27 27" fill="none">
  <path opacity="0.35" d="M4.45501 25.4023C3.98683 25.4023 3.54646 25.2201 3.2149 24.8893C2.7802 24.4552 2.60308 23.8155 2.75266 23.2202L3.71386 19.3921C3.79324 19.076 3.95821 18.7895 4.19176 18.5622L19.3139 3.40355C19.7816 2.9351 20.4034 2.67725 21.0649 2.67725C21.7277 2.67752 22.3493 2.93591 22.8164 3.40463L24.7323 5.32811C25.6171 6.29687 25.5925 7.80887 24.6583 8.74658L9.51724 23.9227C9.39251 24.0477 9.2513 24.152 9.09686 24.2338C8.98103 24.2964 8.84575 24.3493 8.70589 24.385L4.88431 25.3494C4.74121 25.3851 4.59784 25.4023 4.45501 25.4023Z" fill="black"/>
  <path d="M3.91498 24.8623C3.4468 24.8623 3.00643 24.68 2.67487 24.3493C2.24017 23.9151 2.06305 23.2755 2.21263 22.6802L3.17383 18.8521C3.25321 18.5359 3.41818 18.2495 3.65173 18.0221L18.7739 2.86351C19.2415 2.39506 19.8633 2.13721 20.5248 2.13721C21.1877 2.13748 21.8092 2.39587 22.2763 2.86459L24.1922 4.78807C25.077 5.75683 25.0525 7.26883 24.1183 8.20654L8.97721 23.3827C8.85247 23.5077 8.71126 23.6119 8.55682 23.6937C8.44099 23.7564 8.30572 23.8093 8.16586 23.8449L4.34428 24.8094C4.20118 24.845 4.05781 24.8623 3.91498 24.8623Z" fill="#F2F2F2"/>
  <path d="M20.6593 9.18816L7.81514 22.0628L4.95746 19.1984L17.8016 6.32373L20.6593 9.18816Z" fill="#F9B84F"/>
  <path d="M22.8747 5.94886L21.0327 4.10314C20.7527 3.82207 20.2967 3.82207 20.0162 4.10314L18.6767 5.44558L21.5341 8.30974L22.8747 6.96838C23.1552 6.68677 23.1552 6.23101 22.8747 5.94886Z" fill="#F4665C"/>
  <path d="M17.7188 6.40465L18.674 5.44507L21.5333 8.30923L20.578 9.26881L17.7188 6.40465Z" fill="#9AA2E6"/>
  <path d="M4.07001 23.1075L7.88943 22.1436L5.03121 19.2797L4.07001 23.1075Z" fill="#FEDEB3"/>
  <path d="M3.91502 23.5124C3.80891 23.5124 3.70577 23.4708 3.62882 23.3941C3.52784 23.2934 3.48761 23.1471 3.52217 23.0088L4.48337 19.1811C4.50254 19.1049 4.54304 19.0374 4.59839 18.985L19.7297 3.81724C19.9419 3.60448 20.2244 3.4873 20.5249 3.4873H20.5254C20.8259 3.4873 21.1081 3.60475 21.32 3.81751L23.1614 5.66269L23.162 5.66323C23.5983 6.10198 23.5983 6.81586 23.162 7.25407L8.02145 22.4292C7.99283 22.4578 7.95989 22.4821 7.92479 22.5007C7.89644 22.5161 7.86566 22.5282 7.83353 22.5363L4.01411 23.5002C3.98144 23.5083 3.94796 23.5124 3.91502 23.5124ZM5.2418 19.487L4.47284 22.549L7.52681 21.7785L22.5879 6.68248C22.7105 6.55936 22.7105 6.35875 22.5879 6.23509L20.7465 4.38964C20.6874 4.33024 20.6088 4.29784 20.5251 4.29757C20.4412 4.29757 20.3626 4.33024 20.3035 4.38964L5.2418 19.487Z" fill="#40396E"/>
  <path d="M4.40179 21.1718L3.91498 23.1074L5.84548 22.6195L4.40179 21.1718Z" fill="#40396E"/>
</svg>