<svg xmlns="http://www.w3.org/2000/svg" width="15" height="4" viewBox="0 0 15 4" fill="none">
  <path d="M1.8333 0.604652C0.894334 0.604652 0.133301 1.35684 0.133301 2.28489C0.133301 3.21293 0.894334 3.96512 1.8333 3.96512C2.77227 3.96512 3.5333 3.21293 3.5333 2.28489C3.5333 1.35684 2.77227 0.604652 1.8333 0.604652ZM7.49997 0.604652C6.561 0.604652 5.79997 1.35684 5.79997 2.28489C5.79997 3.21293 6.561 3.96512 7.49997 3.96512C8.43893 3.96512 9.19997 3.21293 9.19997 2.28489C9.19997 1.35684 8.43893 0.604652 7.49997 0.604652ZM13.1666 0.604652C12.2277 0.604652 11.4666 1.35684 11.4666 2.28489C11.4666 3.21293 12.2277 3.96512 13.1666 3.96512C14.1056 3.96512 14.8666 3.21293 14.8666 2.28489C14.8666 1.35684 14.1056 0.604652 13.1666 0.604652Z" fill="#979797"/>
</svg>