<svg xmlns="http://www.w3.org/2000/svg" width="28" height="28" viewBox="0 0 28 28" fill="none">
<path d="M7 2.33331V4.66665H5.83333C4.5465 4.66665 3.5 5.71315 3.5 6.99998V23.3333C3.5 24.6201 4.5465 25.6666 5.83333 25.6666H22.1667C23.4535 25.6666 24.5 24.6201 24.5 23.3333V6.99998C24.5 5.71315 23.4535 4.66665 22.1667 4.66665H21V2.33331H18.6667V4.66665H9.33333V2.33331H7ZM5.83333 6.99998H22.1667V9.33331H5.83333V6.99998ZM5.83333 11.6666H22.1667L22.1689 23.3333H5.83333V11.6666ZM17.2676 13.1842L13.4167 17.0329L11.3158 14.9342L9.68424 16.5657L13.4167 20.3004L18.8991 14.8157L17.2676 13.1842Z" fill="#333333"/>
</svg>