<svg xmlns="http://www.w3.org/2000/svg" width="28" height="28" viewBox="0 0 28 28" fill="none">
  <path d="M7.29167 3.5C5.20804 3.5 3.5 5.20804 3.5 7.29167V20.7083C3.5 22.792 5.20804 24.5 7.29167 24.5H20.7083C22.792 24.5 24.5 22.792 24.5 20.7083V7.29167C24.5 5.20804 22.792 3.5 20.7083 3.5H7.29167ZM7.29167 5.25H20.7083C21.8459 5.25 22.75 6.15413 22.75 7.29167V8.16667H5.25V7.29167C5.25 6.15413 6.15413 5.25 7.29167 5.25ZM5.25 9.91667H22.75V20.7083C22.75 21.8459 21.8459 22.75 20.7083 22.75H7.29167C6.15413 22.75 5.25 21.8459 5.25 20.7083V9.91667ZM14 11.9583C13.6768 11.9583 13.3889 12.1636 13.2834 12.4699L12.5337 14.6506H10.0454C9.72049 14.6506 9.43147 14.8587 9.32764 15.1667C9.2238 15.4747 9.32896 15.8143 9.58854 16.0109L11.604 17.5399L10.9215 19.7251C10.8241 20.0389 10.9392 20.3798 11.2075 20.5693C11.4759 20.7589 11.836 20.7546 12.0985 20.5568L14 19.1326L15.9015 20.5568C16.0357 20.6571 16.1951 20.7083 16.355 20.7083C16.5078 20.7083 16.6618 20.6621 16.7925 20.5693C17.0608 20.3798 17.1764 20.0383 17.0785 19.7251L16.396 17.5399L18.4115 16.0109C18.6705 15.8143 18.7762 15.4741 18.6724 15.1655C18.5685 14.8575 18.2795 14.6506 17.9546 14.6506H15.4663L14.7166 12.4699C14.6111 12.1642 14.3232 11.9583 14 11.9583Z" fill="#333333"/>
</svg>