<svg xmlns="http://www.w3.org/2000/svg" width="29" height="29" viewBox="0 0 29 29" fill="none">
  <path opacity="0.35" d="M4.34534 25.8039C2.74802 25.8039 1.44824 24.5044 1.44824 22.9068V19.2018C1.44824 18.1624 2.29388 17.3168 3.33324 17.3168C3.55306 17.3168 3.76853 17.1228 3.76853 16.925C3.76853 16.7272 3.55277 16.5332 3.33324 16.5332C2.29388 16.5332 1.44824 15.6875 1.44824 14.6482V10.7268C1.44824 9.12948 2.74773 7.82999 4.34534 7.82999H4.6423V7.8268C4.6423 6.22948 5.94179 4.92999 7.5394 4.92999H25.5232C27.1205 4.92999 28.42 6.22948 28.42 7.8268V11.8746C28.42 12.914 27.5743 13.7596 26.535 13.7596C26.3189 13.7596 26.1432 13.9354 26.1432 14.1514C26.1432 14.3675 26.3189 14.5432 26.535 14.5432C27.5743 14.5432 28.42 15.3888 28.42 16.4282V20.0068C28.42 21.6041 27.1205 22.9039 25.5232 22.9039H25.2332V22.9068C25.2332 24.5041 23.9337 25.8039 22.3364 25.8039H4.34534Z" fill="black"/>
  <path d="M3.76539 25.2239C2.16807 25.2239 0.868286 23.9244 0.868286 22.3268V18.6217C0.868286 17.5824 1.71393 16.7367 2.75329 16.7367C2.97311 16.7367 3.18858 16.5427 3.18858 16.345C3.18858 16.1472 2.97282 15.9532 2.75329 15.9532C1.71393 15.9532 0.868286 15.1075 0.868286 14.0682V10.1468C0.868286 8.54946 2.16778 7.24998 3.76539 7.24998H4.06235V7.24679C4.06235 5.64947 5.36184 4.34998 6.95945 4.34998H24.9432C26.5405 4.34998 27.84 5.64947 27.84 7.24679V11.2946C27.84 12.334 26.9944 13.1796 25.955 13.1796C25.739 13.1796 25.5632 13.3553 25.5632 13.5714C25.5632 13.7874 25.739 13.9632 25.955 13.9632C26.9944 13.9632 27.84 14.8088 27.84 15.8482V19.4268C27.84 21.0241 26.5405 22.3239 24.9432 22.3239H24.6532V22.3268C24.6532 23.9241 23.3537 25.2239 21.7564 25.2239H3.76539Z" fill="#D9D9D9"/>
  <path d="M22.765 14.1946V10.1468C22.765 9.58799 22.312 9.13501 21.7532 9.13501H18.1787L17.4032 9.56827L16.6565 9.13501H4.00752C3.32921 9.13501 2.77966 9.68485 2.77966 10.3629V14.0679C4.0371 14.0679 5.05645 15.0873 5.05645 16.3447C5.05645 17.6021 4.0371 18.6215 2.77966 18.6215V22.1108C2.77966 22.7891 3.3295 23.3386 4.00752 23.3386H14.8358L15.9648 22.33L17.1526 23.3389H21.7535C22.3123 23.3389 22.7653 22.8859 22.7653 22.3271V18.7482C21.5079 18.7482 20.4885 17.7289 20.4885 16.4714C20.4885 15.214 21.5076 14.1946 22.765 14.1946Z" fill="#10AEFF"/>
  <path d="M25.52 10.8944V6.66998H6.37885V10.875H6.38001C7.8216 10.875 8.99001 12.0434 8.99001 13.485C8.99001 14.9266 7.8216 16.095 6.38001 16.095H6.37885V19.4242C6.37885 19.7446 6.6384 20.0042 6.95885 20.0042H25.52V16.2487C24.2307 16.0399 23.2432 14.919 23.2432 13.5717C23.2432 12.2241 24.2307 11.1032 25.52 10.8944Z" fill="#23F788"/>
  <path d="M20.59 9.28C20.9103 9.28 21.17 9.02032 21.17 8.7C21.17 8.37967 20.9103 8.12 20.59 8.12C20.2697 8.12 20.01 8.37967 20.01 8.7C20.01 9.02032 20.2697 9.28 20.59 9.28Z" fill="#D9D9D9"/>
  <path d="M20.59 11.6C20.9103 11.6 21.17 11.3403 21.17 11.02C21.17 10.6997 20.9103 10.44 20.59 10.44C20.2697 10.44 20.01 10.6997 20.01 11.02C20.01 11.3403 20.2697 11.6 20.59 11.6Z" fill="#D9D9D9"/>
  <path d="M20.59 13.92C20.9103 13.92 21.17 13.6603 21.17 13.34C21.17 13.0197 20.9103 12.76 20.59 12.76C20.2697 12.76 20.01 13.0197 20.01 13.34C20.01 13.6603 20.2697 13.92 20.59 13.92Z" fill="#D9D9D9"/>
  <path d="M20.59 16.24C20.9103 16.24 21.17 15.9803 21.17 15.66C21.17 15.3397 20.9103 15.08 20.59 15.08C20.2697 15.08 20.01 15.3397 20.01 15.66C20.01 15.9803 20.2697 16.24 20.59 16.24Z" fill="#D9D9D9"/>
  <path d="M20.59 18.56C20.9103 18.56 21.17 18.3003 21.17 17.98C21.17 17.6597 20.9103 17.4 20.59 17.4C20.2697 17.4 20.01 17.6597 20.01 17.98C20.01 18.3003 20.2697 18.56 20.59 18.56Z" fill="#D9D9D9"/>
  <path d="M18.27 21.17C18.9106 21.17 19.43 20.6506 19.43 20.01C19.43 19.3693 18.9106 18.85 18.27 18.85C17.6293 18.85 17.11 19.3693 17.11 20.01C17.11 20.6506 17.6293 21.17 18.27 21.17Z" fill="#10AEFF"/>
  <path d="M25.955 11.2946V7.2468C25.955 6.68797 25.502 6.23499 24.9432 6.23499H19.2705C19.1994 6.72625 18.781 7.10499 18.27 7.10499C17.759 7.10499 17.3405 6.72625 17.2695 6.23499H6.95941C6.40058 6.23499 5.9476 6.68797 5.9476 7.2468V9.13499H3.76535C3.20652 9.13499 2.75354 9.58796 2.75354 10.1468V14.0679C4.01098 14.0679 5.07383 15.0872 5.07383 16.3447C5.07383 17.6021 4.01098 18.6215 2.75354 18.6215V22.3271C2.75354 22.8859 3.20652 23.3389 3.76535 23.3389H14.9504C15.0237 22.8505 15.441 22.475 15.95 22.475C16.4589 22.475 16.8763 22.8505 16.9499 23.3389H21.7564C22.3152 23.3389 22.7682 22.8859 22.7682 22.3271V20.4389H24.9429C25.5017 20.4389 25.9547 19.9859 25.9547 19.4271V15.8482C24.6973 15.8482 23.6779 14.8288 23.6779 13.5714C23.6782 12.314 24.6975 11.2946 25.955 11.2946Z" stroke="#40396E" stroke-width="0.8" stroke-miterlimit="10" stroke-linejoin="round"/>
</svg>