<svg xmlns="http://www.w3.org/2000/svg" width="13" height="13" viewBox="0 0 13 13" fill="none">
  <path d="M11.258 8.79667C11.414 8.489 11.167 8.17267 10.8637 8.17267C10.7987 8.17267 10.7337 8.18567 10.6643 8.216C10.0967 8.489 9.45532 8.645 8.78366 8.645C6.37866 8.645 4.42866 6.695 4.42866 4.29867C4.42866 3.57933 4.60199 2.90333 4.90966 2.30967C5.06999 1.99767 4.83599 1.65967 4.53266 1.65967C4.47632 1.65967 4.41132 1.67267 4.35066 1.703C2.46999 2.574 1.20466 4.511 1.30432 6.69933C1.43432 9.51167 3.76132 11.7 6.55199 11.7C6.63432 11.7 6.71666 11.7 6.79466 11.6957C8.76632 11.6047 10.4347 10.4433 11.258 8.79667Z" fill="#979797"/>
</svg>