<svg xmlns="http://www.w3.org/2000/svg" width="28" height="28" viewBox="0 0 28 28" fill="none">
<g clip-path="url(#clip0_1818_1909)">
<path d="M7 1.16669V3.50002H5.83333C4.5465 3.50002 3.5 4.54652 3.5 5.83335V22.1667C3.5 23.4535 4.5465 24.5 5.83333 24.5H12.3525C12.0539 23.7639 11.8479 22.9822 11.7464 22.1667H5.83333V10.5H22.1667V11.7464C22.9822 11.8479 23.7638 12.0539 24.5 12.3526V5.83335C24.5 4.54652 23.4535 3.50002 22.1667 3.50002H21V1.16669H18.6667V3.50002H9.33333V1.16669H7ZM5.83333 5.83335H22.1667V8.16669H5.83333V5.83335ZM14.2119 11.6667L12.9495 14.4876L9.75716 14.7862L12.1338 16.7891L11.4639 19.8334L14.2119 18.1996L14.5173 18.3773C14.1865 19.1889 14 20.0727 14 21C14 24.8522 17.1478 28 21 28C24.8522 28 28 24.8522 28 21C28 17.1478 24.8522 14 21 14C19.9018 14 18.8646 14.2627 17.9375 14.7178L15.4743 14.4876L14.2119 11.6667ZM21 16.3334C23.5911 16.3334 25.6667 18.4089 25.6667 21C25.6667 23.5912 23.5911 25.6667 21 25.6667C18.4089 25.6667 16.3333 23.5912 16.3333 21C16.3333 18.4089 18.4089 16.3334 21 16.3334ZM21.499 17.6367L19.6328 21.1618L22.0801 23.6091L23.3174 22.3718L21.7839 20.8382L23.0462 18.4548L21.499 17.6367Z" fill="#333333"/>
</g>
<defs>
<clipPath id="clip0_1818_1909">
<rect width="28" height="28" fill="#333333"/>
</clipPath>
</defs>
</svg>