<svg xmlns="http://www.w3.org/2000/svg" width="33" height="33" viewBox="0 0 33 33" fill="none">
  <path opacity="0.35" d="M25.3638 28.9711L30.6434 24.1963C31.0879 23.7943 31.3427 23.2145 31.3427 22.605C31.3427 21.9955 31.0879 21.4157 30.6438 21.0144L25.3648 16.2397C25.1701 16.0634 24.9473 15.9331 24.7114 15.84H25.575C25.8673 15.84 26.1459 15.781 26.4 15.6747C26.6541 15.781 26.9326 15.84 27.225 15.84H29.205C30.3877 15.84 31.35 14.8777 31.35 13.695V9.73503C31.35 8.55231 30.3877 7.59003 29.205 7.59003H27.225C26.9326 7.59003 26.6541 7.6491 26.4 7.75569C26.1459 7.6491 25.8673 7.59003 25.575 7.59003H23.595C23.3026 7.59003 23.0241 7.6491 22.77 7.75569C22.5159 7.6491 22.2374 7.59003 21.945 7.59003H12.54V6.9396C12.54 6.09183 12.0394 5.32227 11.2645 4.97874C10.4897 4.63554 9.58317 4.78074 8.95617 5.349L3.6765 10.1238C3.22737 10.5297 2.96997 11.1095 2.96997 11.715C2.96997 12.3206 3.22737 12.9004 3.67617 13.3056L8.95551 18.0804C9.15021 18.2566 9.37296 18.387 9.60891 18.48H8.74497C8.45259 18.48 8.17407 18.5391 7.91997 18.6457C7.66587 18.5391 7.38735 18.48 7.09497 18.48H5.11497C3.93225 18.48 2.96997 19.4423 2.96997 20.625V24.585C2.96997 25.7677 3.93225 26.73 5.11497 26.73H7.09497C7.38735 26.73 7.66587 26.671 7.91997 26.5647C8.17407 26.671 8.45259 26.73 8.74497 26.73H10.725C11.0174 26.73 11.2959 26.671 11.55 26.5647C11.8041 26.671 12.0826 26.73 12.375 26.73H21.78V27.3805C21.78 28.2282 22.2806 28.9978 23.0554 29.3413C23.8303 29.6845 24.7368 29.5393 25.3638 28.9711Z" fill="black"/>
  <path d="M24.7038 28.311L29.9835 23.5363C30.428 23.1343 30.6827 22.5545 30.6827 21.945C30.6827 21.3355 30.428 20.7557 29.9838 20.3544L24.7048 15.5796C24.5101 15.4034 24.2873 15.2731 24.0514 15.18H24.915C25.2074 15.18 25.4859 15.1209 25.74 15.0147C25.9941 15.1209 26.2726 15.18 26.565 15.18H28.545C29.7277 15.18 30.69 14.2177 30.69 13.035V9.07499C30.69 7.89227 29.7277 6.92999 28.545 6.92999H26.565C26.2726 6.92999 25.9941 6.98906 25.74 7.09565C25.4859 6.98906 25.2074 6.92999 24.915 6.92999H22.935C22.6426 6.92999 22.3641 6.98906 22.11 7.09565C21.8559 6.98906 21.5774 6.92999 21.285 6.92999H11.88V6.27956C11.88 5.43179 11.3794 4.66223 10.6045 4.3187C9.82971 3.9755 8.9232 4.1207 8.2962 4.68896L3.01653 9.46373C2.5674 9.86963 2.31 10.4494 2.31 11.055C2.31 11.6605 2.5674 12.2404 3.0162 12.6456L8.29554 17.4204C8.49024 17.5966 8.71299 17.7269 8.94894 17.82H8.085C7.79262 17.82 7.5141 17.8791 7.26 17.9857C7.0059 17.8791 6.72738 17.82 6.435 17.82H4.455C3.27228 17.82 2.31 18.7823 2.31 19.965V23.925C2.31 25.1077 3.27228 26.07 4.455 26.07H6.435C6.72738 26.07 7.0059 26.0109 7.26 25.9047C7.5141 26.0109 7.79262 26.07 8.085 26.07H10.065C10.3574 26.07 10.6359 26.0109 10.89 25.9047C11.1441 26.0109 11.4226 26.07 11.715 26.07H21.12V26.7204C21.12 27.5682 21.6206 28.3378 22.3954 28.6813C23.1703 29.0245 24.0768 28.8793 24.7038 28.311Z" fill="#F2F2F2"/>
  <path d="M11.715 23.925H23.265V26.7204L28.545 21.945L23.265 17.1696V19.965H11.715V23.925Z" fill="#F4665C"/>
  <path d="M23.265 27.2154C23.197 27.2154 23.1287 27.2016 23.0643 27.1729C22.8855 27.0933 22.77 26.9161 22.77 26.7204V24.42H11.715C11.4414 24.42 11.22 24.1986 11.22 23.925V19.965C11.22 19.6914 11.4414 19.47 11.715 19.47H22.77V17.1696C22.77 16.9739 22.8855 16.7967 23.0643 16.7171C23.2432 16.6379 23.4521 16.6713 23.5973 16.8026L28.8773 21.578C28.9809 21.6718 29.04 21.8051 29.04 21.945C29.04 22.0849 28.9809 22.2182 28.8769 22.312L23.5969 27.0874C23.5042 27.1712 23.3854 27.2154 23.265 27.2154ZM12.21 23.43H23.265C23.5385 23.43 23.76 23.6514 23.76 23.925V25.6054L27.8071 21.945L23.76 18.2846V19.965C23.76 20.2386 23.5385 20.46 23.265 20.46H12.21V23.43Z" fill="#696969"/>
  <path d="M10.065 23.925V19.965H8.085V23.925H10.065Z" fill="#F4665C"/>
  <path d="M10.065 24.42H8.08503C7.81146 24.42 7.59003 24.1985 7.59003 23.925V19.965C7.59003 19.6914 7.81146 19.47 8.08503 19.47H10.065C10.3386 19.47 10.56 19.6914 10.56 19.965V23.925C10.56 24.1985 10.3386 24.42 10.065 24.42ZM8.58003 23.43H9.57003V20.46H8.58003V23.43Z" fill="#696969"/>
  <path d="M6.435 23.925V19.965H4.455V23.925H6.435Z" fill="#F4665C"/>
  <path d="M6.43502 24.42H4.45502C4.18145 24.42 3.96002 24.1985 3.96002 23.925V19.965C3.96002 19.6914 4.18145 19.47 4.45502 19.47H6.43502C6.70859 19.47 6.93002 19.6914 6.93002 19.965V23.925C6.93002 24.1985 6.70859 24.42 6.43502 24.42ZM4.95002 23.43H5.94002V20.46H4.95002V23.43Z" fill="#696969"/>
  <path d="M21.285 13.035H9.73502V15.8304L4.45502 11.055L9.73502 6.27954V9.07497H21.285V13.035Z" fill="#10AEFF"/>
  <path d="M9.73502 16.3255C9.61457 16.3255 9.49544 16.2816 9.40271 16.1974L4.12271 11.422C4.01909 11.3283 3.96002 11.1949 3.96002 11.055C3.96002 10.9151 4.01909 10.7818 4.12304 10.6881L9.40304 5.91264C9.54791 5.78163 9.75713 5.74797 9.93599 5.82717C10.1145 5.9067 10.23 6.08391 10.23 6.2796V8.58003H21.285C21.5586 8.58003 21.78 8.80146 21.78 9.07503V13.035C21.78 13.3086 21.5586 13.53 21.285 13.53H10.23V15.8305C10.23 16.0261 10.1145 16.2034 9.93566 16.2829C9.87131 16.3113 9.803 16.3255 9.73502 16.3255ZM5.1929 11.055L9.24002 14.7154V13.035C9.24002 12.7615 9.46145 12.54 9.73502 12.54H20.79V9.57003H9.73502C9.46145 9.57003 9.24002 9.3486 9.24002 9.07503V7.39467L5.1929 11.055Z" fill="#696969"/>
  <path d="M24.915 13.035V9.07495H22.935V13.035H24.915Z" fill="#10AEFF"/>
  <path d="M24.915 13.53H22.935C22.6614 13.53 22.44 13.3085 22.44 13.035V9.07496C22.44 8.80139 22.6614 8.57996 22.935 8.57996H24.915C25.1886 8.57996 25.41 8.80139 25.41 9.07496V13.035C25.41 13.3085 25.1886 13.53 24.915 13.53ZM23.43 12.54H24.42V9.56996H23.43V12.54Z" fill="#696969"/>
  <path d="M28.545 13.035V9.07495H26.565V13.035H28.545Z" fill="#10AEFF"/>
  <path d="M28.545 13.53H26.565C26.2914 13.53 26.07 13.3085 26.07 13.035V9.07496C26.07 8.80139 26.2914 8.57996 26.565 8.57996H28.545C28.8186 8.57996 29.04 8.80139 29.04 9.07496V13.035C29.04 13.3085 28.8186 13.53 28.545 13.53ZM27.06 12.54H28.05V9.56996H27.06V12.54Z" fill="#696969"/>
</svg>