<svg xmlns="http://www.w3.org/2000/svg" width="27" height="27" viewBox="0 0 27 27" fill="none">
  <path opacity="0.35" d="M25.0155 0.5625H9.44719C8.35313 0.5625 7.46299 1.38263 7.46299 2.39063V5.18935L4.14876 7.91579C3.50801 8.44341 3.13529 9.1696 3.09896 9.95935C3.06203 10.7505 3.36637 11.5031 3.95675 12.0794C4.54865 12.6571 5.38568 12.9881 6.25262 12.9881C6.61344 12.9881 6.96724 12.9322 7.29998 12.8244L5.74741 16.2776L2.48295 17.8988C0.9429 18.6227 0.215156 20.3226 0.82629 21.7806C1.16666 22.592 1.8654 23.2369 2.74181 23.5491C3.1185 23.6838 3.51565 23.7524 3.92225 23.7524C4.41373 23.7524 4.90825 23.6529 5.38598 23.4594L7.46299 22.628V24.0469C7.46299 25.0549 8.35313 25.875 9.44719 25.875H11.9836C12.6164 26.586 13.585 27 14.7035 27C15.7945 27 16.7484 26.5857 17.3803 25.875H25.0155C26.1096 25.875 26.9997 25.0549 26.9997 24.0469V2.39063C26.9997 1.38263 26.1096 0.5625 25.0155 0.5625Z" fill="black"/>
  <path d="M24.4052 0H8.83683C7.74278 0 6.85263 0.820125 6.85263 1.82813V4.62685L3.53841 7.35329C2.89766 7.88091 2.52494 8.6071 2.48861 9.39685C2.45168 10.188 2.75602 10.9406 3.3464 11.5169C3.9383 12.0946 4.77533 12.4256 5.64227 12.4256C6.00309 12.4256 6.35689 12.3697 6.68962 12.2619L5.13706 15.7151L1.87259 17.3363C0.332549 18.0602 -0.395195 19.7601 0.215939 21.2181C0.556305 22.0295 1.25505 22.6744 2.13146 22.9866C2.50815 23.1213 2.90529 23.1899 3.3119 23.1899C3.80337 23.1899 4.2979 23.0904 4.77563 22.8969L6.85263 22.0655V23.4844C6.85263 24.4924 7.74278 25.3125 8.83683 25.3125H11.3733C12.0061 26.0235 12.9747 26.4375 14.0931 26.4375C15.1841 26.4375 16.1381 26.0232 16.77 25.3125H24.4052C25.4992 25.3125 26.3894 24.4924 26.3894 23.4844V1.82813C26.3894 0.820125 25.4992 0 24.4052 0Z" fill="#F2F2F2"/>
  <path d="M24.4053 1.82812H8.80273V23.4844H24.4053V1.82812Z" fill="#707CC0"/>
  <path d="M14.4693 6.44714L13.8054 7.4827L9.52132 5.81123C9.32473 5.73501 9.09883 5.75892 8.92636 5.87451L5.11792 8.42039C4.63194 8.80851 4.57241 9.48351 4.98421 9.93858C5.4128 10.4125 6.18298 10.4634 6.68086 10.0508L9.30061 7.76929L11.3004 8.84226L6.74283 16.9904L2.71642 18.9628C2.0421 19.2735 1.76859 20.029 2.1059 20.6503C2.44321 21.2715 3.26315 21.5236 3.93747 21.2128L9.29481 18.5142C9.3461 18.4849 9.37296 18.4489 9.41264 18.4073L11.1172 15.8116L14.3164 19.244L13.0425 23.3385C12.9064 24.2511 13.6094 24.2272 14.0483 24.2272H14.85L16.6025 18.8593C16.6531 18.7043 16.6287 18.5367 16.5359 18.3994L13.7058 14.2206L15.2322 11.4081L17.4941 13.3302C17.6559 13.4674 17.8852 13.5141 18.0946 13.4522L21.5846 12.4206C22.0703 12.2772 22.3447 11.8044 22.2046 11.3524C22.0624 10.894 21.5465 10.6262 21.0474 10.7517L18.42 11.4118L15.843 8.55651L16.1482 7.99401C16.1482 7.99401 17.2167 8.69714 18.1324 7.57214C19.0482 6.44714 19.3535 4.19713 17.8272 3.35338C16.3009 2.50963 13.5535 3.63463 14.4693 6.44714Z" fill="#FFC7A3"/>
  <path d="M11.3804 6.53101L10.0082 8.14904L11.3001 8.84232L8.98926 12.9376L13.7059 14.2207L15.2322 11.4082L16.4245 12.4215L17.7942 10.7138L15.8576 8.53913L13.8051 7.48276L11.3804 6.53101Z" fill="#FF7575"/>
  <path d="M8.98925 12.9375L7.26758 16.0059L10.0854 17.3824L11.1172 15.8116L13.088 17.926L15.216 16.4506L13.7059 14.2206L8.98925 12.9375Z" fill="#96C362"/>
  <path d="M24.4055 1.40625H8.83718C8.58442 1.40625 8.37929 1.59525 8.37929 1.82813V5.25628L4.55588 8.40207C4.22498 8.6746 4.03236 9.04922 4.01374 9.45732C3.99451 9.86569 4.15202 10.2544 4.45637 10.5517C5.06262 11.1434 6.08586 11.1788 6.7382 10.6307L8.37929 9.39516V12.179L6.33953 16.7155L2.57962 18.583C1.71878 18.9799 1.30607 19.9145 1.64002 20.711C1.82562 21.1537 2.20628 21.5052 2.68432 21.6757C3.16175 21.8464 3.67307 21.8076 4.1679 21.607L8.37929 19.9215V23.4844C8.37929 23.7173 8.58442 23.9063 8.83718 23.9063H12.2448C12.5095 24.6088 13.1878 25.0313 14.0935 25.0313C14.7855 25.0313 15.5798 24.7284 15.9031 23.9063H24.4055C24.6583 23.9063 24.8634 23.7173 24.8634 23.4844V1.82813C24.8634 1.59525 24.6583 1.40625 24.4055 1.40625ZM23.9476 23.0625H15.5529C15.3319 23.0625 15.1424 23.2079 15.1024 23.4082C14.9671 24.0863 14.4122 24.1875 14.0935 24.1875C13.6765 24.1875 13.1579 24.0548 13.0559 23.4225C13.0229 23.2158 12.83 23.0625 12.6032 23.0625H9.29507V18.5141L3.74816 20.8569C3.48136 20.9635 3.25242 20.9728 3.01462 20.8887C2.77346 20.8024 2.58847 20.6314 2.49445 20.4064C2.32869 20.0112 2.54604 19.5418 3.0018 19.3314L6.91769 17.3869C7.01049 17.3408 7.08315 17.2665 7.12344 17.1771L9.26027 12.4245C9.28317 12.373 9.29507 12.3185 9.29507 12.2631L9.30087 7.76925L6.12065 10.0072C5.83493 10.2462 5.38742 10.2316 5.12214 9.97257C4.98874 9.84235 4.92006 9.67219 4.9283 9.4936C4.93654 9.31472 5.0211 9.15047 5.16549 9.0315L9.14214 5.76C9.23921 5.67985 9.29507 5.56566 9.29507 5.44528V2.25H23.9476V23.0625Z" fill="#40396E"/>
  <path d="M14.7749 6.35401C14.7075 6.01061 14.9614 5.68098 15.3424 5.61742C15.55 5.58283 15.8439 5.65736 16.0549 5.94676C16.8217 4.49608 18.1908 4.71967 18.8605 4.89855C18.7644 4.14704 18.362 3.62336 17.8419 3.33564C16.3336 2.50173 13.4748 3.64783 14.469 6.44683L14.8482 6.5447C14.8262 6.49998 14.785 6.40492 14.7749 6.35401Z" fill="#40396E"/>
  <path d="M17.8418 15.75V17.4375H21.3523V15.75H17.8418Z" fill="white"/>
  <path d="M22.7262 16.5938L20.5894 18.5625V14.625L22.7262 16.5938Z" fill="white"/>
</svg>