<svg xmlns="http://www.w3.org/2000/svg" width="48" height="48" viewBox="0 0 48 48" fill="none">
  <path d="M24 44C35.0457 44 44 35.0457 44 24C44 12.9543 35.0457 4 24 4C12.9543 4 4 12.9543 4 24C4 35.0457 12.9543 44 24 44Z" fill="url(#paint0_linear_1818_2067)"/>
  <path d="M17.172 30.364L30.607 16.929C31.779 15.757 33.678 15.757 34.85 16.929L36.557 18.636L23.121 32.071C21.949 33.243 20.05 33.243 18.878 32.071L17.172 30.364Z" fill="url(#paint1_linear_1818_2067)"/>
  <path d="M11.101 24.293L17.172 30.364L21 26.536L17.05 22.586C15.878 21.414 13.979 21.414 12.807 22.586L11.101 24.293Z" fill="url(#paint2_linear_1818_2067)"/>
  <defs>
    <linearGradient id="paint0_linear_1818_2067" x1="1.956" y1="1.956" x2="54.828" y2="54.828" gradientUnits="userSpaceOnUse">
      <stop stop-color="#262626" stop-opacity="0"/>
      <stop offset="1" stop-color="#23F788"/>
    </linearGradient>
    <linearGradient id="paint1_linear_1818_2067" x1="2.62157" y1="24.4686" x2="44.5968" y2="24.4679" gradientUnits="userSpaceOnUse">
      <stop stop-color="#23F788"/>
      <stop offset="1" stop-color="#262626" stop-opacity="0.8"/>
    </linearGradient>
    <linearGradient id="paint2_linear_1818_2067" x1="9.03901" y1="17.1249" x2="22.6551" y2="33.3502" gradientUnits="userSpaceOnUse">
      <stop stop-color="#262626" stop-opacity="0"/>
      <stop offset="1" stop-color="#37CD82"/>
    </linearGradient>
  </defs>
</svg>