<svg xmlns="http://www.w3.org/2000/svg" width="22" height="25" viewBox="0 0 22 25" fill="none">
  <path opacity="0.35" d="M4.4565 23.25C3.67737 23.25 3.04346 22.521 3.04346 21.625V4.375C3.04346 3.479 3.67737 2.75 4.4565 2.75H14.2391C15.0182 2.75 15.6522 3.479 15.6522 4.375V9.75H18.1522C18.9313 9.75 19.5652 10.479 19.5652 11.375V14.625C19.5652 15.521 18.9313 16.25 18.1522 16.25H15.6522V21.625C15.6522 22.521 15.0182 23.25 14.2391 23.25H4.4565Z" fill="black"/>
  <path d="M4.02193 22.75C3.2428 22.75 2.60889 22.021 2.60889 21.125V3.875C2.60889 2.979 3.2428 2.25 4.02193 2.25H13.8045C14.5837 2.25 15.2176 2.979 15.2176 3.875V9.25H17.7176C18.4967 9.25 19.1306 9.979 19.1306 10.875V14.125C19.1306 15.021 18.4967 15.75 17.7176 15.75H15.2176V21.125C15.2176 22.021 14.5837 22.75 13.8045 22.75H4.02193Z" fill="#F2F2F2"/>
  <path d="M13.8046 3.875H4.02197V21.125H13.8046V3.875Z" fill="#23F788"/>
  <path d="M8.47803 12.5L11.3041 9.875V11.25H17.7172V13.75H11.3041V15.125L8.47803 12.5Z" fill="#707CC0"/>
  <path d="M13.8045 21.5H4.02189C3.84186 21.5 3.6958 21.3322 3.6958 21.125V3.875C3.6958 3.66785 3.84186 3.5 4.02189 3.5H13.8045C13.9845 3.5 14.1306 3.66785 14.1306 3.875V10.5H17.7175C17.8976 10.5 18.0436 10.6678 18.0436 10.875V14.125C18.0436 14.3322 17.8976 14.5 17.7175 14.5H14.1306V21.125C14.1306 21.3322 13.9845 21.5 13.8045 21.5ZM4.34797 20.75H13.4784V14.125C13.4784 13.9178 13.6245 13.75 13.8045 13.75H17.3915V11.25H13.8045C13.6245 11.25 13.4784 11.0822 13.4784 10.875V4.25H4.34797V20.75Z" fill="#696969"/>
</svg>