<svg xmlns="http://www.w3.org/2000/svg" width="22" height="25" viewBox="0 0 22 25" fill="none">
  <g clip-path="url(#clip0_2221_985)">
    <path opacity="0.35" d="M16.1 24.8005C15.0377 24.8005 13.9955 24.4302 13.124 23.75H7.06488C5.56649 23.75 4.34749 22.3481 4.34749 20.625V9.2439C3.95559 8.95459 3.69531 8.44922 3.69531 7.875V6.375C3.69531 5.61572 4.16343 4.948 4.80838 4.78687L8.71548 3.8103C8.84817 2.78711 9.61731 2 10.5431 2H12.4997C13.4255 2 14.1946 2.78711 14.3273 3.8103L18.2348 4.78711C18.8794 4.948 19.3475 5.61572 19.3475 6.375V7.875C19.3475 8.44922 19.0872 8.95459 18.6953 9.2439V13.4614C20.5478 14.668 21.6059 17.0613 21.3165 19.5605C21.0127 22.1816 19.2171 24.3042 16.95 24.7224C16.6694 24.7739 16.384 24.8003 16.1011 24.8005H16.1Z" fill="#696969"/>
    <path d="M15.6654 24.3005C14.6031 24.3005 13.5609 23.9302 12.6895 23.25H6.63031C5.13192 23.25 3.91292 21.8481 3.91292 20.125V8.7439C3.52102 8.45459 3.26074 7.94922 3.26074 7.375V5.875C3.26074 5.11572 3.72886 4.448 4.37381 4.28687L8.28091 3.3103C8.4136 2.28711 9.18274 1.5 10.1086 1.5H12.0651C12.9909 1.5 13.7601 2.28711 13.8927 3.3103L17.8003 4.28711C18.4448 4.448 18.9129 5.11572 18.9129 5.875V7.375C18.9129 7.94922 18.6526 8.45459 18.2607 8.7439V12.9614C20.1132 14.168 21.1713 16.5613 20.882 19.0605C20.5782 21.6816 18.7826 23.8042 16.5155 24.2224C16.2348 24.2739 15.9495 24.3003 15.6665 24.3005H15.6654Z" fill="#F2F2F2"/>
    <path d="M4.78271 6L9.78271 4.75H12.6088L17.6088 6V7.25H4.78271V6Z" fill="#9AA2E6"/>
    <path d="M15.4161 21.75H6.97479C6.12414 21.75 5.43457 20.957 5.43457 19.9788V7H16.9563V19.9788C16.9563 20.957 16.2667 21.75 15.4161 21.75Z" fill="#707CC0"/>
    <path d="M12.8259 5H9.34766V3.625C9.34766 3.1425 9.68896 2.75 10.1085 2.75H12.065C12.4846 2.75 12.8259 3.1425 12.8259 3.625V5ZM9.99983 4.25H12.1737V3.625C12.1737 3.556 12.125 3.5 12.065 3.5H10.1085C10.0485 3.5 9.99983 3.556 9.99983 3.625V4.25Z" fill="#696969"/>
    <path d="M7.17366 19.25C6.81344 19.25 6.52148 18.9142 6.52148 18.5V9C6.52148 8.58575 6.81344 8.25 7.17366 8.25C7.53388 8.25 7.82583 8.58575 7.82583 9V18.5C7.82583 18.9142 7.53388 19.25 7.17366 19.25Z" fill="#9AA2E6"/>
    <path d="M9.78254 19.25C9.42233 19.25 9.13037 18.9142 9.13037 18.5V9C9.13037 8.58575 9.42233 8.25 9.78254 8.25C10.1428 8.25 10.4347 8.58575 10.4347 9V18.5C10.4347 18.9142 10.1428 19.25 9.78254 19.25Z" fill="#9AA2E6"/>
    <path d="M12.3914 19.25C12.0312 19.25 11.7393 18.9142 11.7393 18.5V9C11.7393 8.58575 12.0312 8.25 12.3914 8.25C12.7516 8.25 13.0436 8.58575 13.0436 9V18.5C13.0436 18.9142 12.7516 19.25 12.3914 19.25Z" fill="#9AA2E6"/>
    <path d="M14.9998 19.25C14.6396 19.25 14.3477 18.9142 14.3477 18.5V9C14.3477 8.58575 14.6396 8.25 14.9998 8.25C15.36 8.25 15.652 8.58575 15.652 9V18.5C15.652 18.9142 15.36 19.25 14.9998 19.25Z" fill="#9AA2E6"/>
    <path d="M15.6519 22.3245C17.6087 22.3245 19.195 20.5003 19.195 18.25C19.195 15.9998 17.6087 14.1755 15.6519 14.1755C13.6952 14.1755 12.1089 15.9998 12.1089 18.25C12.1089 20.5003 13.6952 22.3245 15.6519 22.3245Z" fill="#F4665C"/>
    <path d="M14.1215 20.0101C13.9517 19.8148 13.9517 19.4983 14.1215 19.303L16.5678 16.4898C16.7377 16.2944 17.0128 16.2944 17.1827 16.4898C17.3526 16.6851 17.3526 17.0015 17.1827 17.1969L14.7363 20.0103C14.5666 20.2054 14.2914 20.2054 14.1215 20.0101Z" fill="#F2F2F2"/>
    <path d="M14.1215 16.4898C14.2914 16.2944 14.5666 16.2944 14.7364 16.4898L17.1828 19.3032C17.3527 19.4985 17.3527 19.8149 17.1828 20.0103C17.013 20.2056 16.7378 20.2056 16.568 20.0103L14.1215 17.1969C13.9517 17.0015 13.9517 16.6851 14.1215 16.4898Z" fill="#F2F2F2"/>
    <path d="M17.1737 13.7483V11.5798V11V7.75H17.4998C17.68 7.75 17.8259 7.58224 17.8259 7.375V5.875C17.8259 5.6985 17.719 5.54599 17.5692 5.5085L12.5692 4.2585C12.5463 4.25299 12.5231 4.25 12.4998 4.25H9.67374C9.65048 4.25 9.62722 4.25299 9.6044 4.2585L4.6044 5.5085C4.45461 5.54599 4.34766 5.6985 4.34766 5.875V7.375C4.34766 7.58224 4.49353 7.75 4.67374 7.75H4.99983V20.125C4.99983 21.159 5.73114 22 6.63026 22H10.652H10.7306H13.0451C13.7909 22.6843 14.7146 23.0505 15.6654 23.0505C15.8904 23.0503 16.1171 23.0298 16.3432 22.9883C18.1402 22.6567 19.5636 20.9736 19.8044 18.8955C20.0624 16.6697 18.9648 14.5493 17.1737 13.7483ZM19.158 18.7964C18.9548 20.5491 17.7549 21.9683 16.2399 22.2476C15.1917 22.4407 14.1731 22.1184 13.3726 21.3389L13.2814 21.25H10.7306H10.652H6.63026C6.09091 21.25 5.652 20.7453 5.652 20.125V7.375C5.652 7.16774 5.50613 7 5.32592 7H4.99983V6.17725L9.70875 5H12.4648L17.1737 6.17725V7H16.8477C16.6674 7 16.5216 7.16774 16.5216 7.375V11.375V11.5798V14.2849L16.7469 14.3691C18.371 14.9756 19.3849 16.8376 19.158 18.7964Z" fill="#696969"/>
  </g>
  <defs>
    <clipPath id="clip0_2221_985">
      <rect width="21.7391" height="25" fill="white" transform="translate(0.217285)"/>
    </clipPath>
  </defs>
</svg>