<svg xmlns="http://www.w3.org/2000/svg" width="27" height="27" viewBox="0 0 27 27" fill="none">
  <path opacity="0.35" d="M2.58198 27C2.27152 27 1.96106 26.9293 1.68432 26.7958C1.02086 26.4767 0.607422 25.839 0.607422 25.1327V3.59039C0.607422 1.92732 2.03822 0.574463 3.79709 0.574463H18.0747C19.8335 0.574463 21.2643 1.92732 21.2643 3.59039V6.31075L22.0785 8.67926H25.0248C25.8824 8.67926 26.6373 9.19742 26.9028 9.96864C27.1674 10.7416 26.8791 11.58 26.1858 12.0568L23.8018 13.6943L24.7122 16.344C24.9768 17.1164 24.6885 17.9548 23.9953 18.4316C23.6545 18.6648 23.2538 18.7881 22.8346 18.7881C22.4154 18.7881 22.0147 18.6648 21.6754 18.4325L21.2643 18.1501V25.1327C21.2643 26.1317 20.3521 26.9997 19.5228 26.9997C19.1014 26.9997 18.6989 26.8756 18.359 26.641L11.1689 21.6966L3.74302 26.6427C3.40674 26.8753 3.00393 27 2.58198 27Z" fill="black"/>
  <path d="M1.97456 26.4255C1.6641 26.4255 1.35364 26.3549 1.07689 26.2213C0.413442 25.9022 0 25.2646 0 24.5583V3.01593C0 1.35286 1.4308 0 3.18967 0H17.4672C19.2261 0 20.6569 1.35286 20.6569 3.01593V5.73629L21.471 8.1048H24.4174C25.275 8.1048 26.0298 8.62296 26.2953 9.39418C26.5599 10.1671 26.2716 11.0055 25.5784 11.4823L23.1944 13.1199L24.1048 15.7696C24.3694 16.5419 24.0811 17.3803 23.3879 17.8572C23.047 18.0904 22.6464 18.2136 22.2271 18.2136C21.8079 18.2136 21.4072 18.0904 21.0679 17.858L20.6569 17.5757V24.5583C20.6569 25.2646 20.2435 25.9022 19.5779 26.2222C19.3021 26.3552 18.9925 26.4253 18.6824 26.4253C18.261 26.4253 17.8585 26.3012 17.5186 26.0665L10.3285 21.1221L3.1356 26.0682C2.79932 26.3009 2.39651 26.4255 1.97456 26.4255Z" fill="#F2F2F2"/>
  <path d="M3.18972 1.86694H17.4673C18.1383 1.86694 18.6824 2.38137 18.6824 3.01587V24.5582L10.3285 18.8136L1.97461 24.5582V3.01587C1.97461 2.38137 2.51868 1.86694 3.18972 1.86694Z" fill="#10AEFF"/>
  <path d="M18.9503 13.5627C18.8704 13.5081 18.7766 13.4806 18.6824 13.4806C18.5882 13.4806 18.4944 13.5081 18.4145 13.5627L16.0046 15.2186L16.925 12.5399C16.9858 12.3624 16.919 12.1676 16.7595 12.0579L14.3496 10.4026H17.3282C17.5253 10.4026 17.7006 10.2825 17.7616 10.105L18.6821 7.42603L19.6025 10.105C19.6636 10.2825 19.8386 10.4026 20.036 10.4026H23.0146L20.6047 12.0579C20.4452 12.1676 20.3784 12.3624 20.4391 12.5399L21.3596 15.2186L18.9503 13.5627Z" fill="#FFC571"/>
  <path opacity="0.35" d="M15.1292 16.8029C15.0351 16.8029 14.9412 16.7753 14.8613 16.7207C14.7018 16.611 14.635 16.4163 14.6957 16.2388L15.9507 12.5869L12.6653 10.3301C12.5058 10.2204 12.439 10.0257 12.4997 9.84815C12.5608 9.67064 12.7358 9.55058 12.9332 9.55058H16.9944L18.2493 5.89844L19.1163 6.16499L17.759 10.1147C17.698 10.2922 17.523 10.4123 17.3256 10.4123H14.3355L16.7541 12.0736C16.9136 12.1833 16.9805 12.3781 16.9197 12.5556L15.9956 15.2441L18.4146 13.5824L18.9505 14.2798L15.3972 16.7207C15.3173 16.7753 15.2231 16.8029 15.1292 16.8029Z" fill="black"/>
  <path d="M24.4174 9.97145H20.0364L18.6824 6.03179V3.01587C18.6824 2.38137 18.1383 1.86694 17.4673 1.86694H3.18972C2.51868 1.86694 1.97461 2.38137 1.97461 3.01587V24.5582L10.3285 18.8136L18.6824 24.5582V13.9114L22.2269 16.3463L20.873 12.4066L24.4174 9.97145Z" stroke="#40396E" stroke-miterlimit="10" stroke-linejoin="round"/>
</svg>