<svg xmlns="http://www.w3.org/2000/svg" width="27" height="27" viewBox="0 0 27 27" fill="none">
  <g clip-path="url(#clip0_2169_2336)">
    <path d="M1.53633 0.263672L0.263672 1.53633L25.4637 26.7363L26.7363 25.4637L23.7375 22.4648C24.5698 22.3064 25.2 21.5786 25.2 20.7V9.9H11.1727L8.47266 7.2H25.2V6.3C25.2 5.3055 24.3945 4.5 23.4 4.5H5.77266L1.53633 0.263672ZM1.91426 5.68828C1.84496 5.87998 1.8 6.084 1.8 6.3V7.2H3.42598L1.91426 5.68828ZM1.8 9.9V20.7C1.8 21.6945 2.6055 22.5 3.6 22.5H18.726L6.12598 9.9H1.8Z" fill="#979797"/>
  </g>
  <defs>
    <clipPath id="clip0_2169_2336">
      <rect width="27" height="27" fill="white"/>
    </clipPath>
  </defs>
</svg>