<svg xmlns="http://www.w3.org/2000/svg" width="25" height="21" viewBox="0 0 25 21" fill="none">
  <path d="M11.3641 12.121V10.6057C11.705 10.4368 12.6801 9.27614 12.7824 8.36929C13.0505 8.34883 13.4718 8.10261 13.596 7.1306C13.6627 6.60861 13.3975 6.31541 13.2369 6.22299C13.2369 6.22299 13.6369 5.46311 13.6369 4.54564C13.6369 2.70617 12.9149 1.13641 11.3641 1.13641C11.3641 1.13641 10.8255 0 9.09129 0C5.87752 0 4.54564 2.06145 4.54564 4.54564C4.54564 5.38204 4.94566 6.22299 4.94566 6.22299C4.78505 6.31541 4.51989 6.60937 4.58656 7.1306C4.7108 8.10261 5.13203 8.34883 5.40023 8.36929C5.5025 9.27614 6.47754 10.4368 6.81847 10.6057V12.121C6.06086 14.3938 0 12.8786 0 18.1818H18.1826C18.1826 12.8786 12.1217 14.3938 11.3641 12.121Z" fill="#979797"/>
  <path d="M8.37498 20.0545C8.45365 19.3093 8.75438 18.7704 9.17805 18.3459C9.68926 17.8337 10.3963 17.4713 11.1829 17.1466C11.4451 17.0384 11.7224 16.9324 12.0019 16.8255C12.5261 16.625 13.0578 16.4217 13.5108 16.196C14.2163 15.8446 14.8712 15.3778 15.148 14.628L15.1728 14.561V14.4895V13.6364V13.2364H14.7728C13.2309 13.2364 12.0285 12.8522 11.2147 12.4712C10.8149 12.2841 10.5092 12.0979 10.3036 11.9586C10.4285 11.7481 10.5172 11.5043 10.5849 11.2545C10.7024 10.8207 10.7743 10.2982 10.8286 9.73765C10.8716 9.29463 10.9039 8.83142 10.9372 8.35499C10.9905 7.59014 11.0463 6.7912 11.1523 5.98696C11.3225 4.69531 11.6121 3.509 12.1742 2.65235C12.7169 1.82531 13.5222 1.28892 14.8145 1.28892H14.9968L15.1156 1.15228L15.1158 1.152L15.1159 1.15193L15.1161 1.15174L15.1162 1.15158L15.1197 1.14768C15.1237 1.14333 15.1304 1.13604 15.1397 1.12622C15.1584 1.10654 15.1875 1.0769 15.2258 1.0406C15.3029 0.967644 15.4155 0.869833 15.555 0.772406C15.8406 0.57296 16.2032 0.4 16.5873 0.4C18.2193 0.4 19.2708 1.00763 19.9895 1.92287C20.726 2.86073 21.1361 4.15204 21.3949 5.54709C21.5733 6.50917 21.6742 7.48099 21.769 8.3944C21.8121 8.81054 21.8541 9.21456 21.9015 9.60001C21.9759 10.2042 22.0646 10.7652 22.1976 11.2284C22.2773 11.5061 22.3799 11.7747 22.5225 12.0022C22.3313 12.1358 22.0496 12.3118 21.6789 12.4887C20.9019 12.8597 19.7322 13.2364 18.181 13.2364H17.781V13.6364V14.4895V14.561L17.8058 14.6281C18.0829 15.3778 18.7379 15.8446 19.4435 16.1961C19.8965 16.4217 20.4282 16.625 20.9524 16.8254C21.232 16.9323 21.5094 17.0384 21.7716 17.1466C22.5583 17.4713 23.2654 17.8337 23.7766 18.3459C24.2003 18.7704 24.501 19.3093 24.5797 20.0545H8.37498Z" fill="#979797" stroke="#EBEBEB" stroke-width="0.8"/>
</svg>