<svg width="27" height="27" viewBox="0 0 27 27" fill="none" xmlns="http://www.w3.org/2000/svg">
<g id="Frame">
<path id="Vector" opacity="0.35" d="M23.8318 16.3661L23.0677 15.602C22.838 15.3719 22.5793 15.1826 22.3007 15.0374C22.3471 13.3607 21.806 11.7496 21.7334 11.5428L21.06 9.5202V8.2782C21.06 7.24221 20.6485 6.28587 19.9544 5.71617C19.5194 5.3622 19.0034 5.17536 18.4623 5.17536C18.3082 5.17536 18.1526 5.19129 18.0085 5.22072C17.6332 5.29497 17.2851 5.42592 16.9684 5.59197C16.9555 5.54742 16.9422 5.50287 16.9258 5.45913C15.9843 2.94732 14.3046 1.5228 11.7906 1.10376C11.6953 1.08783 11.5987 1.08 11.5026 1.08C10.6407 1.08 9.91279 1.69695 9.77185 2.54556C9.74323 2.71755 9.74026 2.88954 9.76132 3.05775C9.40195 2.90682 9.01315 2.82717 8.61193 2.82717C7.81759 2.82717 7.07185 3.13713 6.52051 3.6909C6.51808 3.6936 6.51538 3.69603 6.51322 3.69819C6.32503 3.66309 6.13333 3.645 5.94001 3.645C5.1076 3.645 4.32703 3.97008 3.74815 4.55409C2.99539 5.30388 2.70163 6.345 2.88577 7.32267C2.88577 7.32267 2.88523 7.32321 2.88496 7.32375C1.91431 8.2944 1.7569 9.77508 2.41462 10.9131C1.69804 11.9394 1.71478 13.3423 2.51371 14.3645C2.7505 14.6653 3.02104 15.008 3.31021 15.3719C2.64655 15.7704 2.30257 16.578 2.52505 17.3572C3.22138 19.7942 4.79359 21.4269 6.82831 21.8338C6.94414 21.8579 7.06321 21.87 7.18309 21.87C7.72147 21.87 8.21152 21.62 8.53687 21.2242C9.25399 21.7863 10.1277 22.3833 11.0238 22.8641C11.7221 23.2403 12.3558 23.5057 12.9387 23.6647C13.085 24.1469 13.3477 24.5932 13.712 24.9575L14.4761 25.7216C15.0617 26.3075 15.8417 26.6298 16.6725 26.6298C17.5063 26.6298 18.2868 26.3061 18.8663 25.7216L23.8321 20.756C25.0395 19.548 25.0403 17.5797 23.8318 16.3661ZM14.8867 7.86969C14.9113 7.84566 14.9364 7.82163 14.9594 7.79598C14.9909 7.80192 15.022 7.80786 15.0541 7.81191C15.0352 7.86834 15.0152 7.92531 14.9985 7.98147L14.8867 7.86969Z" fill="#1D1D1B"/>
<path id="Vector_2" d="M23.2918 15.826L22.5277 15.0619C22.2979 14.8319 22.0393 14.6426 21.7606 14.4974C21.8071 12.8207 21.266 11.2096 21.1934 11.0028L20.52 8.98019V7.73819C20.52 6.7022 20.1085 5.74586 19.4143 5.17616C18.9794 4.82219 18.4634 4.63535 17.9223 4.63535C17.7681 4.63535 17.6126 4.65128 17.4684 4.68071C17.0931 4.75496 16.7451 4.88591 16.4284 5.05196C16.4154 5.00741 16.4022 4.96286 16.3857 4.91912C15.4442 2.40731 13.7646 0.982793 11.2506 0.563753C11.1553 0.547823 11.0586 0.539993 10.9625 0.539993C10.1007 0.539993 9.37275 1.15694 9.23181 2.00555C9.20319 2.17754 9.20022 2.34953 9.22128 2.51774C8.86191 2.36681 8.47311 2.28716 8.07189 2.28716C7.27755 2.28716 6.53181 2.59712 5.98047 3.15089C5.97804 3.15359 5.97534 3.15602 5.97318 3.15818C5.78499 3.12308 5.59329 3.10499 5.39997 3.10499C4.56756 3.10499 3.78699 3.43007 3.20811 4.01408C2.45535 4.76414 2.16159 5.80499 2.34546 6.78266C2.34546 6.78266 2.34492 6.7832 2.34465 6.78374C1.37427 7.75439 1.21686 9.23507 1.87458 10.3731C1.158 11.3994 1.17474 12.8023 1.97367 13.8245C2.21046 14.1253 2.481 14.4679 2.77017 14.8319C2.10651 15.2304 1.76253 16.038 1.98501 16.8172C2.68134 19.2542 4.25355 20.8869 6.28827 21.2938C6.4041 21.3178 6.52317 21.33 6.64305 21.33C7.18143 21.33 7.67148 21.08 7.99683 20.6842C8.71395 21.2463 9.58767 21.8433 10.4838 22.3241C11.182 22.7002 11.8157 22.9657 12.3986 23.1247C12.545 23.6069 12.8077 24.0532 13.1719 24.4174L13.936 25.1815C14.5217 25.7674 15.3017 26.0898 16.1325 26.0898C16.9662 26.0898 17.7468 25.7661 18.3262 25.1815L23.2921 20.216C24.4995 19.008 24.5003 17.0397 23.2918 15.826ZM14.3467 7.32968C14.3713 7.30565 14.3964 7.28162 14.4193 7.25597C14.4509 7.26191 14.482 7.26785 14.5141 7.2719C14.4952 7.32833 14.4752 7.3853 14.4585 7.44146L14.3467 7.32968Z" fill="#F2F2F2"/>
<path id="Vector_3" d="M22.0502 17.0672L21.1641 16.1811C20.7526 15.7696 20.1432 15.6838 19.644 15.9149C20.4739 14.394 19.5284 11.5568 19.5284 11.5568L18.7651 9.26559V7.7382C18.7651 6.97464 18.3488 6.29424 17.8104 6.4017C17.0617 6.55155 16.4561 7.14339 16.283 7.54731C15.7103 8.88381 16.0921 10.4112 15.7103 11.1748L8.93279 4.39722C8.4584 3.92283 7.6889 3.92283 7.21451 4.39722C6.74012 4.87161 6.74012 5.64111 7.21451 6.1155L6.35537 5.25636C5.82806 4.72905 4.97351 4.72905 4.4462 5.25636C3.91889 5.78367 3.91889 6.63822 4.4462 7.16553L5.30534 8.02467C4.83095 7.55028 4.06145 7.55028 3.58706 8.02467C3.11267 8.49906 3.11267 9.26856 3.58706 9.74295L5.06504 11.2212C4.61765 10.7738 3.89243 10.7738 3.44531 11.2212C3.03518 11.6313 2.99549 12.2826 3.35432 12.7383C4.53584 14.2401 7.06547 17.4218 8.07365 18.4299C9.34076 19.697 12.6653 22.3341 13.9837 21.6292C13.8052 22.1089 13.9057 22.6689 14.2912 23.0545L15.1774 23.9406C15.7047 24.4679 16.5592 24.4679 17.0865 23.9406L22.0505 18.9767C22.5775 18.4491 22.5775 17.5943 22.0502 17.0672Z" fill="#FFC7A3"/>
<path id="Vector_4" d="M22.0499 18.9764L17.0863 23.9401C16.5589 24.4674 15.7044 24.4674 15.1771 23.9401L14.6968 23.4598C14.1694 22.9325 14.1694 22.0779 14.6968 21.5506L19.6607 16.5866C20.188 16.0593 21.0426 16.0593 21.5699 16.5866L22.0502 17.067C22.5772 17.5943 22.5772 18.4491 22.0499 18.9764Z" fill="#70BFFF"/>
<path id="Vector_5" opacity="0.35" d="M11.5185 9.83827L7.37944 5.70781C7.22095 5.54986 6.96472 5.54959 6.80677 5.70835C6.64882 5.86657 6.64909 6.12307 6.80731 6.28102L10.9464 10.4115C11.0255 10.4906 11.1289 10.53 11.2326 10.53C11.3366 10.53 11.4402 10.4906 11.5194 10.4112C11.677 10.2527 11.6768 9.99622 11.5185 9.83827Z" fill="#40396E"/>
<path id="Vector_6" opacity="0.35" d="M5.44136 7.61156C5.28206 7.45496 5.02529 7.45658 4.86869 7.61642C4.71182 7.77599 4.71398 8.03249 4.87355 8.18909L9.05855 12.3036C9.13739 12.3811 9.23999 12.42 9.34259 12.42C9.44735 12.42 9.55211 12.3798 9.63122 12.299C9.78809 12.1395 9.78593 11.883 9.62636 11.7264L5.44136 7.61156Z" fill="#40396E"/>
<path id="Vector_7" opacity="0.35" d="M5.30901 10.9185C5.15079 10.7603 4.89456 10.7603 4.73634 10.9185C4.57812 11.0768 4.57812 11.333 4.73634 11.4912L7.70634 14.4612C7.78545 14.5406 7.88913 14.58 7.99281 14.58C8.09649 14.58 8.20017 14.5406 8.27928 14.4615C8.4375 14.3033 8.4375 14.047 8.27928 13.8888L5.30901 10.9185Z" fill="#40396E"/>
<path id="Vector_8" d="M6.72204 19.1778C5.46195 18.9257 4.54233 17.9042 4.062 16.2238C4.00017 16.0086 3.77553 15.8838 3.56142 15.9457C3.34623 16.0072 3.22176 16.2313 3.28332 16.4462C3.84411 18.4091 5.00916 19.6611 6.56328 19.9722C6.59001 19.9776 6.61701 19.98 6.6432 19.98C6.8322 19.98 7.00122 19.8469 7.03983 19.6544C7.08384 19.4349 6.94155 19.2216 6.72204 19.1778Z" fill="#40396E"/>
<path id="Vector_9" d="M11.061 3.52215C10.8414 3.46842 10.6238 3.59991 10.5698 3.81672C10.5156 4.0338 10.6473 4.25358 10.8644 4.30785C11.213 4.39506 11.5281 4.5468 11.7989 4.75119L12.2865 5.23881C12.4909 5.50962 12.6429 5.82498 12.7298 6.17328C12.7755 6.35715 12.941 6.48 13.1224 6.48C13.1548 6.48 13.188 6.47595 13.221 6.46785C13.438 6.41358 13.5698 6.19353 13.5155 5.97672C13.208 4.74714 12.2905 3.82968 11.061 3.52215Z" fill="#40396E"/>
<path id="Vector_10" d="M15.1219 5.39298C14.3538 3.34422 13.0532 2.2329 11.0295 1.89567C10.8089 1.85895 10.6 2.00772 10.5632 2.22831C10.5263 2.4489 10.6756 2.65788 10.8959 2.6946C12.6287 2.98323 13.6982 3.90339 14.3635 5.67729C14.4245 5.83983 14.5787 5.94 14.7428 5.94C14.7901 5.94 14.8384 5.9319 14.8849 5.91408C15.0944 5.83551 15.2005 5.60223 15.1219 5.39298Z" fill="#40396E"/>
<path id="Vector_11" d="M16.3352 22.815C16.7079 22.815 17.0102 22.5128 17.0102 22.14C17.0102 21.7672 16.7079 21.465 16.3352 21.465C15.9624 21.465 15.6602 21.7672 15.6602 22.14C15.6602 22.5128 15.9624 22.815 16.3352 22.815Z" fill="#40396E"/>
<path id="Vector_12" d="M3.95547 12.4602C3.75729 12.2621 3.75918 11.9389 3.96006 11.738C4.16094 11.5371 4.48413 11.5352 4.68231 11.7334C4.88022 11.9316 4.15365 12.6584 3.95547 12.4602Z" fill="#FFE8D9"/>
<path id="Vector_13" d="M4.09875 9.33606C3.87519 9.11277 3.87762 8.74827 4.10388 8.52201C4.33014 8.29575 4.69464 8.29332 4.91793 8.51688C5.14149 8.74017 4.32231 9.55935 4.09875 9.33606Z" fill="#FFE8D9"/>
<path id="Vector_14" d="M7.72619 5.7105C7.50263 5.48721 7.50506 5.12271 7.73132 4.89645C7.95758 4.67019 8.32208 4.66776 8.54537 4.89132C8.76893 5.11434 7.94975 5.93379 7.72619 5.7105Z" fill="#FFE8D9"/>
<path id="Vector_15" d="M5.00601 6.75864C4.74897 6.5016 4.75167 6.08229 5.01168 5.82201C5.27196 5.56173 5.69127 5.55903 5.94831 5.81607C6.20535 6.07284 5.26305 7.01541 5.00601 6.75864Z" fill="#FFE8D9"/>
<path id="Vector_16" d="M16.1317 24.7406C15.663 24.7406 15.2223 24.5579 14.8908 24.2266L14.1269 23.463C13.7165 23.0529 13.5524 22.4886 13.6342 21.9548C13.6288 21.9548 13.6239 21.9548 13.6188 21.9548C12.9716 21.9548 12.1376 21.6815 11.1232 21.1361C9.76102 20.4036 8.4391 19.3682 7.78732 18.7161C6.78562 17.7147 4.38046 14.6977 3.03586 12.9886C2.55094 12.3728 2.60386 11.4896 3.15871 10.935C3.34825 10.7455 3.57505 10.6153 3.81562 10.5449L3.30073 10.0297C2.66893 9.3979 2.66893 8.37028 3.30073 7.73875C3.50782 7.53166 3.76081 7.38748 4.03702 7.3162C3.47866 6.62716 3.51943 5.61088 4.15987 4.97044C4.49143 4.63861 4.93207 4.45636 5.40106 4.45636C5.80822 4.45636 6.19432 4.59406 6.50563 4.84732C6.57745 4.57138 6.72136 4.31839 6.92818 4.1113C7.55998 3.47923 8.5876 3.4795 9.21913 4.1113L15.4826 10.3745C15.4993 10.1814 15.5066 9.96814 15.5139 9.74971C15.5385 9.01963 15.5663 8.19154 15.9108 7.38829C16.1425 6.84775 16.8593 6.17923 17.7312 6.00508C18.0233 5.94649 18.3179 6.02425 18.5611 6.22405C18.9367 6.53104 19.17 7.11181 19.17 7.73821V9.19999L19.9128 11.4286C19.953 11.5444 20.7327 13.831 20.2662 15.5053C20.7376 15.4813 21.2144 15.6581 21.573 16.0172L22.3368 16.781C23.021 17.4652 23.021 18.5784 22.3368 19.2626L17.3726 24.2266C17.041 24.5579 16.6004 24.7406 16.1317 24.7406ZM14.4134 20.8624C14.5171 20.8624 14.6208 20.9018 14.6999 20.9809C14.8581 21.1388 14.8581 21.3953 14.6999 21.5536C14.3316 21.9221 14.3316 22.5218 14.6999 22.8901L15.4637 23.6536C15.8206 24.0106 16.443 24.0106 16.7999 23.6536L21.7641 18.6897C22.1324 18.3214 22.1324 17.7217 21.7641 17.3534L21.0003 16.5896C20.6318 16.2216 20.0324 16.2216 19.6638 16.5896C19.5056 16.7478 19.2494 16.7478 19.0911 16.5896C18.9329 16.4314 18.9329 16.1752 19.0911 16.0169C20.038 15.0701 19.4519 12.572 19.1462 11.6894L18.381 9.39385C18.367 9.35254 18.36 9.30934 18.36 9.2656V7.73821C18.36 7.30378 18.198 6.97303 18.0476 6.84964C17.9763 6.79132 17.928 6.79159 17.8899 6.79888C17.2867 6.91957 16.7853 7.40368 16.6555 7.70689C16.3709 8.37055 16.3458 9.11791 16.3236 9.77671C16.3026 10.3969 16.2845 10.9323 16.0728 11.3559C16.0145 11.4726 15.9038 11.5536 15.7753 11.5746C15.6476 11.5954 15.5161 11.5533 15.424 11.4612L8.64619 4.6837C8.33056 4.36807 7.81675 4.36753 7.50058 4.6837C7.34776 4.83652 7.26352 5.03983 7.26352 5.25637C7.26352 5.47291 7.34776 5.67622 7.50058 5.82904C7.57969 5.90815 7.61911 6.01183 7.61911 6.11551C7.61911 6.21919 7.57969 6.32287 7.50058 6.40198C7.34236 6.5602 7.08613 6.5602 6.92791 6.40198L6.06877 5.54284C5.71183 5.1859 5.08921 5.18617 4.73227 5.54284C4.36399 5.91112 4.36399 6.51079 4.73227 6.87934L5.59168 7.73848C5.7499 7.8967 5.7499 8.15293 5.59168 8.31115C5.43346 8.46937 5.17723 8.46937 5.01901 8.31115C4.71283 8.00524 4.17958 8.00524 3.8734 8.31115C3.72058 8.46424 3.63607 8.66755 3.63607 8.88409C3.63607 9.10036 3.72058 9.30367 3.8734 9.45676L5.35165 10.935C5.43076 11.0141 5.47018 11.1178 5.47018 11.2215C5.47018 11.3252 5.43076 11.4288 5.35165 11.5079C5.19343 11.6662 4.9372 11.6662 4.77898 11.5079C4.49899 11.228 4.01164 11.228 3.73165 11.5079C3.46678 11.7728 3.4414 12.1943 3.67252 12.488C4.74631 13.8529 7.35181 17.1356 8.35999 18.1437C8.97154 18.7553 10.2168 19.7292 11.5068 20.4228C12.8004 21.1186 13.7789 21.3273 14.1261 20.982L14.1269 20.9812C14.206 20.9018 14.3097 20.8624 14.4134 20.8624Z" fill="#40396E"/>
</g>
</svg>
