<svg xmlns="http://www.w3.org/2000/svg" width="25" height="25" viewBox="0 0 25 25" fill="none">
  <path opacity="0.35" d="M4.29679 25.0001C3.36346 25.0001 2.60409 24.1904 2.60409 23.1953V12.7336C2.4757 12.7661 2.21424 11.6724 2.08325 11.6724C1.76841 11.6724 1.56945 11.8487 1.302 11.6724C0.799658 11.3414 0.520752 11.6083 0.520752 10.9782V8.75696C0.520752 8.10945 0.848616 7.50832 1.37674 7.18818L11.9236 0.791431C12.1783 0.637052 12.4676 0.55542 12.7606 0.55542C13.0536 0.55542 13.3429 0.637052 13.5976 0.791709L24.1444 7.18845C24.6721 7.50832 24.9999 8.10945 24.9999 8.75696V10.9782C24.9999 11.6083 24.6999 12.1822 24.1971 12.5134C23.9299 12.6897 23.6221 12.783 23.3075 12.783C23.1762 12.783 23.0447 12.7664 22.9166 12.7339V23.1953C22.9166 24.1904 22.1572 25.0001 21.2239 25.0001H4.29679Z" fill="black"/>
  <path d="M3.77604 24.4447C2.84271 24.4447 2.08333 23.635 2.08333 22.6399V12.1782C1.95495 12.2107 1.8237 12.2276 1.69271 12.2276C1.37786 12.2276 1.07005 12.1343 0.802604 11.958C0.3 11.6268 0 11.0528 0 10.4228V8.20154C0 7.55403 0.327865 6.9529 0.85599 6.63276L11.4029 0.236011C11.6576 0.0816322 11.9469 0 12.2398 0C12.5328 0 12.8221 0.0816323 13.0768 0.236289L23.6237 6.63303C24.1513 6.9529 24.4792 7.55403 24.4792 8.20154V10.4228C24.4792 11.0528 24.1792 11.6268 23.6763 11.958C23.4091 12.1343 23.1013 12.2276 22.7867 12.2276C22.6555 12.2276 22.524 12.211 22.3958 12.1785V22.6399C22.3958 23.635 21.6365 24.4447 20.7031 24.4447H3.77604Z" fill="#F2F2F2"/>
  <path d="M22.7864 8.20168L12.2395 1.80493L1.69263 8.20168V10.423L3.77596 9.31232V22.64H20.703V9.31232L22.7864 10.423V8.20168Z" fill="#D9EEFF"/>
  <path d="M1.69263 8.20168L1.82284 10.0012L3.64731 8.91998L12.2395 3.89266L20.8293 8.91748L22.6562 10.0012L22.7864 8.20168L12.2395 1.80493L1.69263 8.20168Z" fill="#FF7575"/>
  <path d="M22.7864 8.20168L12.2395 1.80493L1.69263 8.20168V10.423L3.77596 9.31232V22.64H20.703V9.31232L22.7864 10.423V8.20168Z" stroke="#40396E" stroke-miterlimit="10" stroke-linecap="round" stroke-linejoin="round"/>
  <path opacity="0.35" d="M3.3855 10.0065L3.65737 8.915L12.2397 3.89795L20.8295 8.9175L21.0938 10.0065L12.2397 4.87143L3.3855 10.0065Z" fill="#40396E"/>
  <path opacity="0.35" d="M20.3126 19.4468H4.16675V22.2234H20.3126V19.4468Z" fill="#70BFFF"/>
  <path d="M15.6251 12.5051H8.85425V22.2232H15.6251V12.5051Z" fill="#FF7575"/>
  <path d="M13.9323 18.3363C14.2919 18.3363 14.5833 18.0255 14.5833 17.6421C14.5833 17.2588 14.2919 16.948 13.9323 16.948C13.5727 16.948 13.2812 17.2588 13.2812 17.6421C13.2812 18.0255 13.5727 18.3363 13.9323 18.3363Z" fill="#40396E"/>
</svg>