<svg xmlns="http://www.w3.org/2000/svg" width="27" height="27" viewBox="0 0 27 27" fill="none">
  <path d="M4.5 4.5V6.75C4.5 7.371 5.004 7.875 5.625 7.875C6.246 7.875 6.75 7.371 6.75 6.75V5.625H12.375V21.375H11.25C10.629 21.375 10.125 21.879 10.125 22.5C10.125 23.121 10.629 23.625 11.25 23.625H15.75C16.371 23.625 16.875 23.121 16.875 22.5C16.875 21.879 16.371 21.375 15.75 21.375H14.625V5.625H20.25V6.75C20.25 7.371 20.754 7.875 21.375 7.875C21.996 7.875 22.5 7.371 22.5 6.75V4.5C22.5 3.879 21.996 3.375 21.375 3.375H5.625C5.004 3.375 4.5 3.879 4.5 4.5Z" fill="#979797"/>
</svg>