<svg xmlns="http://www.w3.org/2000/svg" width="29" height="29" viewBox="0 0 29 29" fill="none">
  <rect width="29" height="29" fill="#D9D9D9"/>
  <path opacity="0.35" d="M6.235 26.97C4.5559 26.97 3.19 25.6041 3.19 23.925V6.235C3.19 4.5559 4.5559 3.19 6.235 3.19H23.925C25.6041 3.19 26.97 4.5559 26.97 6.235V23.925C26.97 25.6041 25.6041 26.97 23.925 26.97H6.235Z" fill="black"/>
  <path d="M5.65499 26.39C3.97589 26.39 2.60999 25.0241 2.60999 23.345V5.65499C2.60999 3.97589 3.97589 2.60999 5.65499 2.60999H23.345C25.0241 2.60999 26.39 3.97589 26.39 5.65499V23.345C26.39 25.0241 25.0241 26.39 23.345 26.39H5.65499Z" fill="#D9D9D9"/>
  <path d="M4.495 23.345V5.655C4.495 5.01439 5.01439 4.495 5.655 4.495H23.345C23.9856 4.495 24.505 5.01439 24.505 5.655V23.345C24.505 23.9856 23.9856 24.505 23.345 24.505H5.655C5.01439 24.505 4.495 23.9856 4.495 23.345Z" fill="#10AEFF"/>
  <path d="M23.345 24.94H5.655C4.77572 24.94 4.06 24.2243 4.06 23.345V5.655C4.06 4.77572 4.77572 4.06 5.655 4.06H23.345C24.2243 4.06 24.94 4.77572 24.94 5.655V23.345C24.94 24.2243 24.2243 24.94 23.345 24.94ZM5.655 4.93C5.25509 4.93 4.93 5.25509 4.93 5.655V23.345C4.93 23.7449 5.25509 24.07 5.655 24.07H23.345C23.7449 24.07 24.07 23.7449 24.07 23.345V5.655C24.07 5.25509 23.7449 4.93 23.345 4.93H5.655Z" fill="#40396E"/>
  <path d="M20.3 15.37H8.70002C8.21949 15.37 7.83002 14.9805 7.83002 14.5C7.83002 14.0195 8.21949 13.63 8.70002 13.63H20.3C20.7805 13.63 21.17 14.0195 21.17 14.5C21.17 14.9805 20.7805 15.37 20.3 15.37Z" fill="white"/>
  <path d="M14.5 21.17C14.0195 21.17 13.63 20.7805 13.63 20.3V8.70002C13.63 8.21949 14.0195 7.83002 14.5 7.83002C14.9805 7.83002 15.37 8.21949 15.37 8.70002V20.3C15.37 20.7805 14.9805 21.17 14.5 21.17Z" fill="white"/>
</svg>