<svg xmlns="http://www.w3.org/2000/svg" width="27" height="27" viewBox="0 0 27 27" fill="none">
  <path d="M11.7 2.70001C11.2392 2.70001 10.7783 2.87546 10.4273 3.22736L2.32735 11.3274C1.62445 12.0303 1.62445 13.1698 2.32735 13.8727L3.7336 15.2789C3.8938 14.6714 4.19839 14.1101 4.65469 13.6547L12.7547 5.5547C13.4342 4.8743 14.3388 4.50001 15.3 4.50001H20.2008C19.5771 3.42811 18.4293 2.70001 17.1 2.70001H11.7ZM15.3 6.30001C14.8392 6.30001 14.3783 6.47546 14.0273 6.82736L5.92735 14.9274C5.22445 15.6303 5.22445 16.7698 5.92735 17.4727L13.1273 24.6727C13.8302 25.3756 14.9698 25.3756 15.6727 24.6727L23.7727 16.5727C24.1246 16.2217 24.3 15.7608 24.3 15.3V9.90001C24.3 7.91191 22.6881 6.30001 20.7 6.30001H15.3ZM20.7 8.10001C21.6945 8.10001 22.5 8.90551 22.5 9.90001C22.5 10.8945 21.6945 11.7 20.7 11.7C19.7055 11.7 18.9 10.8945 18.9 9.90001C18.9 8.90551 19.7055 8.10001 20.7 8.10001Z" fill="#979797"/>
</svg>