<svg xmlns="http://www.w3.org/2000/svg" width="15" height="15" viewBox="0 0 15 15" fill="none">
  <path d="M1.15385 0C0.516346 0 0 0.516346 0 1.15385V11.5385C0 12.176 0.516346 12.6923 1.15385 12.6923H7.31971C7.97055 14.0532 9.35757 15 10.9615 15C13.1851 15 15 13.1851 15 10.9615C15 9.35757 14.0532 7.97055 12.6923 7.31971V1.15385C12.6923 0.516346 12.176 0 11.5385 0H1.15385ZM1.15385 1.15385H11.5385V3.46154H1.15385V1.15385ZM4.03846 5.19231C4.35692 5.19231 4.61538 5.45077 4.61538 5.76923C4.61538 6.08769 4.35692 6.34615 4.03846 6.34615C3.72 6.34615 3.46154 6.08769 3.46154 5.76923C3.46154 5.45077 3.72 5.19231 4.03846 5.19231ZM6.34615 5.19231C6.66462 5.19231 6.92308 5.45077 6.92308 5.76923C6.92308 6.08769 6.66462 6.34615 6.34615 6.34615C6.02769 6.34615 5.76923 6.08769 5.76923 5.76923C5.76923 5.45077 6.02769 5.19231 6.34615 5.19231ZM8.65385 5.19231C8.97231 5.19231 9.23077 5.45077 9.23077 5.76923C9.23077 6.08769 8.97231 6.34615 8.65385 6.34615C8.33538 6.34615 8.07692 6.08769 8.07692 5.76923C8.07692 5.45077 8.33538 5.19231 8.65385 5.19231ZM10.9615 5.19231C11.28 5.19231 11.5385 5.45077 11.5385 5.76923C11.5385 6.08769 11.28 6.34615 10.9615 6.34615C10.6431 6.34615 10.3846 6.08769 10.3846 5.76923C10.3846 5.45077 10.6431 5.19231 10.9615 5.19231ZM1.73077 7.5C2.04923 7.5 2.30769 7.75846 2.30769 8.07692C2.30769 8.39538 2.04923 8.65385 1.73077 8.65385C1.41231 8.65385 1.15385 8.39538 1.15385 8.07692C1.15385 7.75846 1.41231 7.5 1.73077 7.5ZM4.03846 7.5C4.35692 7.5 4.61538 7.75846 4.61538 8.07692C4.61538 8.39538 4.35692 8.65385 4.03846 8.65385C3.72 8.65385 3.46154 8.39538 3.46154 8.07692C3.46154 7.75846 3.72 7.5 4.03846 7.5ZM6.34615 7.5C6.66462 7.5 6.92308 7.75846 6.92308 8.07692C6.92308 8.39538 6.66462 8.65385 6.34615 8.65385C6.02769 8.65385 5.76923 8.39538 5.76923 8.07692C5.76923 7.75846 6.02769 7.5 6.34615 7.5ZM10.9615 8.07692C12.5615 8.07692 13.8462 9.36158 13.8462 10.9615C13.8462 12.5615 12.5615 13.8462 10.9615 13.8462C9.36158 13.8462 8.07692 12.5615 8.07692 10.9615C8.07692 9.36158 9.36158 8.07692 10.9615 8.07692ZM10.9525 8.64596C10.7997 8.64835 10.6541 8.71127 10.5476 8.82091C10.4411 8.93055 10.3825 9.07795 10.3846 9.23077V11.2004L11.4145 12.2303C11.4677 12.2857 11.5313 12.3299 11.6018 12.3603C11.6723 12.3908 11.7481 12.4069 11.8248 12.4077C11.9016 12.4084 11.9777 12.3939 12.0488 12.3649C12.1199 12.3359 12.1844 12.293 12.2387 12.2387C12.293 12.1844 12.3359 12.1199 12.3649 12.0488C12.3939 11.9777 12.4084 11.9016 12.4077 11.8248C12.4069 11.7481 12.3908 11.6723 12.3603 11.6018C12.3299 11.5313 12.2857 11.4677 12.2303 11.4145L11.5385 10.7227V9.23077C11.5395 9.15358 11.5251 9.07697 11.496 9.00547C11.4669 8.93396 11.4238 8.86902 11.3691 8.81449C11.3145 8.75996 11.2495 8.71694 11.1779 8.688C11.1063 8.65905 11.0297 8.64475 10.9525 8.64596ZM1.73077 9.80769C2.04923 9.80769 2.30769 10.0662 2.30769 10.3846C2.30769 10.7031 2.04923 10.9615 1.73077 10.9615C1.41231 10.9615 1.15385 10.7031 1.15385 10.3846C1.15385 10.0662 1.41231 9.80769 1.73077 9.80769ZM4.03846 9.80769C4.35692 9.80769 4.61538 10.0662 4.61538 10.3846C4.61538 10.7031 4.35692 10.9615 4.03846 10.9615C3.72 10.9615 3.46154 10.7031 3.46154 10.3846C3.46154 10.0662 3.72 9.80769 4.03846 9.80769ZM6.34615 9.80769C6.66462 9.80769 6.92308 10.0662 6.92308 10.3846C6.92308 10.7031 6.66462 10.9615 6.34615 10.9615C6.02769 10.9615 5.76923 10.7031 5.76923 10.3846C5.76923 10.0662 6.02769 9.80769 6.34615 9.80769Z" fill="#979797"/>
</svg>