<svg xmlns="http://www.w3.org/2000/svg" width="21" height="23" viewBox="0 0 21 23" fill="none">
  <path d="M9.60001 0.799988C9.10321 0.799988 8.70001 1.20319 8.70001 1.69999V2.77225C4.10015 3.62275 0.600006 7.65851 0.600006 12.5C0.600006 17.9569 5.04305 22.4 10.5 22.4C15.957 22.4 20.4 17.9569 20.4 12.5C20.4 7.65851 16.8999 3.62275 12.3 2.77225V1.69999C12.3 1.20319 11.8968 0.799988 11.4 0.799988H9.60001ZM17.6912 2.5912C17.5122 2.59125 17.3372 2.64469 17.1887 2.74469C17.0402 2.84469 16.9249 2.98671 16.8575 3.15259C16.7901 3.31847 16.7738 3.50068 16.8105 3.67591C16.8472 3.85114 16.9354 4.01144 17.0637 4.13632L17.9637 5.03632C18.0466 5.12269 18.1459 5.19165 18.2559 5.23916C18.3658 5.28667 18.4841 5.31176 18.6038 5.31298C18.7235 5.3142 18.8423 5.29151 18.9532 5.24625C19.064 5.20099 19.1647 5.13407 19.2494 5.0494C19.3341 4.96473 19.401 4.86401 19.4463 4.75315C19.4915 4.64229 19.5142 4.52352 19.513 4.40378C19.5118 4.28404 19.4867 4.16575 19.4392 4.05584C19.3917 3.94592 19.3227 3.84659 19.2363 3.76366L18.3363 2.86366C18.2525 2.77744 18.1522 2.70891 18.0414 2.66212C17.9306 2.61532 17.8115 2.59121 17.6912 2.5912ZM10.5 4.39999C14.9842 4.39999 18.6 8.01582 18.6 12.5C18.6 16.9842 14.9842 20.6 10.5 20.6C6.01584 20.6 2.40001 16.9842 2.40001 12.5C2.40001 8.01582 6.01584 4.39999 10.5 4.39999ZM10.4859 6.18768C10.2476 6.19141 10.0204 6.28956 9.85429 6.4606C9.68819 6.63164 9.59674 6.86159 9.60001 7.09999V10.9443C9.32684 11.102 9.09991 11.3288 8.94195 11.6018C8.784 11.8748 8.70056 12.1846 8.70001 12.5C8.70026 12.8157 8.78355 13.1258 8.94152 13.3992C9.09949 13.6725 9.32658 13.8995 9.60001 14.0574V15.2C9.59832 15.3192 9.62035 15.4377 9.66482 15.5483C9.7093 15.659 9.77532 15.7597 9.85906 15.8447C9.9428 15.9296 10.0426 15.997 10.1526 16.0431C10.2626 16.0891 10.3807 16.1128 10.5 16.1128C10.6193 16.1128 10.7374 16.0891 10.8474 16.0431C10.9574 15.997 11.0572 15.9296 11.141 15.8447C11.2247 15.7597 11.2907 15.659 11.3352 15.5483C11.3797 15.4377 11.4017 15.3192 11.4 15.2V14.0557C11.6732 13.8979 11.9001 13.6712 12.0581 13.3982C12.216 13.1252 12.2994 12.8154 12.3 12.5C12.2998 12.1843 12.2165 11.8742 12.0585 11.6008C11.9005 11.3274 11.6734 11.1004 11.4 10.9426V7.09999C11.4017 6.97958 11.3791 6.86006 11.3338 6.74851C11.2884 6.63697 11.2211 6.53566 11.1358 6.45059C11.0506 6.36552 10.9492 6.29842 10.8375 6.25326C10.7259 6.2081 10.6063 6.1858 10.4859 6.18768Z" fill="#979797"/>
</svg>