<svg xmlns="http://www.w3.org/2000/svg" width="20" height="21" viewBox="0 0 20 21" fill="none">
  <path d="M0 9.99997C0 13.8782 2.21905 17.2436 5.4541 18.8997C5.55192 18.9548 5.65986 18.9896 5.77145 19.002C5.88305 19.0144 5.99599 19.0041 6.1035 18.9717C6.21102 18.9393 6.31088 18.8856 6.3971 18.8137C6.48333 18.7418 6.55413 18.6532 6.60526 18.5532C6.65639 18.4532 6.6868 18.344 6.69466 18.232C6.70251 18.12 6.68766 18.0075 6.65098 17.9014C6.61431 17.7953 6.55657 17.6977 6.48123 17.6144C6.40589 17.5312 6.31451 17.464 6.21256 17.417C3.51595 16.0365 1.66667 13.2434 1.66667 9.99997C1.66667 5.38786 5.38789 1.66664 10 1.66664C14.6121 1.66664 18.3333 5.38786 18.3333 9.99997C18.3333 13.2434 16.484 16.0365 13.7874 17.417C13.6855 17.464 13.5941 17.5312 13.5188 17.6144C13.4434 17.6977 13.3857 17.7953 13.349 17.9014C13.3123 18.0075 13.2975 18.12 13.3053 18.232C13.3132 18.344 13.3436 18.4532 13.3947 18.5532C13.4459 18.6532 13.5167 18.7418 13.6029 18.8137C13.6891 18.8856 13.789 18.9393 13.8965 18.9717C14.004 19.0041 14.117 19.0144 14.2285 19.002C14.3401 18.9896 14.4481 18.9548 14.5459 18.8997C17.781 17.2436 20 13.8782 20 9.99997C20 4.48708 15.5129 -2.71794e-05 10 -2.71794e-05C4.48711 -2.71794e-05 0 4.48708 0 9.99997ZM5.8252 10.8414C5.82524 11.0072 5.87472 11.1692 5.96732 11.3067C6.05991 11.4442 6.19141 11.551 6.345 11.6134C6.4986 11.6758 6.6673 11.6909 6.82956 11.6569C6.99181 11.6229 7.14024 11.5413 7.25586 11.4225L9.16667 9.51169V19.1666C9.1651 19.2771 9.18551 19.3867 9.22668 19.4892C9.26786 19.5916 9.329 19.6849 9.40653 19.7636C9.48407 19.8422 9.57646 19.9046 9.67834 19.9473C9.78023 19.9899 9.88956 20.0118 10 20.0118C10.1104 20.0118 10.2198 19.9899 10.3217 19.9473C10.4235 19.9046 10.5159 19.8422 10.5935 19.7636C10.671 19.6849 10.7321 19.5916 10.7733 19.4892C10.8145 19.3867 10.8349 19.2771 10.8333 19.1666V9.51169L12.7441 11.4225C12.8209 11.5025 12.9129 11.5663 13.0147 11.6103C13.1164 11.6543 13.226 11.6775 13.3368 11.6787C13.4477 11.6798 13.5577 11.6588 13.6603 11.6169C13.763 11.575 13.8562 11.513 13.9346 11.4346C14.013 11.3562 14.075 11.263 14.1169 11.1603C14.1588 11.0577 14.1798 10.9477 14.1787 10.8368C14.1776 10.726 14.1543 10.6164 14.1103 10.5146C14.0664 10.4129 14.0025 10.3209 13.9225 10.2441L10.6624 6.98402C10.5846 6.88193 10.4841 6.79921 10.369 6.74232C10.2539 6.68544 10.1272 6.65592 9.99878 6.65608C9.87038 6.65624 9.74374 6.68607 9.62876 6.74323C9.51378 6.8004 9.41357 6.88337 9.33594 6.98565L6.07747 10.2441C5.99765 10.3218 5.93419 10.4146 5.89086 10.5172C5.84753 10.6198 5.8252 10.7301 5.8252 10.8414Z" fill="#333333"/>
</svg>