<svg xmlns="http://www.w3.org/2000/svg" width="20" height="20" viewBox="0 0 20 20" fill="none">
  <path d="M10 2C5.58962 2 2 5.58962 2 10C2 14.4104 5.58962 18 10 18C14.4104 18 18 14.4104 18 10C18 5.58962 14.4104 2 10 2ZM10.6654 3.36589C13.8217 3.67713 16.3229 6.1783 16.6341 9.33464C16.4632 9.34299 16.3021 9.41672 16.1841 9.54057C16.066 9.66442 16.0001 9.82891 16 10C16.0001 10.1711 16.066 10.3356 16.1841 10.4594C16.3021 10.5833 16.4632 10.657 16.6341 10.6654C16.3229 13.8217 13.8217 16.3229 10.6654 16.6341C10.657 16.4632 10.5833 16.3021 10.4594 16.1841C10.3356 16.066 10.1711 16.0001 10 16C9.82891 16.0001 9.66442 16.066 9.54057 16.1841C9.41672 16.3021 9.34299 16.4632 9.33464 16.6341C6.1783 16.3229 3.67713 13.8217 3.36589 10.6654C3.53677 10.657 3.6979 10.5833 3.81593 10.4594C3.93397 10.3356 3.99987 10.1711 4 10C3.99987 9.82891 3.93397 9.66442 3.81593 9.54057C3.6979 9.41672 3.53677 9.34299 3.36589 9.33464C3.58759 7.08641 4.92096 5.17174 6.8099 4.14323L10 7.33333V4C10.1711 3.99987 10.3356 3.93397 10.4594 3.81593C10.5833 3.6979 10.657 3.53677 10.6654 3.36589ZM6.66016 5.99349C6.52753 5.99352 6.39794 6.03311 6.28793 6.10719C6.17792 6.18126 6.09251 6.28646 6.0426 6.40934C5.9927 6.53221 5.98057 6.66718 6.00777 6.79698C6.03498 6.92678 6.10027 7.04552 6.19531 7.13802L9.52865 10.4714C9.6062 10.5489 9.70167 10.606 9.8066 10.6378C9.91153 10.6696 10.0227 10.6751 10.1302 10.6536L13.4635 9.98698C13.5513 9.97195 13.6352 9.93948 13.7103 9.89148C13.7853 9.84349 13.85 9.78095 13.9005 9.70754C13.9509 9.63414 13.9862 9.55137 14.0041 9.46412C14.0221 9.37687 14.0223 9.28691 14.0049 9.19955C13.9875 9.11219 13.9528 9.0292 13.9028 8.95549C13.8528 8.88177 13.7885 8.81883 13.7138 8.77037C13.639 8.72191 13.5553 8.68892 13.4676 8.67334C13.3799 8.65777 13.29 8.65993 13.2031 8.67969L10.2188 9.27604L7.13802 6.19531C7.07589 6.13145 7.0016 6.08069 6.91952 6.04602C6.83744 6.01136 6.74925 5.99349 6.66016 5.99349Z" fill="#979797"/>
</svg>