<svg xmlns="http://www.w3.org/2000/svg" width="27" height="27" viewBox="0 0 27 27" fill="none">
  <path d="M12.6 2.70001C12.1032 2.70001 11.7 3.10321 11.7 3.60001V13.5H9.10548C9.06762 13.4947 9.02946 13.4917 8.99122 13.4912C8.81218 13.4913 8.63723 13.5447 8.48872 13.6447C8.34021 13.7447 8.2249 13.8867 8.15753 14.0526C8.09015 14.2185 8.07378 14.4007 8.11051 14.5759C8.14723 14.7512 8.23538 14.9115 8.36368 15.0363L12.8637 19.5363C13.0325 19.7051 13.2614 19.7998 13.5 19.7998C13.7387 19.7998 13.9676 19.7051 14.1363 19.5363L18.6363 15.0363C18.775 14.903 18.8672 14.7288 18.8996 14.5392C18.932 14.3496 18.9028 14.1547 18.8164 13.9829C18.7299 13.8111 18.5906 13.6715 18.4191 13.5846C18.2475 13.4977 18.0526 13.4681 17.8629 13.5H15.3V3.60001C15.3 3.10321 14.8968 2.70001 14.4 2.70001H12.6ZM6.96271 16.1526C4.45981 16.896 2.70001 18.1197 2.70001 19.8C2.70001 22.7538 8.13331 24.3 13.5 24.3C18.8667 24.3 24.3 22.7538 24.3 19.8C24.3 18.1197 22.5402 16.896 20.0373 16.1526C19.9932 16.2039 19.9576 16.2604 19.909 16.309L18.5783 17.6397C21.0371 18.2085 22.5 19.1151 22.5 19.8C22.5 20.8746 18.9108 22.5 13.5 22.5C8.08921 22.5 4.50001 20.8746 4.50001 19.8C4.50001 19.1151 5.96289 18.2085 8.42169 17.6397L7.09103 16.309C7.04243 16.2604 7.00681 16.203 6.96271 16.1526Z" fill="#979797"/>
</svg>