<svg xmlns="http://www.w3.org/2000/svg" width="33" height="33" viewBox="0 0 33 33" fill="none">
  <path opacity="0.35" d="M5.44499 29.37C4.26227 29.37 3.29999 28.4077 3.29999 27.225V13.4475C3.29999 12.7545 3.63692 12.1011 4.20188 11.6995L15.9165 3.36696C16.2812 3.10758 16.7115 2.96997 17.16 2.96997C17.6085 2.96997 18.0388 3.10758 18.4044 3.36762L30.1184 11.6995C30.6831 12.1011 31.02 12.7545 31.02 13.4475V27.225C31.02 28.4077 30.0577 29.37 28.875 29.37H5.44499Z" fill="black"/>
  <path d="M4.78501 28.7101C3.60229 28.7101 2.64001 27.7478 2.64001 26.5651V12.7876C2.64001 12.0946 2.97694 11.4412 3.5419 11.0395L15.2566 2.70705C15.6212 2.44767 16.0515 2.31006 16.5 2.31006C16.9485 2.31006 17.3788 2.44767 17.7444 2.70771L29.4585 11.0395C30.0231 11.4412 30.36 12.0946 30.36 12.7876V26.5651C30.36 27.7478 29.3977 28.7101 28.215 28.7101H4.78501Z" fill="#F2F2F2"/>
  <path d="M16.5 4.45496L4.78497 12.7875V26.565H28.215V12.7875L16.5 4.45496Z" fill="#9BA7C5"/>
  <path opacity="0.35" d="M28.215 13.035H4.78497V26.565H28.215V13.035Z" fill="#40396E"/>
  <path d="M23.1 10.89H9.90002V22.11H23.1V10.89Z" fill="#23F788"/>
  <path d="M16.5 20.79L4.78497 12.705V26.565H28.215V12.705L16.5 20.79Z" fill="#9BA7C5"/>
  <path d="M28.215 27.06H4.78498C4.51174 27.06 4.28998 26.8383 4.28998 26.565V12.7875C4.28998 12.6275 4.36753 12.477 4.49821 12.3843L16.2132 4.05178C16.3848 3.92968 16.6155 3.92968 16.7867 4.05178L28.5018 12.3843C28.6324 12.477 28.71 12.6275 28.71 12.7875V26.565C28.71 26.8383 28.4882 27.06 28.215 27.06ZM5.27998 26.07H27.72V13.043L16.5 5.06257L5.27998 13.043V26.07Z" fill="#696969"/>
  <path d="M16.5 18.315C16.2268 18.315 16.005 18.0932 16.005 17.82V12.87C16.005 12.5964 16.2268 12.375 16.5 12.375C16.7732 12.375 16.995 12.5964 16.995 12.87V17.82C16.995 18.0932 16.7732 18.315 16.5 18.315Z" fill="#10AEFF"/>
  <path d="M18.81 15.6751H14.19C13.9168 15.6751 13.695 15.4536 13.695 15.1801C13.695 14.9065 13.9168 14.6851 14.19 14.6851H18.81C19.0832 14.6851 19.305 14.9065 19.305 15.1801C19.305 15.4536 19.0832 15.6751 18.81 15.6751Z" fill="#10AEFF"/>
</svg>