<svg xmlns="http://www.w3.org/2000/svg" width="29" height="29" viewBox="0 0 29 29" fill="none">
  <path opacity="0.35" d="M4.78502 25.81C3.74566 25.81 2.90002 24.9643 2.90002 23.925V11.8175C2.90002 11.2085 3.19611 10.6343 3.69259 10.2814L13.9873 2.95886C14.3078 2.73092 14.6859 2.60999 15.08 2.60999C15.4741 2.60999 15.8523 2.73092 16.1736 2.95944L26.4677 10.2814C26.9639 10.6343 27.26 11.2085 27.26 11.8175V23.925C27.26 24.9643 26.4144 25.81 25.375 25.81H4.78502Z" fill="black"/>
  <path d="M4.20501 25.23C3.16565 25.23 2.32001 24.3844 2.32001 23.345V11.2375C2.32001 10.6285 2.6161 10.0543 3.11258 9.7014L13.4073 2.3789C13.7277 2.15096 14.1059 2.03003 14.5 2.03003C14.8941 2.03003 15.2723 2.15096 15.5936 2.37948L25.8877 9.7014C26.3839 10.0543 26.68 10.6285 26.68 11.2375V23.345C26.68 24.3844 25.8344 25.23 24.795 25.23H4.20501Z" fill="#D9D9D9"/>
  <path d="M14.5 3.91498L4.20502 11.2375V23.345H24.795V11.2375L14.5 3.91498Z" fill="#9BA7C5"/>
  <path opacity="0.35" d="M24.795 11.455H4.20502V23.345H24.795V11.455Z" fill="#40396E"/>
  <path d="M20.3 9.57001H8.70001V19.43H20.3V9.57001Z" fill="#D9EEFF"/>
  <path d="M14.5 18.27L4.20502 11.165V23.345H24.795V11.165L14.5 18.27Z" fill="#9BA7C5"/>
  <path d="M24.795 23.78H4.20502C3.9649 23.78 3.77002 23.5851 3.77002 23.345V11.2375C3.77002 11.0969 3.83817 10.9646 3.95301 10.8831L14.248 3.56064C14.3988 3.45334 14.6015 3.45334 14.752 3.56064L25.047 10.8831C25.1619 10.9646 25.23 11.0969 25.23 11.2375V23.345C25.23 23.5851 25.0351 23.78 24.795 23.78ZM4.64002 22.91H24.36V11.462L14.5 4.44891L4.64002 11.462V22.91Z" fill="#40396E"/>
  <path d="M14.5 16.095C14.2599 16.095 14.065 15.9001 14.065 15.66V11.31C14.065 11.0696 14.2599 10.875 14.5 10.875C14.7401 10.875 14.935 11.0696 14.935 11.31V15.66C14.935 15.9001 14.7401 16.095 14.5 16.095Z" fill="#70BFFF"/>
  <path d="M16.53 13.775H12.47C12.2299 13.775 12.035 13.5804 12.035 13.34C12.035 13.0996 12.2299 12.905 12.47 12.905H16.53C16.7701 12.905 16.965 13.0996 16.965 13.34C16.965 13.5804 16.7701 13.775 16.53 13.775Z" fill="#70BFFF"/>
</svg>