<svg xmlns="http://www.w3.org/2000/svg" width="21" height="20" viewBox="0 0 21 20" fill="none">
  <path d="M9.99985 20C13.8781 20 17.2434 17.781 18.8996 14.5459C18.9547 14.4481 18.9895 14.3401 19.0019 14.2285C19.0142 14.117 19.0039 14.004 18.9716 13.8965C18.9392 13.789 18.8855 13.6891 18.8135 13.6029C18.7416 13.5167 18.653 13.4459 18.5531 13.3947C18.4531 13.3436 18.3439 13.3132 18.2319 13.3053C18.1199 13.2975 18.0074 13.3123 17.9013 13.349C17.7952 13.3857 17.6976 13.4434 17.6143 13.5188C17.5311 13.5941 17.4639 13.6855 17.4168 13.7874C16.0363 16.484 13.2433 18.3333 9.99985 18.3333C5.38774 18.3333 1.66652 14.6121 1.66652 10C1.66652 5.38789 5.38774 1.66667 9.99985 1.66667C13.2433 1.66667 16.0363 3.51595 17.4168 6.21257C17.4639 6.31451 17.5311 6.40589 17.6143 6.48123C17.6976 6.55657 17.7952 6.61431 17.9013 6.65098C18.0074 6.68766 18.1199 6.70251 18.2319 6.69466C18.3439 6.6868 18.4531 6.65639 18.5531 6.60526C18.653 6.55413 18.7416 6.48333 18.8135 6.3971C18.8855 6.31088 18.9392 6.21102 18.9716 6.1035C19.0039 5.99599 19.0142 5.88305 19.0019 5.77145C18.9895 5.65986 18.9547 5.55192 18.8996 5.4541C17.2434 2.21905 13.8781 4.76837e-07 9.99985 4.76837e-07C4.48696 4.76837e-07 -0.00014925 4.48711 -0.00014925 10C-0.00014925 15.5129 4.48696 20 9.99985 20ZM10.8413 14.1748C11.0071 14.1748 11.1691 14.1253 11.3066 14.0327C11.4441 13.9401 11.5509 13.8086 11.6133 13.655C11.6756 13.5014 11.6908 13.3327 11.6568 13.1704C11.6228 13.0082 11.5412 12.8598 11.4224 12.7441L9.51157 10.8333L19.1665 10.8333C19.2769 10.8349 19.3866 10.8145 19.4891 10.7733C19.5915 10.7321 19.6848 10.671 19.7634 10.5935C19.8421 10.5159 19.9045 10.4235 19.9471 10.3217C19.9898 10.2198 20.0117 10.1104 20.0117 10C20.0117 9.88956 19.9898 9.78023 19.9471 9.67834C19.9045 9.57646 19.8421 9.48407 19.7634 9.40653C19.6848 9.329 19.5915 9.26786 19.4891 9.22668C19.3866 9.18551 19.2769 9.16511 19.1665 9.16667L9.51157 9.16667L11.4224 7.25586C11.5024 7.17907 11.5662 7.0871 11.6102 6.98532C11.6542 6.88355 11.6774 6.77402 11.6786 6.66315C11.6797 6.55229 11.6587 6.44231 11.6168 6.33966C11.5749 6.23701 11.5129 6.14376 11.4345 6.06536C11.3561 5.98696 11.2628 5.92499 11.1602 5.88308C11.0575 5.84118 10.9476 5.82017 10.8367 5.8213C10.7258 5.82243 10.6163 5.84567 10.5145 5.88965C10.4128 5.93364 10.3208 5.9975 10.244 6.07747L6.9839 9.33757C6.88181 9.41545 6.79909 9.51586 6.7422 9.63098C6.68532 9.7461 6.6558 9.87281 6.65596 10.0012C6.65612 10.1296 6.68594 10.2563 6.74311 10.3712C6.80028 10.4862 6.88324 10.5864 6.98553 10.6641L10.244 13.9225C10.3216 14.0024 10.4145 14.0658 10.5171 14.1091C10.6197 14.1525 10.73 14.1748 10.8413 14.1748Z" fill="#333333"/>
</svg>