<svg xmlns="http://www.w3.org/2000/svg" width="27" height="27" viewBox="0 0 27 27" fill="none">
  <path opacity="0.35" d="M6.07507 25.11C5.10739 25.11 4.32007 24.3227 4.32007 23.355V4.725C4.32007 3.75732 5.10739 2.97 6.07507 2.97H19.8451C20.8127 2.97 21.6001 3.75732 21.6001 4.725V11.4666L23.1785 12.6252C23.6275 12.9549 23.8951 13.4838 23.8951 14.04C23.8951 14.5962 23.6275 15.1251 23.179 15.4545L21.6001 16.6134V23.355C21.6001 24.3227 20.8127 25.11 19.8451 25.11H6.07507Z" fill="black"/>
  <path d="M5.53503 24.57C4.56735 24.57 3.78003 23.7827 3.78003 22.815V4.18499C3.78003 3.21731 4.56735 2.42999 5.53503 2.42999H19.305C20.2727 2.42999 21.06 3.21731 21.06 4.18499V10.9266L22.6385 12.0852C23.0875 12.4149 23.355 12.9438 23.355 13.5C23.355 14.0562 23.0875 14.5851 22.639 14.9145L21.06 16.0734V22.815C21.06 23.7827 20.2727 24.57 19.305 24.57H5.53503Z" fill="#F2F2F2"/>
  <path d="M19.3049 4.185V22.815H5.53491V4.185H19.3049Z" fill="white"/>
  <path d="M20.9127 13.5L16.2776 10.0021V12.15H9.79761V14.85H16.2776V16.9978L20.9127 13.5Z" fill="#3F51B5"/>
  <path d="M19.3049 23.22H5.53488C5.31105 23.22 5.12988 23.0388 5.12988 22.815V4.185C5.12988 3.96117 5.31105 3.78 5.53488 3.78H19.3049C19.5287 3.78 19.7099 3.96117 19.7099 4.185V11.6105L21.8396 13.1736C21.9433 13.2497 22.0049 13.3709 22.0049 13.5C22.0049 13.6291 21.9433 13.7503 21.8396 13.8264L19.7099 15.3895V22.815C19.7099 23.0388 19.5287 23.22 19.3049 23.22ZM5.93988 22.41H18.8999V15.1843C18.8999 15.0552 18.9614 14.934 19.0651 14.8578L20.9154 13.5L19.0651 12.1422C18.9614 12.0658 18.8999 11.9445 18.8999 11.8157V4.59H5.93988V22.41Z" fill="#40396E"/>
</svg>