<svg width="27" height="27" viewBox="0 0 27 27" fill="none" xmlns="http://www.w3.org/2000/svg">
<g id="Frame">
<path id="Vector" opacity="0.35" d="M22.8152 4.05H11.7452C11.1815 4.05 10.6806 4.31811 10.3593 4.73256C9.62842 3.6693 8.40505 2.97 7.02022 2.97C4.78704 2.97 2.97021 4.78683 2.97021 7.02C2.97021 8.52066 3.79263 9.83043 5.00844 10.53C3.79263 11.2296 2.97021 12.5393 2.97021 14.04C2.97021 15.5407 3.79263 16.8504 5.00844 17.55C3.79263 18.2496 2.97021 19.5593 2.97021 21.06C2.97021 23.2932 4.78704 25.11 7.02022 25.11C8.40505 25.11 9.62842 24.4107 10.3593 23.3474C10.6806 23.7619 11.1815 24.03 11.7452 24.03H22.8152C23.7829 24.03 24.5702 23.2427 24.5702 22.275V5.805C24.5702 4.83732 23.7829 4.05 22.8152 4.05Z" fill="black"/>
<path id="Vector_2" d="M22.2752 3.51H11.2052C10.6414 3.51 10.1406 3.77811 9.81927 4.19256C9.08838 3.1293 7.86501 2.43 6.48018 2.43C4.24701 2.43 2.43018 4.24683 2.43018 6.48C2.43018 7.98066 3.2526 9.29043 4.46841 9.99C3.2526 10.6896 2.43018 11.9993 2.43018 13.5C2.43018 15.0007 3.2526 16.3104 4.46841 17.01C3.2526 17.7096 2.43018 19.0193 2.43018 20.52C2.43018 22.7532 4.24701 24.57 6.48018 24.57C7.86501 24.57 9.08838 23.8707 9.81927 22.8074C10.1406 23.2219 10.6414 23.49 11.2052 23.49H22.2752C23.2429 23.49 24.0302 22.7027 24.0302 21.735V5.265C24.0302 4.29732 23.2429 3.51 22.2752 3.51Z" fill="#F2F2F2"/>
<path id="Vector_3" d="M6.48006 15.795C7.74755 15.795 8.77506 14.7675 8.77506 13.5C8.77506 12.2325 7.74755 11.205 6.48006 11.205C5.21257 11.205 4.18506 12.2325 4.18506 13.5C4.18506 14.7675 5.21257 15.795 6.48006 15.795Z" fill="#9AA2E6"/>
<path id="Vector_4" d="M6.47979 16.2C4.99101 16.2 3.77979 14.9888 3.77979 13.5C3.77979 12.0112 4.99101 10.8 6.47979 10.8C7.96857 10.8 9.17979 12.0112 9.17979 13.5C9.17979 14.9888 7.96857 16.2 6.47979 16.2ZM6.47979 11.61C5.43759 11.61 4.58979 12.4581 4.58979 13.5C4.58979 14.5419 5.43759 15.39 6.47979 15.39C7.52199 15.39 8.36979 14.5419 8.36979 13.5C8.36979 12.4581 7.52199 11.61 6.47979 11.61Z" fill="#40396E"/>
<path id="Vector_5" d="M6.48006 22.815C7.74755 22.815 8.77506 21.7875 8.77506 20.52C8.77506 19.2525 7.74755 18.225 6.48006 18.225C5.21257 18.225 4.18506 19.2525 4.18506 20.52C4.18506 21.7875 5.21257 22.815 6.48006 22.815Z" fill="#9AA2E6"/>
<path id="Vector_6" d="M6.47979 23.22C4.99101 23.22 3.77979 22.0088 3.77979 20.52C3.77979 19.0312 4.99101 17.82 6.47979 17.82C7.96857 17.82 9.17979 19.0312 9.17979 20.52C9.17979 22.0088 7.96857 23.22 6.47979 23.22ZM6.47979 18.63C5.43759 18.63 4.58979 19.4781 4.58979 20.52C4.58979 21.5619 5.43759 22.41 6.47979 22.41C7.52199 22.41 8.36979 21.5619 8.36979 20.52C8.36979 19.4781 7.52199 18.63 6.47979 18.63Z" fill="#40396E"/>
<path id="Vector_7" d="M6.48006 8.775C7.74755 8.775 8.77506 7.74749 8.77506 6.48C8.77506 5.2125 7.74755 4.185 6.48006 4.185C5.21257 4.185 4.18506 5.2125 4.18506 6.48C4.18506 7.74749 5.21257 8.775 6.48006 8.775Z" fill="#9AA2E6"/>
<path id="Vector_8" d="M6.47979 9.18C4.99101 9.18 3.77979 7.96878 3.77979 6.48C3.77979 4.99122 4.99101 3.78 6.47979 3.78C7.96857 3.78 9.17979 4.99122 9.17979 6.48C9.17979 7.96878 7.96857 9.18 6.47979 9.18ZM6.47979 4.59C5.43759 4.59 4.58979 5.43807 4.58979 6.48C4.58979 7.52193 5.43759 8.37 6.47979 8.37C7.52199 8.37 8.36979 7.52193 8.36979 6.48C8.36979 5.43807 7.52199 4.59 6.47979 4.59Z" fill="#40396E"/>
<g id="Group">
<path id="Vector_9" d="M22.2746 5.265H11.2046V7.695H22.2746V5.265Z" fill="#9AA2E6"/>
<path id="Vector_10" d="M22.2748 8.1H11.2048C10.981 8.1 10.7998 7.91856 10.7998 7.695V5.265C10.7998 5.04144 10.981 4.86 11.2048 4.86H22.2748C22.4986 4.86 22.6798 5.04144 22.6798 5.265V7.695C22.6798 7.91856 22.4986 8.1 22.2748 8.1ZM11.6098 7.29H21.8698V5.67H11.6098V7.29Z" fill="#40396E"/>
</g>
<g id="Group_2">
<path id="Vector_11" d="M22.2746 12.285H11.2046V14.715H22.2746V12.285Z" fill="#9AA2E6"/>
<path id="Vector_12" d="M22.2748 15.12H11.2048C10.981 15.12 10.7998 14.9386 10.7998 14.715V12.285C10.7998 12.0614 10.981 11.88 11.2048 11.88H22.2748C22.4986 11.88 22.6798 12.0614 22.6798 12.285V14.715C22.6798 14.9386 22.4986 15.12 22.2748 15.12ZM11.6098 14.31H21.8698V12.69H11.6098V14.31Z" fill="#40396E"/>
</g>
<g id="Group_3">
<path id="Vector_13" d="M22.2746 19.305H11.2046V21.735H22.2746V19.305Z" fill="#9AA2E6"/>
<path id="Vector_14" d="M22.2748 22.14H11.2048C10.981 22.14 10.7998 21.9586 10.7998 21.735V19.305C10.7998 19.0814 10.981 18.9 11.2048 18.9H22.2748C22.4986 18.9 22.6798 19.0814 22.6798 19.305V21.735C22.6798 21.9586 22.4986 22.14 22.2748 22.14ZM11.6098 21.33H21.8698V19.71H11.6098V21.33Z" fill="#40396E"/>
</g>
</g>
</svg>
