<svg xmlns="http://www.w3.org/2000/svg" width="32" height="32" viewBox="0 0 32 32" fill="none">
  <path d="M2.13334 16C2.13334 9.52853 7.39094 4.26666 13.8667 4.26666C14.5952 4.26666 15.3077 4.33813 15.9979 4.46613C16.6912 4.33813 17.4037 4.26666 18.1333 4.26666C24.6091 4.26666 29.8667 9.52853 29.8667 16C29.8667 22.4853 24.6091 27.7333 18.1333 27.7333C17.4037 27.7333 16.6912 27.6619 15.9989 27.5339C15.3077 27.6619 14.5952 27.7333 13.8667 27.7333C7.39094 27.7333 2.13334 22.4853 2.13334 16ZM27.7355 16C27.7355 10.6955 23.4336 6.4 18.1333 6.4C15.8336 6.4 13.7237 7.21066 12.0693 8.56213C11.6267 8.66133 11.0069 9.17333 10.4907 9.8848C10.4085 9.99893 10.3317 10.112 10.0928 10.5248C9.99147 10.7243 9.91467 10.9088 9.8592 11.0795C9.69707 11.5488 9.7056 11.9328 9.93174 12.0747C10.3083 12.3168 11.1605 11.776 11.8475 10.8512L12.8021 11.1637C11.5637 13.0272 10.0928 14.1931 9.46134 13.7803C9.10614 13.5669 9.03787 13.0688 9.25227 12.3435C8.7872 13.4688 8.5312 14.7061 8.5312 16C8.5312 17.2373 8.76587 18.432 9.19574 19.5125C9.072 20.096 9.3952 21.1051 10.1045 22.1717C11.1029 23.6789 12.4939 24.7179 13.2043 24.5045C13.344 24.4331 13.44 24.3339 13.4997 24.1632C13.6928 23.6085 13.5029 22.8405 13.056 22.0011L14.2475 21.4891C15.1051 22.9824 15.1659 24.2763 14.3893 24.5045C14.3221 24.5195 13.9435 24.5333 13.8688 24.5333H13.7248C15.0443 25.216 16.5429 25.6 18.1333 25.6C23.4336 25.6 27.7355 21.3045 27.7355 16ZM16.5888 24.1067L16.0501 23.3248C15.4581 22.4576 19.9371 23.04 19.1616 23.7515L18.5056 24.3349C18.0523 24.7328 16.7808 24.4768 16.5888 24.1067ZM13.7109 19.1861L12.768 19.0293C12.8288 19.0293 12.8875 19.0155 12.9483 19.0005C13.568 18.8437 14.1003 18.0619 13.9008 17.0379C13.7429 16.2133 13.0944 15.4304 12.6037 15.3024C12.7435 15.1317 12.9163 15.0037 13.1189 14.9611C13.8325 14.7765 14.6123 15.5872 14.8597 16.7531C15.1072 17.9051 14.7275 19.0005 14.0149 19.1712C13.8912 19.2 13.8347 19.2139 13.7109 19.1861ZM15.088 10.6528C14.0096 10.5675 14.0203 9.92746 14.2741 9.55733L14.3008 9.51466C15.0048 9.86986 17.3739 9.42933 17.3323 8.576L17.8795 8.8608C18.2645 9.06026 18.3328 9.94133 17.1957 10.3253C16.5387 10.5675 15.8837 10.7093 15.088 10.6528Z" fill="#979797"/>
</svg>