<svg xmlns="http://www.w3.org/2000/svg" width="27" height="27" viewBox="0 0 27 27" fill="none">
  <g clip-path="url(#clip0_2010_175)">
    <path d="M5.94141 2.70001C5.11881 2.70001 4.5 3.60001 4.5 3.60001C-0.2115 3.60001 2.38791 11.1203 1.00371 12.2291C1.00371 12.2291 1.8522 13.2785 4.5 13.2785V14.1768C3.7683 16.083 0 15.3783 0 18.9H7.22109C7.85469 18.5166 9.9 17.4533 9.9 17.4533C9.4113 16.9313 8.7063 16.0288 8.4498 15.3457C7.8882 15.064 7.4133 14.733 7.2 14.1768V13.268C7.371 13.268 7.87524 13.2285 8.05254 13.1889C7.65114 12.5706 7.3125 11.1613 7.3125 10.3711C7.3125 8.36141 8.17798 6.70837 9.61348 5.67247C9.18058 4.01557 8.21931 2.70001 5.94141 2.70001ZM20.7 2.70001C18.6993 2.70001 17.4708 4.0763 17.1738 5.8799C18.6282 6.6593 19.575 8.33958 19.575 10.4555C19.575 11.117 19.4207 11.7535 19.2533 12.2467C19.3154 12.4906 19.35 12.7626 19.35 13.0641C19.35 15.2871 17.1 17.5043 17.1 17.5043C17.5887 17.7176 19.1522 18.5121 19.7912 18.9H27C27 14.175 23.1633 15.525 22.5 13.5V12.15C22.7988 11.9997 23.5104 10.9649 23.6004 10.1567C23.8344 10.1387 24.3 9.56661 24.3 9.0545C24.3 8.5424 24.1372 8.32695 23.9959 8.24415C23.9959 8.24415 24.3 7.56811 24.3 6.75001C24.3 5.11111 23.8572 3.60001 22.5 3.60001C22.5 3.60001 22.1103 2.70001 20.7 2.70001ZM13.5 6.30001C11.0772 6.30001 9.1125 7.75931 9.1125 10.3711C9.1125 11.4754 9.73125 12.3363 9.73125 12.3363C9.73125 12.3363 9.45 12.4746 9.45 13.0641C9.45 14.2098 10.1865 14.4844 10.1865 14.4844C10.2891 15.3916 11.7 16.7203 11.7 16.7203V18.2373C10.9422 20.5107 6.3 19.0125 6.3 24.3H20.7C20.7 18.9945 16.0578 20.5107 15.3 18.2373V16.7203C15.3 16.7203 16.7109 15.3916 16.8135 14.4844C16.8135 14.4844 17.55 13.9758 17.55 13.0641C17.55 12.4323 17.2687 12.3363 17.2687 12.3363C17.2687 12.3363 17.775 11.3735 17.775 10.4555C17.775 8.61498 16.8516 7.20001 15.3 7.20001C15.3 7.20001 14.6412 6.30001 13.5 6.30001Z" fill="#979797"/>
  </g>
  <defs>
    <clipPath id="clip0_2010_175">
      <rect width="27" height="27" fill="white"/>
    </clipPath>
  </defs>
</svg>