<svg xmlns="http://www.w3.org/2000/svg" width="24" height="26" viewBox="0 0 24 26" fill="none">
  <path opacity="0.35" d="M2.29498 25.11C1.82626 25.11 1.38562 24.9275 1.05406 24.5959C0.722498 24.2643 0.539978 23.8237 0.539978 23.355C0.539978 21.0872 1.97071 19.0541 4.1029 18.2876L6.92224 17.1771C6.43651 16.4457 6.1279 15.5684 5.93188 14.7441C5.48935 14.5773 5.48125 14.0616 5.15617 13.6892C4.12828 12.5126 3.34555 10.5629 4.42447 9.30202C4.52977 9.1789 4.64776 9.06739 4.77601 8.96803C4.39369 6.92359 4.60888 5.17129 5.41942 3.74704C6.53884 1.77982 8.44639 1.0897 9.21454 0.884228C9.51667 0.803498 10.601 0.539978 11.8727 0.539978C14.0159 0.539978 15.1464 1.29112 15.7423 2.08006C17.0219 2.57092 17.9906 3.41116 18.5614 4.5322C19.3468 6.07444 19.2318 7.81432 19.0058 8.98153C19.1276 9.07738 19.2399 9.18457 19.3403 9.30202C20.4195 10.5635 20.0259 12.7532 18.998 13.9298C18.6905 14.2816 18.3181 14.5473 17.9039 14.7161C17.7401 15.4899 17.4344 16.3963 16.8663 17.1882L19.6703 18.2925C21.7944 19.056 23.22 21.0872 23.22 23.355C23.22 24.3227 22.4327 25.11 21.465 25.11H2.29498Z" fill="black"/>
  <path d="M1.755 24.57C1.28628 24.57 0.84564 24.3875 0.51408 24.0559C0.18252 23.7244 0 23.2837 0 22.815C0 20.5473 1.43073 18.5142 3.56292 17.7476L6.38226 16.6371C5.89653 15.9057 5.58792 15.0285 5.3919 14.2042C4.94937 14.0373 4.55166 13.7619 4.22658 13.3896C3.19869 12.2129 2.8053 10.0229 3.88422 8.76204C3.98952 8.63892 4.10751 8.52741 4.23576 8.42805C3.85344 6.38361 4.06863 4.63131 4.87917 3.20706C5.99859 1.23984 7.90614 0.54972 8.67429 0.34425C8.97642 0.26352 10.0607 0 11.3324 0C13.4757 0 14.6062 0.75114 15.2021 1.54008C16.4816 2.03094 17.4504 2.87118 18.0212 3.99222C18.8066 5.53446 18.6916 7.27434 18.4656 8.44155C18.5873 8.5374 18.6997 8.64459 18.8001 8.76204C19.8793 10.0235 19.4856 12.2132 18.4577 13.3898C18.1502 13.7417 17.7779 14.0073 17.3637 14.1761C17.1998 14.9499 16.8942 15.8563 16.3261 16.6482L19.13 17.7525C21.2544 18.5161 22.68 20.5473 22.68 22.815C22.68 23.7827 21.8927 24.57 20.925 24.57H1.755Z" fill="#D9D9D9"/>
  <path d="M18.5072 19.3936L13.77 17.8224L14.1691 15.9832C15.1762 15.1678 15.3533 14.0327 15.8271 12.5882C16.2238 12.9595 16.9017 12.8212 17.4134 12.2356C17.9699 11.5987 18.1178 10.6753 17.7441 10.1733C17.4455 9.7724 16.9039 9.76268 16.4147 10.0996C16.5505 9.22295 16.47 8.38703 16.47 7.68098C16.47 4.41074 14.2517 2.43488 11.34 2.43488C8.42833 2.43488 6.21001 4.41074 6.21001 7.68098C6.21001 8.39972 6.15331 9.25319 6.32368 10.1472C6.21 9.72245 5.51637 9.75404 5.20425 10.1731C4.8303 10.675 4.97853 11.5981 5.53501 12.2353C6.09148 12.8723 6.57018 12.9819 6.94386 12.48C6.94548 12.4781 6.94657 12.4756 6.94792 12.4735C7.29001 14.04 7.46929 15.0957 8.37379 15.9422L8.91001 17.8224L4.17285 19.3936C2.72349 19.9068 1.755 21.2776 1.755 22.815H20.925C20.925 21.2776 19.9562 19.9068 18.5072 19.3936Z" fill="#FFC7A3"/>
  <path opacity="0.35" d="M11.3919 16.7425C12.6968 16.7425 13.8985 16.0453 13.8985 16.0453C13.8985 16.0453 13.2983 17.8225 11.3919 17.8225C9.50051 17.8225 8.76422 16.0259 8.76422 16.0259C8.76422 16.0259 10.087 16.7425 11.3919 16.7425Z" fill="#40396E"/>
  <path d="M18.5072 19.3936L14.0122 17.9194C13.8326 19.2364 12.7065 20.2524 11.34 20.2524C9.97354 20.2524 8.84737 19.2364 8.66782 17.9194L4.17285 19.3936C2.72349 19.9068 1.755 21.2776 1.755 22.815H20.925C20.925 21.2776 19.9562 19.9068 18.5072 19.3936Z" fill="#707CC0"/>
  <path d="M11.34 2.29987C8.42833 2.29987 6.07501 4.41073 6.07501 7.68097C6.07501 8.39971 6.17464 8.96104 6.34501 9.85501C5.83903 9.47053 5.38003 9.7138 5.21803 9.90334C4.81114 10.3788 4.99231 11.5984 5.54878 12.2356C6.10525 12.8725 6.88501 12.5577 6.88501 12.5577C6.88663 12.5558 6.75001 14.5803 8.50501 16.3377V17.6877L4.17285 19.3938C2.72349 19.9068 1.755 21.2776 1.755 22.815H20.925C20.925 21.2776 19.9562 19.9068 18.5072 19.3936L14.175 17.6874V16.3374C15.93 14.58 15.7934 12.5555 15.795 12.5574C15.795 12.5574 16.5794 12.8725 17.1358 12.2353C17.6923 11.5984 17.8735 10.3785 17.4666 9.90307C17.3046 9.7138 16.841 9.47053 16.335 9.85474C16.5054 8.96077 16.605 8.39944 16.605 7.6807C16.605 4.411 14.2517 2.29987 11.34 2.29987Z" stroke="#40396E" stroke-miterlimit="10" stroke-linecap="round" stroke-linejoin="round"/>
  <path d="M8.66133 5.39998C10.1539 5.39998 12.5258 5.39998 14.0184 5.39998C14.7682 5.39998 15.3295 5.99587 15.4154 6.7408C15.7148 9.33577 15.9538 9.98998 15.9538 9.98998H17.5284C17.5095 9.9592 17.4893 9.9295 17.4666 9.90331C17.3046 9.71404 16.8623 9.49291 16.3563 9.87739C16.5267 8.98342 16.605 8.39995 16.605 7.68121C16.605 4.41097 14.2517 2.30011 11.34 2.30011C8.42832 2.30011 6.075 4.41097 6.075 7.68121C6.075 8.39995 6.1533 8.98342 6.32367 9.87739C5.81769 9.49291 5.38002 9.71404 5.21802 9.90331C5.19534 9.92977 5.17536 9.9592 5.15619 9.98998H6.7257C6.7257 9.98998 6.97059 9.38464 7.26435 6.7408C7.34724 5.9956 7.91154 5.39998 8.66133 5.39998Z" fill="#40396E"/>
  <path d="M5.81473 9.2483C5.81473 9.2483 6.39847 8.51309 6.96817 8.3708C6.96817 8.3708 13.939 7.94393 14.4971 4.39289C15.0979 0.570228 10.3629 1.29059 9.02287 1.64888C7.84891 1.96289 4.18339 3.46436 5.81473 9.2483Z" fill="#40396E"/>
  <path d="M13.9239 5.02986C13.9239 5.02986 13.8254 6.0456 15.7175 8.36976L16.848 9.27399C16.848 9.27399 18.8568 3.9423 14.2471 2.64252L13.9239 5.02986Z" fill="#40396E"/>
</svg>