<svg xmlns="http://www.w3.org/2000/svg" width="45" height="45" viewBox="0 0 45 45" fill="none">
  <g clip-path="url(#clip0_1623_1939)">
    <path opacity="0.35" d="M10.2848 30.0316L12.8151 31.8388C13.2192 32.3478 13.9977 33.3247 14.3825 33.7959C14.4657 33.8985 14.5535 34.0079 14.6498 34.1289C15.0282 34.6041 15.5093 35.2071 16.11 35.8115C15.849 36.4356 15.7086 37.1119 15.7086 37.8041V39.8228C15.7086 42.6762 18.0302 44.9977 20.8836 44.9977H33.525C36.3785 44.9977 38.7 42.6762 38.7 39.8228V37.8045C38.7 36.8721 38.4471 35.9743 37.9913 35.194C40.1193 32.1079 40.7687 27.6746 40.6085 24.1506L40.6058 24.1025C40.3524 20.3297 38.6748 18.6741 37.3118 17.9501C36.6174 17.5811 35.8344 17.3781 35.0406 17.3597C34.2257 16.4309 33.2361 15.7784 32.1224 15.4458C31.5873 15.2861 31.0356 15.2051 30.483 15.2051C30.1163 15.2051 29.7513 15.2402 29.39 15.3099C28.9008 14.9936 28.3811 14.7514 27.8361 14.5858C29.0399 13.1562 29.7 11.2964 29.7 9.22275C29.7 4.6323 25.9655 0.897751 21.375 0.897751C16.7846 0.897751 13.05 4.63185 13.05 9.22275C13.05 11.5376 13.8798 13.5157 15.5192 15.1187C15.431 17.2098 15.39 18.18 15.3491 19.8936C15.3455 20.0457 15.341 20.1847 15.336 20.3134C14.5598 19.9683 13.5441 19.6398 12.2589 19.5768C12.1046 19.5687 11.9538 19.5651 11.8062 19.5651C8.26429 19.5651 6.33064 21.677 5.75149 23.4851C4.47349 27.468 8.56849 29.3332 10.2848 30.0316Z" fill="black"/>
    <path d="M9.38476 29.1317L11.9151 30.9389C12.3192 31.4478 13.0977 32.4248 13.4825 32.8959C13.5657 32.9985 13.6535 33.1079 13.7498 33.2289C14.1282 33.7041 14.6093 34.3071 15.21 34.9115C14.949 35.5356 14.8086 36.212 14.8086 36.9041V38.9228C14.8086 41.7762 17.1302 44.0978 19.9836 44.0978H32.625C35.4785 44.0978 37.8 41.7762 37.8 38.9228V36.9045C37.8 35.9721 37.5471 35.0744 37.0913 34.2941C39.2193 31.208 39.8687 26.7746 39.7085 23.2506L39.7058 23.2025C39.4524 19.4297 37.7748 17.7741 36.4118 17.0501C35.7174 16.6811 34.9344 16.4781 34.1406 16.4597C33.3257 15.5309 32.3361 14.8784 31.2224 14.5458C30.6873 14.3861 30.1356 14.3051 29.583 14.3051C29.2163 14.3051 28.8513 14.3402 28.49 14.4099C28.0008 14.0936 27.4811 13.8515 26.9361 13.6859C28.1399 12.2562 28.8 10.3964 28.8 8.32276C28.8 3.73231 25.0655 -0.00224304 20.475 -0.00224304C15.8846 -0.00224304 12.15 3.73186 12.15 8.32276C12.15 10.6376 12.9798 12.6158 14.6192 14.2187C14.531 16.3098 14.49 17.28 14.4491 18.9936C14.4455 19.1457 14.441 19.2848 14.436 19.4135C13.6598 19.0683 12.6441 18.7398 11.3589 18.6768C11.2046 18.6687 11.0538 18.6651 10.9062 18.6651C7.36426 18.6651 5.43061 20.777 4.85146 22.5851C3.57346 26.568 7.66846 28.4333 9.38476 29.1317Z" fill="#F2F2F2"/>
    <path d="M20.475 13.7227C23.4573 13.7227 25.875 11.3051 25.875 8.32275C25.875 5.34041 23.4573 2.92274 20.475 2.92274C17.4926 2.92274 15.075 5.34041 15.075 8.32275C15.075 11.3051 17.4926 13.7227 20.475 13.7227Z" fill="#2785BD"/>
    <path d="M20.475 11.6978C22.3389 11.6978 23.85 10.1867 23.85 8.32275C23.85 6.45879 22.3389 4.94775 20.475 4.94775C18.611 4.94775 17.1 6.45879 17.1 8.32275C17.1 10.1867 18.611 11.6978 20.475 11.6978Z" fill="#70BFFF"/>
    <path d="M18.4842 8.2944C18.4248 9.60435 18.3371 11.3481 18.2655 13.0567C18.122 16.4776 17.7444 19.0219 17.7444 19.0219C17.3268 21.4897 17.0622 22.0369 16.4255 22.6732C15.1529 23.9458 13.8515 21.5977 10.9877 21.5977C8.76018 21.5977 8.13603 22.7286 7.63698 23.4778C6.89988 24.8279 8.89113 25.9114 10.8005 26.5478L13.9505 28.7978C13.9505 28.7978 15.2213 30.4002 15.7505 31.0478C16.7238 32.2385 18.2255 34.4228 20.7356 34.6541H19.9845C18.7421 34.6541 17.7345 35.6616 17.7345 36.9041V38.9228C17.7345 40.1652 18.7421 41.1728 19.9845 41.1728H32.6259C33.8684 41.1728 34.8759 40.1652 34.8759 38.9228V36.9045C34.8759 35.6621 33.8684 34.6545 32.6259 34.6545H32.3303C35.1936 34.6545 37.125 28.3477 36.9 23.3977C36.419 19.4913 34.1231 19.0683 32.85 20.0227C32.175 17.3227 29.475 16.4227 27.8748 17.7633C26.3637 15.8742 24.678 16.2243 23.4023 16.8228C22.9473 17.0361 22.6962 16.8444 22.6517 16.3863L22.5 13.0437V8.35335C22.5 7.2666 21.6702 6.30495 20.5844 6.2712C19.3181 6.2316 18.5877 7.14555 18.4842 8.2944Z" fill="#FFC7A3"/>
    <path d="M34.6851 36.6728V39.8228C34.6851 40.5684 34.0807 41.1728 33.3351 41.1728H18.9351C18.1894 41.1728 17.5851 40.5684 17.5851 39.8228V36.6728C17.5851 35.9271 18.1894 35.3228 18.9351 35.3228H33.3351C34.0807 35.3228 34.6851 35.9271 34.6851 36.6728Z" fill="#70BFFF"/>
    <path d="M31.05 39.1478C31.7955 39.1478 32.4 38.5433 32.4 37.7978C32.4 37.0522 31.7955 36.4478 31.05 36.4478C30.3044 36.4478 29.7 37.0522 29.7 37.7978C29.7 38.5433 30.3044 39.1478 31.05 39.1478Z" fill="#40396E"/>
    <path d="M19.35 8.53606C19.35 7.92136 19.8549 7.42276 20.4777 7.42276C21.1005 7.42276 21.6054 7.92136 21.6054 8.53651C21.6054 9.15166 19.35 9.15121 19.35 8.53606Z" fill="#FFE8D9"/>
    <path d="M32.6254 41.8478H19.984C18.3712 41.8478 17.059 40.5356 17.059 38.9228V36.9041C17.059 35.9226 17.545 35.0528 18.2884 34.5218C17.0599 33.7721 16.1743 32.6606 15.5074 31.8245C15.4093 31.7012 15.3157 31.5842 15.2271 31.4753C14.7645 30.9092 13.7367 29.6159 13.4797 29.2919L10.4733 27.1449C8.87219 26.5046 6.29864 25.4381 6.99344 23.2727C7.36559 22.1112 8.71199 20.7959 11.2446 20.9241C12.7318 20.997 13.7155 21.5393 14.4337 21.9357C15.2716 22.3979 15.5124 22.5054 16.0254 22.1292C16.5622 21.7364 16.6662 20.4156 16.6981 19.0467C16.7386 17.3417 16.7796 16.3755 16.8691 14.2587L16.9123 13.2318C15.7567 12.3449 14.4 10.8954 14.4 8.32276C14.4 4.97296 17.1252 2.24776 20.475 2.24776C23.8248 2.24776 26.55 4.97251 26.55 8.32276C26.55 10.5354 25.5708 12.362 23.8477 13.3983L23.8383 15.8864C25.168 15.4503 26.7466 15.633 28.0215 16.9137C28.8589 16.5236 29.7333 16.4489 30.5788 16.7013C31.585 17.0019 32.4634 17.757 33.0984 18.8546C33.8598 18.6116 34.6671 18.6696 35.3569 19.0359C36.216 19.4927 37.2784 20.6118 37.462 23.3519C37.6492 27.4703 36.6403 32.1174 34.0587 34.3539C34.9492 34.8557 35.5513 35.8106 35.5513 36.9036V38.9219C35.5504 40.5356 34.2382 41.8478 32.6254 41.8478ZM19.984 35.3286C19.1155 35.3286 18.409 36.0351 18.409 36.9036V38.9223C18.409 39.7908 19.1155 40.4973 19.984 40.4973H32.6254C33.4939 40.4973 34.2004 39.7908 34.2004 38.9223V36.9041C34.2004 36.0356 33.4939 35.3291 32.6254 35.3291H32.3298C32.0089 35.3291 31.7322 35.1032 31.6683 34.7886C31.6039 34.4741 31.7709 34.1582 32.0665 34.0326C34.6824 32.9243 36.3469 28.5638 36.1134 23.4284C36.0031 21.7877 35.509 20.6465 34.7224 20.2289C34.2409 19.9719 33.6591 20.003 33.1272 20.3121C32.962 20.4084 32.764 20.4296 32.5822 20.3715C32.4004 20.3135 32.2519 20.1807 32.1732 20.0066C31.6944 18.9482 30.9906 18.234 30.1918 17.9951C29.5587 17.8052 28.8828 17.9235 28.2361 18.333C27.9454 18.5175 27.5625 18.4532 27.3478 18.185C25.7737 16.2176 23.8864 17.2854 23.5246 17.5194C23.3163 17.6544 23.0512 17.663 22.8348 17.5446C22.6174 17.4258 22.4829 17.1977 22.4838 16.9502L22.4995 12.9978C22.5004 12.7445 22.6431 12.5132 22.869 12.3984C24.372 11.6366 25.2 10.1894 25.2 8.32321C25.2 5.71771 23.0805 3.59821 20.475 3.59821C17.8695 3.59821 15.75 5.71726 15.75 8.32276C15.75 10.0233 16.4214 11.2284 17.9946 12.3525C18.18 12.4853 18.2857 12.7022 18.2767 12.9299L18.2182 14.3154C18.1291 16.4237 18.0886 17.3858 18.0486 19.0778C18.0072 20.817 17.883 22.4429 16.8232 23.2178C15.5956 24.1164 14.6322 23.5863 13.7817 23.117C13.1125 22.7475 12.3534 22.329 11.1789 22.2714C9.39599 22.1841 8.50544 22.9779 8.27954 23.684C8.11664 24.1907 8.19674 24.7811 11.0502 25.9209C11.1001 25.9407 11.1483 25.9673 11.1919 25.9983L14.3419 28.2483C14.3932 28.2852 14.4391 28.3289 14.4787 28.3784C14.4787 28.3788 15.745 29.9754 16.272 30.6203C16.3642 30.7332 16.4614 30.8547 16.5631 30.983C17.5099 32.171 18.8064 33.7982 20.7963 33.9813C21.1554 34.0146 21.4249 34.3242 21.4083 34.6847C21.3921 35.0456 21.0951 35.3291 20.7342 35.3291L19.984 35.3286Z" fill="#40396E"/>
  </g>
  <defs>
    <clipPath id="clip0_1623_1939">
      <rect width="45" height="45" fill="white"/>
    </clipPath>
  </defs>
</svg>