<svg xmlns="http://www.w3.org/2000/svg" width="27" height="27" viewBox="0 0 27 27" fill="none">
  <g clip-path="url(#clip0_1623_1064)">
    <path opacity="0.35" d="M12.8251 27.0001C11.9489 27.0001 11.201 26.3451 11.0855 25.4765L10.9008 24.0916C10.2968 23.9037 9.71252 23.6618 9.15227 23.3672L8.04203 24.2164C7.73963 24.4486 7.36028 24.5774 6.97661 24.5774C6.50789 24.5774 6.06725 24.3951 5.73569 24.0636L4.01687 22.345C3.39722 21.7259 3.33134 20.7336 3.86405 20.0376L4.71266 18.9276C4.41809 18.3674 4.17617 17.7834 3.98825 17.1791L2.60288 16.9944C1.7351 16.8791 1.08008 16.1312 1.08008 15.2551V12.8251C1.08008 11.9489 1.7351 11.201 2.60369 11.0855L3.98852 10.9008C4.17644 10.2968 4.41836 9.71252 4.71293 9.15227L3.86378 8.04203C3.33134 7.34624 3.39722 6.35426 4.01741 5.73461L5.73515 4.01687C6.06617 3.68558 6.50708 3.50279 6.97607 3.50279C7.3592 3.50279 7.73774 3.63104 8.04203 3.86351L9.15254 4.71266C9.71279 4.41836 10.2971 4.17617 10.9011 3.98825L11.0857 2.60288C11.201 1.7351 11.9489 1.08008 12.8251 1.08008H15.2551C16.1312 1.08008 16.8791 1.7351 16.9947 2.60369L17.1794 3.98852C17.7834 4.17644 18.3676 4.41836 18.9279 4.71293L20.0381 3.86378C20.3432 3.63077 20.7215 3.50306 21.1041 3.50306C21.5731 3.50306 22.014 3.68585 22.3455 4.01768L24.0633 5.73542C24.6829 6.35453 24.7488 7.34678 24.2161 8.04284L23.3675 9.15281C23.6618 9.71306 23.904 10.2973 24.0919 10.9013L25.4773 11.086C26.3451 11.201 27.0001 11.9489 27.0001 12.8251V15.2551C27.0001 16.1312 26.3451 16.8791 25.4765 16.9947L24.0916 17.1794C23.9037 17.7834 23.6618 18.3674 23.3672 18.9279L24.2164 20.0381C24.7488 20.7339 24.6829 21.7259 24.0627 22.3455L22.345 24.0633C22.0148 24.3946 21.5736 24.5774 21.1038 24.5774C20.7204 24.5774 20.3413 24.4488 20.0365 24.2153L18.9276 23.3672C18.3674 23.6615 17.7831 23.9037 17.1791 24.0916L16.9944 25.477C16.8791 26.3451 16.1312 27.0001 15.2551 27.0001H12.8251Z" fill="black"/>
    <path d="M12.285 26.46C11.4089 26.46 10.661 25.805 10.5454 24.9364L10.3608 23.5516C9.75676 23.3637 9.17248 23.1218 8.61223 22.8272L7.50199 23.6763C7.19959 23.9085 6.82024 24.0373 6.43657 24.0373C5.96785 24.0373 5.52721 23.8551 5.19565 23.5235L3.47683 21.805C2.85718 21.1859 2.7913 20.1936 3.32401 19.4975L4.17262 18.3876C3.87805 17.8273 3.63613 17.2433 3.44821 16.6391L2.06284 16.4544C1.19506 16.3391 0.540039 15.5912 0.540039 14.715V12.285C0.540039 11.4089 1.19506 10.661 2.06365 10.5454L3.44848 10.3608C3.6364 9.75676 3.87832 9.17248 4.17289 8.61223L3.32374 7.50199C2.7913 6.8062 2.85718 5.81422 3.47737 5.19457L5.19511 3.47683C5.52613 3.14554 5.96704 2.96275 6.43603 2.96275C6.81916 2.96275 7.1977 3.091 7.50199 3.32347L8.6125 4.17262C9.17275 3.87832 9.75703 3.63613 10.361 3.44821L10.5457 2.06284C10.661 1.19506 11.4089 0.540039 12.285 0.540039H14.715C15.5912 0.540039 16.3391 1.19506 16.4546 2.06365L16.6393 3.44848C17.2433 3.6364 17.8276 3.87832 18.3878 4.17289L19.4981 3.32374C19.8032 3.09073 20.1815 2.96302 20.5641 2.96302C21.033 2.96302 21.4739 3.14581 21.8055 3.47764L23.5233 5.19538C24.1429 5.81449 24.2088 6.80674 23.6761 7.5028L22.8275 8.61277C23.1218 9.17302 23.3639 9.7573 23.5519 10.3613L24.9372 10.546C25.805 10.661 26.46 11.4089 26.46 12.285V14.715C26.46 15.5912 25.805 16.3391 24.9364 16.4546L23.5516 16.6393C23.3637 17.2433 23.1218 17.8273 22.8272 18.3878L23.6763 19.4981C24.2088 20.1939 24.1429 21.1859 23.5227 21.8055L21.805 23.5233C21.4748 23.8545 21.0336 24.0373 20.5638 24.0373C20.1804 24.0373 19.8013 23.9088 19.4965 23.6753L18.3876 22.8272C17.8273 23.1215 17.243 23.3637 16.6391 23.5516L16.4544 24.937C16.3391 25.805 15.5912 26.46 14.715 26.46H12.285Z" fill="#F2F2F2"/>
    <path d="M22.1343 15.0576C21.9077 16.3209 21.412 17.49 20.7068 18.5036L22.2822 20.5637L20.5639 22.2819L18.5038 20.7065C17.4903 21.4117 16.3209 21.9075 15.0578 22.134L14.7149 24.7049H12.2849L11.9423 22.1343C10.679 21.9077 9.50986 21.412 8.49628 20.7068L6.43618 22.2822L4.7179 20.5639L6.29335 18.5038C5.58811 17.4903 5.09239 16.3209 4.86586 15.0578L2.29492 14.7149V12.2849L4.86559 11.9423C5.09212 10.679 5.58784 9.50986 6.29308 8.49628L4.71763 6.43618L6.43591 4.7179L8.49601 6.29335C9.50959 5.58811 10.679 5.09239 11.942 4.86586L12.2849 2.29492H14.7149L15.0576 4.86559C16.3209 5.09212 17.49 5.58784 18.5036 6.29308L20.5637 4.71763L22.2819 6.43591L20.7065 8.49601C21.4117 9.50959 21.9075 10.679 22.134 11.942L24.7049 12.2849V14.7149L22.1343 15.0576ZM13.4999 9.58492C11.3378 9.58492 9.58492 11.3378 9.58492 13.4999C9.58492 15.6621 11.3378 17.4149 13.4999 17.4149C15.6621 17.4149 17.4149 15.6621 17.4149 13.4999C17.4149 11.3378 15.6621 9.58492 13.4999 9.58492Z" fill="#9AA2E6"/>
    <path d="M22.1343 15.0576C21.9077 16.3209 21.412 17.49 20.7068 18.5036L22.2822 20.5637L20.5639 22.2819L18.5038 20.7065C17.4903 21.4117 16.3209 21.9075 15.0578 22.134L14.7149 24.7049H12.2849L11.9423 22.1343C10.679 21.9077 9.50986 21.412 8.49628 20.7068L6.43618 22.2822L4.7179 20.5639L6.29335 18.5038C5.58811 17.4903 5.09239 16.3209 4.86586 15.0578L2.29492 14.7149V12.2849L4.86559 11.9423C5.09212 10.679 5.58784 9.50986 6.29308 8.49628L4.71763 6.43618L6.43591 4.7179L8.49601 6.29335C9.50959 5.58811 10.679 5.09239 11.942 4.86586L12.2849 2.29492H14.7149L15.0576 4.86559C16.3209 5.09212 17.49 5.58784 18.5036 6.29308L20.5637 4.71763L22.2819 6.43591L20.7065 8.49601C21.4117 9.50959 21.9075 10.679 22.134 11.942L24.7049 12.2849V14.7149L22.1343 15.0576ZM22.1343 15.0576C21.9077 16.3209 21.412 17.49 20.7068 18.5036L22.2822 20.5637L20.5639 22.2819L18.5038 20.7065C17.4903 21.4117 16.3209 21.9075 15.0578 22.134L14.7149 24.7049H12.2849L11.9423 22.1343C10.679 21.9077 9.50986 21.412 8.49628 20.7068L6.43618 22.2822L4.7179 20.5639L6.29335 18.5038C5.58811 17.4903 5.09239 16.3209 4.86586 15.0578L2.29492 14.7149V12.2849L4.86559 11.9423C5.09212 10.679 5.58784 9.50986 6.29308 8.49628L4.71763 6.43618L6.43591 4.7179L8.49601 6.29335C9.50959 5.58811 10.679 5.09239 11.942 4.86586L12.2849 2.29492H14.7149L15.0576 4.86559C16.3209 5.09212 17.49 5.58784 18.5036 6.29308L20.5637 4.71763L22.2819 6.43591L20.7065 8.49601C21.4117 9.50959 21.9075 10.679 22.134 11.942L24.7049 12.2849V14.7149L22.1343 15.0576ZM13.4999 9.58492C11.3378 9.58492 9.58492 11.3378 9.58492 13.4999C9.58492 15.6621 11.3378 17.4149 13.4999 17.4149C15.6621 17.4149 17.4149 15.6621 17.4149 13.4999C17.4149 11.3378 15.6621 9.58492 13.4999 9.58492Z" stroke="#40396E" stroke-miterlimit="10" stroke-linecap="round" stroke-linejoin="round"/>
    <path d="M13.5 9.58496C11.3378 9.58496 9.58496 11.3378 9.58496 13.5C9.58496 15.6621 11.3378 17.415 13.5 17.415C15.6621 17.415 17.415 15.6621 17.415 13.5C17.415 11.3378 15.6621 9.58496 13.5 9.58496Z" stroke="#40396E" stroke-miterlimit="10" stroke-linecap="round" stroke-linejoin="round"/>
    <path d="M13.5 9.58496C11.3378 9.58496 9.58496 11.3378 9.58496 13.5C9.58496 15.6621 11.3378 17.415 13.5 17.415C15.6621 17.415 17.415 15.6621 17.415 13.5C17.415 11.3378 15.6621 9.58496 13.5 9.58496Z" stroke="#40396E" stroke-miterlimit="10"/>
  </g>
  <defs>
    <clipPath id="clip0_1623_1064">
      <rect width="27" height="27" fill="white"/>
    </clipPath>
  </defs>
</svg>