<svg xmlns="http://www.w3.org/2000/svg" width="27" height="27" viewBox="0 0 27 27" fill="none">
  <path opacity="0.35" d="M20.655 8.91007H19.6604C19.7976 8.3348 19.6383 7.72246 19.2167 7.28506L15.3015 3.23479C14.9758 2.89835 14.516 2.70508 14.0399 2.70508C13.5639 2.70508 13.104 2.89835 12.7781 3.23506L8.8618 7.28664C8.4416 7.72246 8.28238 8.33492 8.41942 8.91007H7.42505C5.56405 8.91007 4.05005 10.4241 4.05005 12.2851V22.0051C4.05005 23.8661 5.56405 25.3801 7.42505 25.3801H20.655C22.516 25.3801 24.03 23.8661 24.03 22.0051V12.2851C24.03 10.4241 22.516 8.91007 20.655 8.91007Z" fill="black"/>
  <path d="M20.115 8.37003H19.1204C19.2575 7.79476 19.0983 7.18242 18.6767 6.74502L14.7614 2.69476C14.4358 2.35831 13.9759 2.16504 13.4999 2.16504C13.0238 2.16504 12.564 2.35831 12.2381 2.69502L8.32176 6.7466C7.90156 7.18242 7.74234 7.79488 7.87938 8.37003H6.88501C5.02401 8.37003 3.51001 9.88403 3.51001 11.745V21.465C3.51001 23.326 5.02401 24.84 6.88501 24.84H20.115C21.976 24.84 23.49 23.326 23.49 21.465V11.745C23.49 9.88403 21.976 8.37003 20.115 8.37003Z" fill="#F2F2F2"/>
  <path d="M15.255 7.96504V17.955H11.745V7.96504H9.58496L13.5 3.91504L17.415 7.96504H15.255Z" fill="#70BFFF"/>
  <path d="M15.255 18.36H11.745C11.5211 18.36 11.34 18.1786 11.34 17.955V8.37001H9.58496C9.42242 8.37001 9.27554 8.27281 9.21209 8.12323C9.14864 7.97338 9.18077 7.80058 9.29363 7.6834L13.2086 3.6334C13.3612 3.47572 13.6385 3.47572 13.791 3.6334L17.706 7.6834C17.8189 7.80058 17.8513 7.97338 17.7876 8.12323C17.7244 8.27281 17.5775 8.37001 17.415 8.37001H15.66V17.955C15.66 18.1786 15.4788 18.36 15.255 18.36ZM12.15 17.55H14.85V7.96501C14.85 7.74145 15.0311 7.56001 15.255 7.56001H16.4602L13.5 4.49767L10.5397 7.56001H11.745C11.9688 7.56001 12.15 7.74145 12.15 7.96501V17.55Z" fill="#40396E"/>
  <path d="M18.2249 11.07C18.2249 11.5919 18.648 12.015 19.1699 12.015H19.5749C19.724 12.015 19.8449 12.1359 19.8449 12.285V20.655C19.8449 20.9532 19.6031 21.195 19.3049 21.195H7.69489C7.39666 21.195 7.15489 20.9532 7.15489 20.655V12.285C7.15489 12.1359 7.27578 12.015 7.42489 12.015H7.82989C8.3518 12.015 8.77489 11.5919 8.77489 11.07C8.77489 10.5481 8.3518 10.125 7.82989 10.125H6.88489C5.99019 10.125 5.26489 10.8503 5.26489 11.745V21.465C5.26489 22.3597 5.99019 23.085 6.88489 23.085H20.1149C21.0096 23.085 21.7349 22.3597 21.7349 21.465V11.745C21.7349 10.8503 21.0096 10.125 20.1149 10.125H19.1699C18.648 10.125 18.2249 10.5481 18.2249 11.07Z" fill="#70BFFF" stroke="#40396E" stroke-width="0.8" stroke-miterlimit="10" stroke-linecap="round" stroke-linejoin="round"/>
</svg>