<svg xmlns="http://www.w3.org/2000/svg" width="251" height="102" viewBox="0 0 251 102" fill="none">
  <path d="M233.957 0.00531979C240.446 0.739388 245.325 3.91621 248.596 9.53579C250.33 12.5004 250.945 15.7417 250.975 19.1106C251.021 24.2703 250.975 29.4301 251 34.5899C251 35.2122 250.838 35.3931 250.193 35.4268C245.905 35.6537 242.225 37.308 239.28 40.3915C236.721 43.0243 235.183 46.4736 234.937 50.1276C234.581 54.6491 235.938 58.6386 238.925 62.0075C241.517 64.9936 245.163 66.875 249.109 67.263C250.98 67.4687 250.988 67.4048 250.988 69.2382C250.988 73.671 251.012 78.1038 250.977 82.5366C250.955 85.1749 250.661 87.7814 249.619 90.2514C247.333 95.6682 243.398 99.3137 237.77 101.131C235.995 101.703 234.139 101.991 232.273 101.986C185.941 101.986 139.603 101.986 93.2598 101.986C93.1529 101.986 93.0442 101.986 92.9373 101.975C92.7234 100.78 92.8821 99.5744 92.8411 98.3758C92.8286 98.0211 92.825 97.7392 92.3403 97.7552C91.8913 97.7694 91.9037 98.0513 91.9037 98.358C91.9037 99.5602 91.9079 100.764 91.9162 101.968C91.5919 101.968 91.2675 101.986 90.9432 101.986C67.0726 101.986 43.2013 101.991 19.3295 102C13.3491 102 8.36122 99.8882 4.44614 95.4182C2.12128 92.7718 0.638911 89.4979 0.187129 86.0119C-0.131851 83.7068 0.0588246 81.4018 0.0356584 79.0967C1.81895e-05 75.4689 0.0356583 71.8411 0.0160562 68.2134C0.0160562 67.6601 0.110502 67.4314 0.752027 67.3889C4.95758 67.1087 8.60357 65.5271 11.5475 62.5128C14.0936 59.9457 15.6559 56.5725 15.9633 52.9788C16.4462 47.9272 14.8371 43.6008 11.2623 40.0351C8.38617 37.1662 4.84709 35.6555 0.766283 35.4339C0.147925 35.3931 0.021402 35.2069 0.021402 34.6218C0.0427862 28.9478 -0.0427501 23.2739 0.0641706 17.6123C0.142579 13.449 1.68224 9.7663 4.3909 6.58179C7.18153 3.29089 10.6939 1.17912 14.944 0.303203C15.6015 0.166673 16.2734 0.0992942 16.938 0C17.3426 0 17.7471 0.0195043 18.1516 0.0195043H91.0359C91.0899 0.0230497 91.1441 0.0230497 91.1981 0.0195043C91.7184 -0.0443277 91.9216 0.168446 91.9109 0.702153C91.8788 1.6685 91.9109 2.63662 91.9109 3.60296C91.9109 3.9239 91.9501 4.20937 92.3724 4.20759C92.7947 4.20582 92.8482 3.94517 92.8446 3.61005C92.8446 2.80506 92.8446 1.9983 92.8446 1.1933C92.8446 0.0212772 92.8446 0.0195043 94.019 0.0195043H231.535C232.337 0.0106388 233.146 0.0070929 233.957 0.00531979ZM25.0319 51.2961C24.9969 58.0437 27.6315 64.5341 32.3664 69.3648C37.1013 74.1955 43.5563 76.9786 50.3365 77.1126C64.949 77.3839 76.6943 65.8782 76.7495 51.5124C76.8083 36.98 65.0648 25.836 51.2061 25.6853C36.7041 25.5293 25.0747 37.1343 25.0319 51.2961ZM92.8357 33.9019C92.8357 32.7198 92.8357 31.5377 92.8357 30.3557C92.8357 30.001 92.8785 29.6074 92.3492 29.6127C91.8663 29.6127 91.9055 29.9869 91.9055 30.3096C91.9055 32.7234 91.9055 35.1366 91.9055 37.5492C91.9055 37.8896 91.9055 38.2265 92.3884 38.2088C92.8714 38.191 92.8393 37.8453 92.8393 37.5137C92.8369 36.3127 92.8357 35.1088 92.8357 33.9019ZM92.8357 16.9509C92.8357 15.7186 92.8357 14.4845 92.8357 13.2505C92.8357 12.8958 92.8179 12.6157 92.3332 12.6299C91.8806 12.6441 91.9002 12.9313 91.9002 13.2345C91.9002 15.6755 91.9002 18.1159 91.9002 20.5557C91.9002 20.9103 91.9162 21.194 92.4009 21.178C92.8518 21.1621 92.8357 20.8766 92.8357 20.5716C92.8357 19.3647 92.8357 18.1555 92.8357 16.9438V16.9509ZM92.8357 68.0981C92.8357 66.8392 92.8357 65.5803 92.8357 64.3214C92.8357 63.9969 92.8072 63.7433 92.3742 63.7433C91.9412 63.7433 91.8984 63.9774 91.9002 64.3125C91.9002 66.7488 91.9002 69.1862 91.9002 71.6248C91.9002 71.9901 91.9732 72.2614 92.4241 72.2561C92.8749 72.2507 92.8339 71.9263 92.8339 71.6337C92.8375 70.4563 92.8381 69.2778 92.8357 68.0981ZM91.9037 84.9427C91.9037 86.1218 91.9037 87.3009 91.9037 88.4889C91.9037 88.8116 91.779 89.223 92.3599 89.2283C92.9409 89.2336 92.8304 88.8311 92.8304 88.5013C92.8304 86.1431 92.8304 83.7848 92.8304 81.4266C92.8304 81.1323 92.9605 80.7351 92.4348 80.7173C91.9091 80.6996 91.9002 81.04 91.9002 81.4177C91.9073 82.5897 91.9037 83.7689 91.9037 84.948V84.9427ZM92.8375 51.0018C92.8375 49.7653 92.8375 48.5295 92.8375 47.2942C92.8375 47.0016 92.8927 46.6754 92.4276 46.6683C91.9625 46.6612 91.9037 46.9413 91.9037 47.3031C91.9037 49.7216 91.9037 52.1395 91.9037 54.5569C91.9037 54.9221 91.9875 55.197 92.4383 55.1828C92.8892 55.1686 92.8357 54.8281 92.8375 54.548C92.8393 53.3706 92.8375 52.188 92.8375 51.0071V51.0018Z" fill="#10AEFF"/>
</svg>