<svg xmlns="http://www.w3.org/2000/svg" width="162" height="100" viewBox="0 0 162 100" fill="none">
  <path d="M139.32 2.25023e-06H22.4801C19.5276 -0.00131201 16.6038 0.579253 13.8758 1.70851C11.1478 2.83777 8.66909 4.49359 6.58136 6.58131C4.49364 8.66903 2.83783 11.1477 1.70857 13.8757C0.579307 16.6037 -0.00125862 19.5275 5.56398e-05 22.48V77.48C-0.00652199 80.4359 0.570159 83.364 1.69706 86.0966C2.82397 88.8292 4.47895 91.3126 6.56719 93.4046C8.65544 95.4965 11.1359 97.1559 13.8665 98.2877C16.5971 99.4194 19.5242 100.001 22.4801 100H139.32C142.273 100.001 145.196 99.4207 147.924 98.2915C150.652 97.1622 153.131 95.5064 155.219 93.4187C157.306 91.331 158.962 88.8523 160.092 86.1243C161.221 83.3963 161.801 80.4725 161.8 77.52V22.52C161.807 19.5642 161.23 16.6361 160.103 13.9034C158.976 11.1708 157.321 8.6874 155.233 6.59544C153.145 4.50348 150.664 2.84408 147.934 1.71233C145.203 0.580565 142.276 -0.00132054 139.32 2.25023e-06ZM45.4801 65C40.8367 64.9941 36.2993 63.6121 32.441 61.0287C28.5827 58.4453 25.5766 54.7764 23.8024 50.4854C22.0282 46.1944 21.5656 41.4738 22.4729 36.92C23.3802 32.3662 25.6168 28.1834 28.9001 24.9001C32.1835 21.6168 36.3662 19.3802 40.92 18.4728C45.4739 17.5655 50.1944 18.0282 54.4854 19.8024C58.7765 21.5765 62.4454 24.5827 65.0288 28.441C67.6122 32.2993 68.9941 36.8367 69.0001 41.48C69.0053 44.5702 68.4006 47.631 67.2204 50.4869C66.0403 53.3429 64.308 55.9378 62.123 58.1229C59.9379 60.308 57.343 62.0403 54.487 63.2204C51.631 64.4005 48.5702 65.0053 45.4801 65Z" fill="#979797"/>
</svg>