<svg xmlns="http://www.w3.org/2000/svg" width="45" height="45" viewBox="0 0 45 45" fill="none">
  <path d="M21.5625 37.5H15C13.6252 37.5 12.4231 38.24 11.7703 39.3433C11.2078 40.2939 12.1454 41.25 13.25 41.25H33.625C34.7296 41.25 35.6672 40.2939 35.1047 39.3433C34.4519 38.24 33.2498 37.5 31.875 37.5H25.3125H21.5625Z" fill="url(#paint0_linear_2165_203)"/>
  <path d="M25.3125 24.375H21.5625V37.5H25.3125V24.375Z" fill="url(#paint1_linear_2165_203)"/>
  <path d="M40.3125 10.3125C40.3125 9.79473 39.8928 9.375 39.375 9.375H7.5C6.98223 9.375 6.5625 9.79473 6.5625 10.3125C6.5625 12.0834 7.39594 13.7503 8.8125 14.8125L20.7625 23.775C21.2818 24.1645 21.9134 24.375 22.5625 24.375H24.3125C24.9616 24.375 25.5932 24.1645 26.1125 23.775L38.0625 14.8125C39.4791 13.7503 40.3125 12.0834 40.3125 10.3125Z" fill="url(#paint2_linear_2165_203)"/>
  <path d="M9.375 18.75C14.0349 18.75 17.8125 14.9724 17.8125 10.3125C17.8125 5.6526 14.0349 1.875 9.375 1.875C4.7151 1.875 0.9375 5.6526 0.9375 10.3125C0.9375 14.9724 4.7151 18.75 9.375 18.75Z" fill="url(#paint3_linear_2165_203)"/>
  <defs>
    <linearGradient id="paint0_linear_2165_203" x1="23.4375" y1="44.5022" x2="23.4375" y2="34.9922" gradientUnits="userSpaceOnUse">
      <stop stop-color="#262626" stop-opacity="0"/>
      <stop offset="0.961" stop-color="#262626" stop-opacity="0.8"/>
    </linearGradient>
    <linearGradient id="paint1_linear_2165_203" x1="32.4891" y1="46.6153" x2="15.6984" y2="17.5331" gradientUnits="userSpaceOnUse">
      <stop stop-color="#262626" stop-opacity="0"/>
      <stop offset="0.961" stop-color="#262626" stop-opacity="0.8"/>
    </linearGradient>
    <linearGradient id="paint2_linear_2165_203" x1="14.3691" y1="26.3044" x2="30.4359" y2="-1.52438" gradientUnits="userSpaceOnUse">
      <stop stop-color="#262626" stop-opacity="0"/>
      <stop offset="1" stop-color="#262626" stop-opacity="0.8"/>
    </linearGradient>
    <linearGradient id="paint3_linear_2165_203" x1="14.6597" y1="19.4653" x2="2.01281" y2="-2.43844" gradientUnits="userSpaceOnUse">
      <stop stop-color="#262626" stop-opacity="0"/>
      <stop offset="1" stop-color="#262626" stop-opacity="0.8"/>
    </linearGradient>
  </defs>
</svg>