<svg xmlns="http://www.w3.org/2000/svg" width="43" height="43" viewBox="0 0 43 43" fill="none">
  <path d="M23.2917 34.9375H8.375C6.71814 34.9375 5.375 33.5944 5.375 31.9375V8.0625C5.375 6.09166 6.9875 4.47916 8.95833 4.47916H23.875C25.5319 4.47916 26.875 5.82231 26.875 7.47916V31.3542C26.875 33.325 25.2625 34.9375 23.2917 34.9375Z" fill="url(#paint0_linear_2027_559)"/>
  <path d="M37.625 11.6458V35.5208C37.625 37.1777 36.2819 38.5208 34.625 38.5208H19.7083C18.7899 38.5208 17.9493 38.1707 17.3134 37.5972C16.083 36.4876 17.4681 34.9375 19.125 34.9375H23.2917C25.2625 34.9375 26.875 33.325 26.875 31.3542V11.0625C26.875 9.40564 28.2181 8.0625 29.875 8.0625H34.0417C36.0206 8.0625 37.625 9.66694 37.625 11.6458Z" fill="url(#paint1_linear_2027_559)"/>
  <path d="M22.3958 20.1563C22.3958 17.0208 18.8125 15.2292 16.125 12.5417C13.4375 15.2292 9.85413 17.0208 9.85413 20.1563C9.85413 21.8879 11.2579 23.2917 12.9895 23.2917C13.6973 23.2917 14.3396 23.0471 14.8618 22.6511C14.1273 24.4993 12.5416 24.1875 12.5416 25.9792H19.7083C19.7083 24.1875 18.1227 24.4993 17.3881 22.6511C17.9104 23.0471 18.5527 23.2917 19.2604 23.2917C20.992 23.2917 22.3958 21.8879 22.3958 20.1563Z" fill="url(#paint2_linear_2027_559)"/>
  <defs>
    <linearGradient id="paint0_linear_2027_559" x1="-6.33175" y1="46.4705" x2="42.3828" y2="-11.584" gradientUnits="userSpaceOnUse">
      <stop stop-color="#262626" stop-opacity="0"/>
      <stop offset="1" stop-color="#262626" stop-opacity="0.8"/>
    </linearGradient>
    <linearGradient id="paint1_linear_2027_559" x1="57.8905" y1="41.1967" x2="19.2765" y2="18.903" gradientUnits="userSpaceOnUse">
      <stop stop-color="#262626" stop-opacity="0"/>
      <stop offset="1" stop-color="#262626" stop-opacity="0.8"/>
    </linearGradient>
    <linearGradient id="paint2_linear_2027_559" x1="16.125" y1="42.5351" x2="16.125" y2="6.65157" gradientUnits="userSpaceOnUse">
      <stop stop-color="#262626" stop-opacity="0"/>
      <stop offset="1" stop-color="#262626" stop-opacity="0.8"/>
    </linearGradient>
  </defs>
</svg>